<svg width="469" height="122" viewBox="0 0 469 122" fill="none" xmlns="http://www.w3.org/2000/svg">
<path d="M59.119 62.4954H19.7067C8.82237 62.4954 0 71.3182 0 82.2015V101.908C0 112.791 8.82237 121.614 19.7067 121.614H59.119C70.0028 121.614 78.8252 112.791 78.8252 101.908C78.8252 91.0243 70.0028 82.2015 59.119 82.2015H78.8252C78.8252 71.3182 70.0028 62.4954 59.119 62.4954ZM59.119 3.78489e-06H19.7067C8.82237 3.78489e-06 0 8.82282 0 19.7061H19.7067C8.82237 19.7061 0 28.5285 0 39.4123V59.1189H78.8252V39.4123H59.119C70.0028 39.4123 78.8252 30.5895 78.8252 19.7061C78.8252 8.82282 70.0028 3.78489e-06 59.119 3.78489e-06Z" fill="black"/>
<path d="M77.1278 119.503H76.7939V121.614H77.1278V120.773H78.8211V120.347H77.1278V119.503Z" fill="black"/>
<path d="M78.8202 116.455H76.9779C76.9201 116.455 76.8748 116.47 76.8424 116.501C76.8092 116.532 76.793 116.577 76.793 116.634V117.105L78.3975 117.849L76.793 118.595V119.064C76.793 119.12 76.8092 119.163 76.8424 119.197C76.8748 119.229 76.9201 119.246 76.9779 119.246H78.8202V118.831H77.1273L78.8202 118.056V117.648L77.1273 116.869H78.8202V116.455Z" fill="black"/>
<path d="M23.2412 98.5991V110.093H26.7925V105.942H29.3487L30.2578 103.43H26.7925V101.104H31.0966L32.0025 98.5991H23.2412Z" fill="white"/>
<path d="M33.0859 98.5991L33.0864 110.093H36.6372V98.5991H33.0859Z" fill="white"/>
<path d="M39.0811 98.5991V110.093H42.6323V105.942H45.1885L46.0976 103.43H42.6323V101.104H46.9364L47.8423 98.5991H39.0811Z" fill="white"/>
<path d="M51.9602 101.552L53.3794 106.34H50.5878L51.9602 101.552ZM50.1703 98.5982L46.0137 110.093H49.5099L49.9538 108.549H53.9671L54.4309 110.093H58.0173L53.8621 98.5982H50.1703Z" fill="white"/>
<path d="M26.2357 90.9471C27.6184 88.361 28.8187 85.4186 29.8139 82.1891C30.7976 78.9971 31.5455 75.6292 31.9689 72.5531C32.394 69.4649 32.3224 64.0695 31.8307 61.3187C31.4532 59.2072 30.9645 57.3432 30.1264 55.1118C29.2544 52.7902 28.1341 50.3894 26.3712 46.8261C24.6008 43.2474 23.4854 40.6778 22.6431 38.1891C21.8151 35.7424 21.2912 33.4725 20.8171 30.7094C20.2724 27.5346 20.3636 24.6912 21.1768 22.1766C21.9933 19.6519 23.5279 17.4699 25.8369 15.5286C28.5221 13.2711 31.5004 11.8648 35.0714 11.1034C38.146 10.4479 42.0531 10.5561 45.4685 11.3823C47.8664 11.9624 50.2104 13.026 52.2079 14.4013C54.2189 15.786 55.8951 17.497 57.0238 19.4094C59.1282 22.9752 59.5515 26.3148 58.5859 31.4381C58.1052 33.9888 57.4706 36.3025 56.3992 39.0171C55.2319 41.9745 53.9015 44.6072 51.54 49.2121C50.2664 51.6955 49.4073 53.5986 48.779 55.34C48.1525 57.0765 47.7505 58.667 47.3982 60.581C46.7994 63.8344 46.7205 67.4244 47.1663 71.3128C47.6103 75.186 48.5807 79.3813 50.0685 83.647C50.4557 84.7571 51.1239 86.4009 51.8159 87.9612C52.5031 89.5106 53.1806 90.9037 53.5645 91.5568C53.7177 91.8175 54.0239 92.3361 54.0239 92.3361C49.2669 92.3361 39.7557 92.3361 39.7557 92.3361C34.9987 92.3361 25.4875 92.3361 25.4875 92.3361C25.7377 91.8747 25.9865 91.4132 26.2357 90.9471Z" fill="#F6DC32"/>
<path d="M25.6598 92.2636C25.6598 92.2226 26.0181 91.5056 26.4539 90.6586C27.2214 89.1668 28.1937 86.9568 29.2041 84.281C29.5012 83.4941 29.9908 81.8304 30.4695 80.0098C30.9438 78.2056 31.3896 76.3152 31.582 75.2541C32.3177 71.1945 32.4787 67.3667 32.083 63.7096C31.6854 60.0342 30.7343 56.5728 29.2605 53.134C28.7943 52.0464 27.726 49.4341 26.3854 46.7008C24.8462 43.5627 23.8587 41.5627 23.0775 39.6377C22.315 37.7588 21.8053 36.0736 21.3436 33.8001C21.1156 32.6776 21.0302 31.6666 21.0857 31.6106C21.1414 31.5544 21.1867 31.5962 21.1865 31.7035C21.1852 32.2288 22.4262 34.4709 23.2635 35.387C24.3178 36.5404 25.9347 37.7826 26.2115 37.7115C26.3032 37.688 26.6386 37.3887 26.9572 37.0506C27.8846 36.0668 28.6205 35.6537 29.9947 35.3553C32.6839 34.7715 34.6158 36.0659 34.3885 38.1071C34.3483 38.4686 34.3295 38.7641 34.3465 38.7614C34.4697 38.7418 35.4226 37.1786 36.2004 35.7827C38.66 31.3688 42.0235 28.3799 46.5539 26.1236C47.8851 25.4606 49.5814 24.7294 51.2537 24.0423C52.858 23.3832 54.654 22.6764 55.8495 22.2703C58.2472 21.4559 58.1046 21.3528 58.6147 23.1934C59.1849 25.2507 59.1821 27.931 58.6008 31.1244C58.167 33.5075 57.5724 35.7364 56.6391 38.2189C55.6701 40.7963 54.4613 43.3492 52.6146 46.945C51.0924 49.909 50.2352 51.6721 49.6396 53.0289C49.0583 54.3533 48.7401 55.2653 48.363 56.4842C47.1327 60.4614 46.9055 62.1504 46.9203 66.7222C46.928 69.1006 47.0381 71.3866 47.1875 72.2734C47.8128 75.9849 48.419 78.5954 49.6076 82.4667C49.8645 83.3037 50.5306 85.0117 51.2556 86.7152C51.985 88.4294 52.7328 90.0437 53.1798 90.8863C53.5568 91.5968 54.0168 92.2253 54.0168 92.2653C54.0167 92.3053 47.4852 92.3381 39.7407 92.3381C31.9962 92.3381 25.6598 92.3046 25.6598 92.2636Z" fill="#F5C712"/>
<path d="M27.9565 87.4418C27.9563 87.4118 28.092 87.0275 28.2577 86.5838C28.358 86.3149 28.5584 85.7738 28.5584 85.7738C30.6197 85.7225 32.9884 85.6676 35.5188 85.6354C37.8413 85.6058 39.7001 85.6057 39.7001 85.6057C41.8277 85.6031 44.0792 85.6198 46.6703 85.6654C48.993 85.7063 50.8499 85.7557 50.8499 85.7557C50.9364 85.9742 51.1093 86.4088 51.1093 86.4088C51.2548 86.7739 51.4063 87.1476 51.4586 87.2726C51.5299 87.4431 49.1096 87.3847 39.75 87.3906C33.2597 87.3946 27.9567 87.4719 27.9565 87.4418ZM30.2094 81.0713C30.2089 81.0294 30.4183 80.2354 30.6741 79.2939C31.3112 76.9494 31.9627 73.2076 32.2153 70.504C32.4079 68.4434 32.3036 64.0514 32.0164 61.9081C31.8289 60.5088 32.4326 62.8513 33.1019 66.2512C33.5832 68.6962 33.9258 71.4983 34.0798 73.8665C34.2339 76.2356 34.1975 78.142 33.9259 78.8508C33.8791 78.973 34.0765 79.0274 35.0602 79.0236C36.044 79.0198 37.8151 78.9401 40.9171 78.9637C44.8246 78.9935 48.0177 79.1806 48.0175 79.1195C48.0174 79.0585 47.5817 78.5333 47.0483 77.9464C45.2105 75.924 43.4826 72.9659 41.8995 69.2927C40.3305 65.6523 38.9199 61.3392 37.8118 56.8789C37.3089 54.8544 37.2516 54.3193 37.2371 51.0541C37.2237 48.0363 37.2905 47.2614 37.6822 45.6514C38.4824 42.3618 40.0735 39.056 42.2667 36.1362C44.4784 33.1919 47.1767 30.7861 50.2836 28.6134C50.8626 28.2086 51.3009 27.8387 51.2589 27.8002C51.2169 27.7617 50.6478 27.8936 49.9931 28.0905C48.2937 28.6016 46.2429 29.4665 44.038 30.7156C41.8254 31.969 39.2369 33.7312 36.4434 36.3026C35.9816 36.7276 35.6048 37.0267 35.6056 36.9509C35.6069 36.8082 36.0032 36.0638 36.5217 35.2141C37.0504 34.3478 37.6708 33.4276 38.169 32.7901C39.7091 30.8197 41.3982 29.261 43.4719 27.8968C45.6014 26.4959 47.9685 25.3956 51.1408 24.079C52.3661 23.5705 54.9178 22.5866 55.8491 22.2703C58.2467 21.4559 58.1041 21.3528 58.6142 23.1934C59.1844 25.2507 59.1816 27.931 58.6003 31.1244C58.1665 33.5075 57.5719 35.7364 56.6386 38.2189C55.6696 40.7963 54.4608 43.3492 52.6141 46.945C51.0919 49.909 50.2347 51.6721 49.6392 53.0289C49.0578 54.3533 48.7396 55.2653 48.3625 56.4842C47.1458 60.4174 46.9086 62.1594 46.9174 66.6303C46.9221 69.0335 47.031 71.2434 47.1954 72.2743C47.5879 74.7363 48.3388 78.1981 48.794 79.6453C49.008 80.3256 49.1828 80.9282 49.1829 80.9916C49.183 81.0549 44.9136 80.8184 39.6903 80.8331C37.0332 80.8407 34.7512 80.9141 32.9892 80.9803C31.2722 81.0449 30.2096 81.0923 30.2094 81.0713ZM31.7363 60.7167C31.7341 60.4733 31.7772 60.3646 31.8321 60.4753C31.887 60.586 31.8889 60.7855 31.8362 60.9184C31.7835 61.0513 31.7385 60.9604 31.7363 60.7167ZM28.0282 43.8081C25.5851 44.0158 24.1181 41.8705 25.1916 39.6108C25.7055 38.529 25.9537 38.4259 25.7326 39.3272C25.4662 40.4132 25.8964 41.3508 26.725 41.9028C27.5586 42.4582 28.7878 42.6243 30.1413 42.2627C30.8193 42.0815 32.3459 41.2292 32.9117 40.7208C33.2816 40.3885 33.2728 40.4058 32.9625 40.9415C32.6579 41.4673 31.8183 42.2427 30.9687 42.8078C30.4115 43.1785 28.7481 43.7469 28.0282 43.8081Z" fill="#DDC327"/>
<path d="M28.0551 87.1131C28.1267 86.9039 28.2595 86.5499 28.3458 86.3383C28.3987 86.2085 28.5044 85.9482 28.5044 85.9482C30.5671 85.8992 32.9387 85.8466 35.4707 85.8155C37.795 85.787 39.6552 85.7866 39.6552 85.7866C41.7842 85.7839 44.038 85.7996 46.6309 85.8429C48.9554 85.8817 50.8138 85.9288 50.8138 85.9288C50.9172 86.163 51.1239 86.6286 51.1239 86.6286C51.2943 87.0119 51.4337 87.3596 51.4337 87.4047C51.4337 87.4497 46.1436 87.3867 39.6756 87.3915C35.7548 87.3945 27.9229 87.498 27.9229 87.498C27.9229 87.498 28.0551 87.113 28.0551 87.1131ZM30.2837 80.6533C30.6003 79.8784 30.9369 78.1803 31.2351 76.2145C31.5322 74.2568 31.7891 72.0471 31.9426 70.3415C32.1228 68.3398 32.2687 63.6135 31.9962 61.8236C31.778 60.3906 32.4828 63.2211 33.0787 66.2555C33.5874 68.8462 33.9333 71.7381 34.0712 74.1262C34.2091 76.5164 34.1376 78.3755 33.8176 78.9756C33.7262 79.1469 33.6884 79.7396 34.5414 80.2607C35.4169 80.7956 37.1239 81.2182 40.6402 81.2313C42.6246 81.2386 44.5863 80.8227 45.9872 80.3901C47.3981 79.9545 48.2781 79.4894 48.1472 79.3375C48.1175 79.3031 47.6594 78.7093 47.0622 78.0359C45.1523 75.8823 43.4125 72.9182 41.8383 69.2719C40.2754 65.6519 38.8923 61.3906 37.775 56.8822C37.2734 54.8583 37.2163 54.3232 37.2018 51.0581C37.1884 48.0405 37.2551 47.2655 37.6456 45.6551C38.4614 42.2911 40.0518 38.9803 42.2914 36.0362C44.5657 33.0466 47.3326 30.6368 50.671 28.2639C51.1008 27.9584 51.4468 27.8076 51.446 27.9317C51.4452 28.0551 51.3085 28.9442 51.142 29.9026C50.7448 32.1895 50.6882 35.1435 51.0315 36.1855C51.3372 37.1135 51.9654 37.7075 52.5554 37.6074C53.6424 37.4231 54.9859 36.259 56.6816 33.7797C58.3741 31.3048 58.4329 31.1831 58.3077 32.0274C58.0068 34.0571 57.5017 36.24 56.4661 38.9933C55.3444 41.9754 53.9381 44.8344 51.3918 49.5906C49.7552 52.6475 48.7117 55.2006 48.0484 57.6907C47.3871 60.1738 47.1099 62.5746 47.0099 65.4037C46.8968 68.6061 47.1233 71.3646 47.7773 74.8783C48.1333 76.7914 48.7735 79.8309 49.1011 80.6263C49.1733 80.8015 48.9539 80.8411 47.1054 80.7899C46.2392 80.766 42.9627 80.6371 39.6481 80.6477C35.1567 80.6621 32.7866 80.8233 31.5534 80.8483C30.3201 80.8734 30.2218 80.8047 30.2837 80.6533ZM31.7006 60.6215C31.708 60.4135 31.7535 60.362 31.8165 60.4905C31.8735 60.6069 31.868 60.7613 31.8043 60.8333C31.7406 60.9053 31.6939 60.8099 31.7006 60.6215ZM28.0192 43.8117C25.5828 44.0175 24.1202 41.8707 25.1906 39.6121C25.7031 38.5306 25.9506 38.4277 25.7301 39.3289C25.4644 40.4147 25.8934 41.3526 26.7196 41.9053C27.5509 42.4614 28.7767 42.6285 30.1262 42.2676C30.8025 42.0867 32.3243 41.235 32.8888 40.7264C33.2576 40.3941 33.2489 40.4114 32.9394 40.9471C32.6356 41.473 31.7985 42.2483 30.9512 42.8132C30.3954 43.1838 28.7372 43.751 28.0192 43.8117Z" fill="#E1B50B"/>
<path d="M28.0818 86.9977C28.2578 86.5518 28.2703 86.5491 28.3579 86.335C28.5388 85.8382 28.8995 84.8334 28.8995 84.8334C30.9135 84.7955 33.1998 84.7595 35.6711 84.7533C37.931 84.7475 39.7396 84.7711 39.7396 84.7711C41.7697 84.724 43.9447 84.6952 46.4191 84.6952C48.6451 84.6952 50.4245 84.7174 50.4245 84.7174C50.6831 85.3607 51.1994 86.6269 51.1994 86.6269C51.3583 87.0148 51.5101 87.3577 51.5101 87.4027C51.5101 87.4477 46.2053 87.384 39.7192 87.3884C35.7711 87.3911 27.8848 87.4954 27.8848 87.4954C27.9505 87.33 28.0162 87.1641 28.0818 86.9977ZM29.9767 81.6403C30.044 81.4706 30.445 80.2052 30.5102 79.9477C30.5584 79.6782 30.6546 79.1376 30.6546 79.1376C32.3506 79.0031 34.2837 78.8692 36.3699 78.7849C38.2792 78.7077 39.8082 78.6983 39.8082 78.6983C41.4704 78.6578 43.2758 78.6521 45.3032 78.7039C47.1342 78.7506 48.5969 78.83 48.5969 78.83C48.6912 79.1854 48.8795 79.8922 48.8795 79.8922C48.9467 80.1443 49.2623 81.2224 49.3298 81.3879C49.3836 81.5199 49.1242 81.5779 47.7717 81.5607C46.4193 81.5434 43.9724 81.4216 39.651 81.4341C35.7548 81.4454 32.4602 81.6552 31.5355 81.7052C30.1847 81.7781 29.9248 81.7714 29.9767 81.6403Z" fill="#006836"/>
<path d="M464.149 15.5098H459.412V12.1299H464.149V15.5098ZM113.091 0.257812C116.036 0.257812 117.95 0.931952 118.834 2.2793C119.717 3.62662 120.159 5.4859 120.159 7.85645C120.159 10.2195 119.717 12.0746 118.834 13.4219C117.95 14.7619 116.036 15.4316 113.091 15.4316C110.153 15.4316 108.243 14.7618 107.359 13.4219C106.476 12.0746 106.034 10.2195 106.034 7.85645C106.034 5.47098 106.472 3.60756 107.349 2.26758C108.232 0.92782 110.146 0.257867 113.091 0.257812ZM191.507 0.257812C194.452 0.257812 196.366 0.931952 197.25 2.2793C198.133 3.62662 198.575 5.4859 198.575 7.85645C198.575 10.2195 198.133 12.0746 197.25 13.4219C196.366 14.7619 194.452 15.4316 191.507 15.4316C188.569 15.4316 186.659 14.7618 185.775 13.4219C184.892 12.0746 184.45 10.2195 184.45 7.85645C184.45 5.47098 184.889 3.60756 185.765 2.26758C186.648 0.927819 188.562 0.257867 191.507 0.257812ZM266.924 0.257812C269.869 0.257812 271.783 0.931952 272.667 2.2793C273.55 3.62662 273.992 5.48591 273.992 7.85645C273.992 10.2195 273.55 12.0746 272.667 13.4219C271.783 14.7619 269.869 15.4316 266.924 15.4316C263.986 15.4316 262.076 14.7618 261.192 13.4219C260.309 12.0746 259.867 10.2195 259.867 7.85645C259.867 5.47098 260.305 3.60756 261.182 2.26758C262.065 0.92782 263.979 0.257866 266.924 0.257812ZM358.323 0.257812C361.268 0.257812 363.183 0.931952 364.066 2.2793C364.95 3.62662 365.392 5.4859 365.392 7.85645C365.392 10.2195 364.95 12.0746 364.066 13.4219C363.183 14.7619 361.268 15.4316 358.323 15.4316C355.386 15.4316 353.475 14.7618 352.592 13.4219C351.708 12.0746 351.267 10.2195 351.267 7.85645C351.267 5.47098 351.705 3.60756 352.581 2.26758C353.465 0.927813 355.379 0.257868 358.323 0.257812ZM97.7939 0.257812C100.783 0.257827 102.66 0.916753 103.426 2.23438C104.191 3.55217 104.575 4.99539 104.575 6.56348H99.6826C99.6826 5.13548 99.5134 4.27743 99.1748 3.99023C98.8435 3.69573 98.3752 3.54883 97.7715 3.54883C97.1605 3.54888 96.6597 3.71801 96.2695 4.05664C95.8867 4.39534 95.6953 5.64715 95.6953 7.81152C95.6953 9.99037 95.8868 11.2533 96.2695 11.5996C96.6523 11.9382 97.1532 12.1074 97.7715 12.1074C98.3752 12.1074 98.8435 11.9605 99.1748 11.666C99.5133 11.3713 99.6826 10.5209 99.6826 9.11523H104.575C104.575 10.6244 104.188 12.0488 103.415 13.3887C102.649 14.7287 100.779 15.3984 97.8047 15.3984C94.8527 15.3984 92.9499 14.7105 92.0957 13.334C91.249 11.9572 90.8252 10.116 90.8252 7.81152C90.8252 5.49981 91.249 3.6628 92.0957 2.30078C92.9499 0.938917 94.8492 0.257812 97.7939 0.257812ZM420.632 0.257812C423.621 0.25783 425.498 0.916752 426.264 2.23438C427.029 3.55217 427.413 4.99539 427.413 6.56348H422.521C422.52 5.13549 422.351 4.27743 422.013 3.99023C421.681 3.69573 421.213 3.54883 420.609 3.54883C419.998 3.54888 419.498 3.71801 419.107 4.05664C418.725 4.39532 418.533 5.64712 418.533 7.81152C418.533 9.99039 418.725 11.2533 419.107 11.5996C419.49 11.9382 419.991 12.1074 420.609 12.1074C421.213 12.1074 421.681 11.9605 422.013 11.666C422.351 11.3713 422.52 10.5209 422.521 9.11523H427.413C427.413 10.6244 427.026 12.0488 426.253 13.3887C425.487 14.7287 423.617 15.3984 420.643 15.3984C417.691 15.3984 415.788 14.7105 414.934 13.334C414.087 11.9572 413.663 10.116 413.663 7.81152C413.663 5.49981 414.087 3.6628 414.934 2.30078C415.788 0.938923 417.687 0.257812 420.632 0.257812ZM126.579 9.97656C126.579 10.7126 126.726 11.2502 127.021 11.5889C127.322 11.9275 127.845 12.0967 128.589 12.0967C129.332 12.0967 129.852 11.9309 130.146 11.5996C130.441 11.2609 130.588 10.7199 130.588 9.97656V0.401367H135.425V10.5068C135.425 12.2589 134.869 13.5108 133.758 14.2617C132.653 15.0127 130.93 15.3877 128.589 15.3877C126.24 15.3877 124.514 15.0127 123.409 14.2617C122.305 13.5108 121.753 12.2589 121.753 10.5068V0.401367H126.579V9.97656ZM433.941 9.97656C433.941 10.7126 434.088 11.2502 434.383 11.5889C434.685 11.9275 435.208 12.0967 435.951 12.0967C436.695 12.0967 437.214 11.9309 437.509 11.5996C437.803 11.2609 437.95 10.7199 437.95 9.97656V0.401367H442.787V10.5068C442.787 12.2589 442.232 13.5108 441.12 14.2617C440.016 15.0127 438.292 15.3877 435.951 15.3877C433.603 15.3877 431.876 15.0127 430.771 14.2617C429.667 13.5108 429.115 12.2589 429.115 10.5068V0.401367H433.941V9.97656ZM148.447 11.666H148.48L148.536 0.401367H153.34V15.3105H145.764L142.219 3.81348H142.152V15.3105H137.359V0.401367H144.979L148.447 11.666ZM167.825 3.69238H164.037V15.3105H159.211V3.69238H155.412V0.401367H167.825V3.69238ZM177.844 0.401367C179.993 0.401402 181.403 0.964536 182.073 2.09082C182.751 3.2099 183.09 5.12804 183.09 7.84473C183.09 10.5615 182.751 12.4873 182.073 13.6211C181.396 14.7474 179.986 15.3105 177.844 15.3105H169.627V0.401367H177.844ZM205.341 11.8096H205.386L206.986 0.401367H213.094L214.706 11.8096H214.739L215.811 0.401367H220.99L218.693 15.3105H211.404L210.057 3.71484H210.023L208.677 15.3105H201.376L199.179 0.401367H204.336L205.341 11.8096ZM233.636 11.666H233.669L233.725 0.401367H238.528V15.3105H230.952L227.407 3.81348H227.341V15.3105H222.548V0.401367H230.168L233.636 11.666ZM258.589 3.69238H254.801V15.3105H249.975V3.69238H246.176V0.401367H258.589V3.69238ZM293.562 3.69238H289.774V15.3105H284.948V3.69238H281.149V0.401367H293.562V3.69238ZM300.202 6.35352H303.913V0.401367H308.739V15.3105H303.913V9.64551H300.202V15.3105H295.365V0.401367H300.202V6.35352ZM321.398 3.69238H315.611V6.23242H320.935V9.39062H315.611V12.0195H321.398V15.3105H310.774V0.401367H321.398V3.69238ZM334.647 11.8096H334.692L336.293 0.401367H342.4L344.013 11.8096H344.046L345.117 0.401367H350.297L348 15.3105H340.711L339.363 3.71484H339.33L337.983 15.3105H330.683L328.485 0.401367H333.643L334.647 11.8096ZM375.942 0.401367C377.746 0.401389 378.894 0.887541 379.388 1.85938C379.881 2.82385 380.128 3.91751 380.128 5.13965C380.128 6.33941 379.863 7.38471 379.333 8.27539C379.028 8.79072 378.497 9.15439 377.741 9.36914L380.471 15.3105H375.291L372.955 9.60059H371.856V15.3105H367.008V0.401367H375.942ZM386.738 12.042H391.631V15.3105H381.901V0.401367H386.738V12.042ZM401.582 0.401367C403.732 0.401404 405.141 0.964539 405.812 2.09082C406.489 3.2099 406.828 5.12804 406.828 7.84473C406.828 10.5615 406.489 12.4873 405.812 13.6211C405.134 14.7474 403.724 15.3105 401.582 15.3105H393.365V0.401367H401.582ZM453.292 0.401367C455.28 0.40143 456.516 0.96111 457.002 2.08008C457.495 3.19912 457.742 4.50214 457.742 5.98926C457.742 7.48384 457.495 8.79444 457.002 9.9209C456.509 11.0473 455.272 11.6113 453.292 11.6113H449.559V15.3105H444.722V0.401367H453.292ZM113.091 3.54883C112.392 3.54889 111.839 3.71808 111.435 4.05664C111.037 4.38796 110.838 5.65504 110.838 7.85645C110.838 10.006 111.037 11.258 111.435 11.6113C111.839 11.9645 112.392 12.1406 113.091 12.1406C113.79 12.1406 114.343 11.9647 114.748 11.6113C115.153 11.258 115.355 10.006 115.355 7.85645C115.355 5.65515 115.153 4.38803 114.748 4.05664C114.343 3.71796 113.79 3.54883 113.091 3.54883ZM191.507 3.54883C190.808 3.54889 190.255 3.71808 189.851 4.05664C189.453 4.38796 189.254 5.65504 189.254 7.85645C189.254 10.006 189.453 11.258 189.851 11.6113C190.255 11.9645 190.808 12.1406 191.507 12.1406C192.206 12.1406 192.759 11.9647 193.164 11.6113C193.569 11.258 193.771 10.006 193.771 7.85645C193.771 5.65514 193.569 4.38802 193.164 4.05664C192.759 3.71796 192.206 3.54883 191.507 3.54883ZM266.924 3.54883C266.225 3.54888 265.672 3.71808 265.268 4.05664C264.87 4.38796 264.671 5.65504 264.671 7.85645C264.671 10.006 264.87 11.258 265.268 11.6113C265.672 11.9645 266.225 12.1406 266.924 12.1406C267.623 12.1406 268.176 11.9647 268.581 11.6113C268.986 11.258 269.188 10.006 269.188 7.85645C269.188 5.65516 268.986 4.38804 268.581 4.05664C268.176 3.71796 267.623 3.54883 266.924 3.54883ZM358.323 3.54883C357.624 3.54889 357.072 3.71807 356.667 4.05664C356.269 4.38796 356.07 5.65504 356.07 7.85645C356.07 10.006 356.269 11.258 356.667 11.6113C357.072 11.9646 357.624 12.1406 358.323 12.1406C359.023 12.1406 359.576 11.9647 359.98 11.6113C360.385 11.258 360.588 10.006 360.588 7.85645C360.588 5.65513 360.385 4.38801 359.98 4.05664C359.576 3.71796 359.023 3.54883 358.323 3.54883ZM174.453 12.0195H176.475C177.115 12.0194 177.575 11.8537 177.854 11.5225C178.134 11.1911 178.274 9.96514 178.274 7.84473C178.274 5.73178 178.134 4.5134 177.854 4.18945C177.575 3.85824 177.115 3.69247 176.475 3.69238H174.453V12.0195ZM398.191 12.0195H400.212C400.852 12.0195 401.313 11.8538 401.593 11.5225C401.873 11.1911 402.013 9.96514 402.013 7.84473C402.013 5.73178 401.873 4.5134 401.593 4.18945C401.313 3.85815 400.852 3.69238 400.212 3.69238H398.191V12.0195ZM464.216 9.9873H459.577L459.18 0.401367H464.603L464.216 9.9873ZM449.559 8.31934H451.778C452.213 8.31934 452.515 8.16904 452.685 7.86719C452.861 7.56537 452.949 6.94316 452.949 6.00098C452.949 5.06598 452.857 4.44739 452.673 4.14551C452.496 3.84364 452.198 3.69238 451.778 3.69238H449.559V8.31934ZM371.856 6.66309H374.264C374.669 6.66307 374.937 6.54514 375.069 6.30957C375.209 6.06661 375.279 5.69499 375.279 5.19434C375.279 4.67898 375.209 4.2996 375.069 4.05664C374.929 3.81394 374.661 3.6924 374.264 3.69238H371.856V6.66309Z" fill="black"/>
<rect x="89.3457" y="22.1543" width="379.056" height="99.46" rx="10" fill="white" fill-opacity="0.5"/>
</svg>
