<svg width="328" height="105" viewBox="0 0 328 105" fill="none" xmlns="http://www.w3.org/2000/svg">
<path d="M66.1938 103.082H65.9072V104.894H66.1938V104.172H67.647V103.806H66.1938V103.082Z" fill="black"/>
<path d="M67.646 100.466H66.065C66.0154 100.466 65.9765 100.479 65.9487 100.506C65.9201 100.532 65.9062 100.57 65.9062 100.619V101.023L67.2833 101.662L65.9062 102.303V102.705C65.9062 102.753 65.9201 102.79 65.9487 102.819C65.9765 102.847 66.0154 102.861 66.065 102.861H67.646V102.505H66.1932L67.646 101.84V101.489L66.1932 100.821H67.646V100.466Z" fill="black"/>
<path d="M50.7372 54.1575H16.9126C7.57154 54.1575 0 61.7294 0 71.0697V87.9819C0 97.3226 7.57154 104.895 16.9126 104.895H50.7372C60.0779 104.895 67.6494 97.3226 67.6494 87.9819C67.6494 78.6416 60.0779 71.0697 50.7372 71.0697H67.6494C67.6494 61.7294 60.0779 54.1575 50.7372 54.1575ZM50.7372 0.522686H16.9126C7.57154 0.522686 0 8.0946 0 17.4349H16.9126C7.57154 17.4349 0 25.0064 0 34.3471V51.2597H67.6494V34.3471H50.7372C60.0779 34.3471 67.6494 26.7752 67.6494 17.4349C67.6494 8.0946 60.0779 0.522686 50.7372 0.522686Z" fill="black"/>
<path d="M19.9473 85.1428V95.0073H22.9951V91.4448H25.1888L25.969 89.2891H22.9951V87.2921H26.6889L27.4663 85.1428H19.9473Z" fill="white"/>
<path d="M28.3955 85.1428L28.3959 95.0073H31.4433V85.1428H28.3955Z" fill="white"/>
<path d="M33.54 85.1428V95.0073H36.5878V91.4448H38.7816L39.5618 89.2891H36.5878V87.2921H40.2817L41.0591 85.1428H33.54Z" fill="white"/>
<path d="M44.5927 87.6771L45.8106 91.7861H43.4149L44.5927 87.6771ZM43.0565 85.142L39.4893 95.0073H42.4898L42.8708 93.6818H46.315L46.7131 95.0073H49.791L46.225 85.142H43.0565Z" fill="white"/>
<path d="M22.5164 78.5753C23.7031 76.3559 24.7332 73.8306 25.5873 71.0591C26.4315 68.3196 27.0734 65.4292 27.4368 62.7893C27.8016 60.1389 27.7402 55.5084 27.3181 53.1476C26.9942 51.3355 26.5748 49.7358 25.8555 47.8207C25.1071 45.8283 24.1456 43.7679 22.6327 40.7098C21.1133 37.6385 20.156 35.4332 19.4332 33.2974C18.7225 31.1975 18.2729 29.2494 17.8661 26.8781C17.3985 24.1534 17.4769 21.7132 18.1748 19.5551C18.8755 17.3883 20.1925 15.5157 22.1742 13.8497C24.4787 11.9122 27.0347 10.7053 30.0994 10.0519C32.7381 9.48926 36.0912 9.58211 39.0224 10.2912C41.0803 10.7891 43.092 11.7018 44.8063 12.8822C46.5322 14.0705 47.9708 15.5389 48.9394 17.1802C50.7454 20.2404 51.1087 23.1065 50.28 27.5035C49.8675 29.6926 49.3229 31.6782 48.4033 34.0079C47.4016 36.546 46.2597 38.8054 44.2331 42.7575C43.1401 44.8888 42.4027 46.5221 41.8635 48.0166C41.3259 49.5069 40.9809 50.8719 40.6785 52.5145C40.1646 55.3067 40.0969 58.3877 40.4795 61.7247C40.8606 65.0489 41.6933 68.6494 42.9702 72.3103C43.3025 73.263 43.876 74.6737 44.4699 76.0128C45.0596 77.3425 45.6411 78.5381 45.9706 79.0986C46.102 79.3223 46.3649 79.7675 46.3649 79.7675C42.2823 79.7675 34.1196 79.7675 34.1196 79.7675C30.037 79.7675 21.8743 79.7675 21.8743 79.7675C22.089 79.3715 22.3025 78.9754 22.5164 78.5753Z" fill="#F6DC32"/>
<path d="M22.0226 79.7047C22.0226 79.6695 22.3302 79.0541 22.7042 78.3272C23.3628 77.0469 24.1973 75.1503 25.0644 72.8538C25.3194 72.1785 25.7396 70.7507 26.1504 69.1882C26.5575 67.6398 26.9401 66.0175 27.1052 65.1067C27.7366 61.6227 27.8747 58.3376 27.5352 55.199C27.1939 52.0447 26.3777 49.0741 25.1128 46.1228C24.7128 45.1894 23.7959 42.9475 22.6454 40.6018C21.3244 37.9086 20.4769 36.1921 19.8065 34.5401C19.152 32.9275 18.7147 31.4813 18.3184 29.5301C18.1227 28.5667 18.0494 27.6991 18.0971 27.651C18.1448 27.6028 18.1838 27.6387 18.1835 27.7307C18.1825 28.1815 19.2475 30.1058 19.9661 30.892C20.8709 31.8819 22.2586 32.948 22.4962 32.8869C22.5748 32.8667 22.8627 32.6099 23.1361 32.3198C23.932 31.4754 24.5636 31.1208 25.7429 30.8648C28.0508 30.3637 29.7089 31.4746 29.5138 33.2264C29.4793 33.5367 29.4631 33.7903 29.4778 33.788C29.5834 33.7711 30.4012 32.4296 31.0688 31.2316C33.1797 27.4435 36.0663 24.8784 39.9544 22.942C41.0968 22.373 42.5526 21.7454 43.9879 21.1558C45.3647 20.5901 46.9061 19.9835 47.9321 19.635C49.9898 18.9361 49.8674 18.8476 50.3052 20.4272C50.7945 22.1929 50.7921 24.4931 50.2932 27.2337C49.9209 29.279 49.4106 31.1919 48.6097 33.3224C47.7781 35.5344 46.7407 37.7253 45.1558 40.8113C43.8494 43.3551 43.1138 44.8682 42.6026 46.0326C42.1037 47.1693 41.8306 47.952 41.507 48.9981C40.4511 52.4113 40.2562 53.8609 40.2688 57.7845C40.2754 59.8257 40.3699 61.7876 40.4981 62.5486C41.0348 65.734 41.5551 67.9743 42.5751 71.2967C42.7956 72.0151 43.3673 73.4809 43.9894 74.943C44.6155 76.414 45.2572 77.7995 45.6409 78.5226C45.9644 79.1324 46.3592 79.6718 46.3592 79.7061C46.3591 79.7405 40.7537 79.7686 34.1072 79.7686C27.4607 79.7686 22.0226 79.7398 22.0226 79.7047Z" fill="#F5C712"/>
<path d="M23.9934 75.5665C23.9933 75.5407 24.1097 75.2109 24.2519 74.8302C24.338 74.5994 24.51 74.135 24.51 74.135C26.2791 74.0909 28.3119 74.0439 30.4836 74.0162C32.4768 73.9908 34.072 73.9907 34.072 73.9907C35.898 73.9885 37.8303 74.0028 40.054 74.042C42.0474 74.0771 43.641 74.1194 43.641 74.1194C43.7152 74.307 43.8637 74.68 43.8637 74.68C43.9885 74.9933 44.1185 75.314 44.1634 75.4213C44.2246 75.5676 42.1475 75.5175 34.1148 75.5225C28.5447 75.526 23.9936 75.5923 23.9934 75.5665ZM25.9269 70.0992C25.9265 70.0633 26.1062 69.3818 26.3257 68.5738C26.8725 66.5617 27.4316 63.3504 27.6485 61.0301C27.8137 59.2617 27.7242 55.4924 27.4777 53.6529C27.3168 52.452 27.8349 54.4624 28.4093 57.3803C28.8224 59.4786 29.1164 61.8834 29.2486 63.9159C29.3808 65.9491 29.3496 67.5852 29.1165 68.1935C29.0763 68.2984 29.2457 68.3451 30.09 68.3418C30.9343 68.3386 32.4542 68.2702 35.1165 68.2904C38.47 68.316 41.2103 68.4765 41.2102 68.4241C41.2101 68.3717 40.8362 67.921 40.3784 67.4173C38.8011 65.6817 37.3182 63.143 35.9596 59.9906C34.6131 56.8663 33.4024 53.1647 32.4514 49.3368C32.0198 47.5993 31.9707 47.1401 31.9582 44.3378C31.9467 41.7479 32.0041 41.0829 32.3402 39.7011C33.0269 36.8779 34.3924 34.0408 36.2747 31.535C38.1728 29.0081 40.4886 26.9434 43.155 25.0788C43.6519 24.7313 44.0281 24.4139 43.992 24.3809C43.956 24.3478 43.4675 24.4611 42.9057 24.63C41.4472 25.0687 39.6872 25.8109 37.7949 26.8829C35.896 27.9586 33.6745 29.471 31.277 31.6778C30.8807 32.0425 30.5574 32.2992 30.558 32.2342C30.5592 32.1117 30.8993 31.4728 31.3443 30.7436C31.798 30.0001 32.3304 29.2104 32.758 28.6633C34.0797 26.9723 35.5294 25.6345 37.3091 24.4638C39.1367 23.2615 41.1681 22.3172 43.8907 21.1872C44.9423 20.7508 47.1322 19.9065 47.9314 19.635C49.9891 18.9361 49.8667 18.8476 50.3045 20.4272C50.7938 22.1929 50.7914 24.4931 50.2925 27.2337C49.9202 29.279 49.4099 31.1919 48.609 33.3224C47.7774 35.5344 46.74 37.7253 45.1551 40.8113C43.8487 43.3551 43.1131 44.8682 42.6019 46.0326C42.103 47.1692 41.8299 47.9519 41.5063 48.9981C40.4621 52.3736 40.2585 53.8687 40.266 57.7057C40.2701 59.7681 40.3636 61.6647 40.5046 62.5494C40.8415 64.6624 41.486 67.6334 41.8766 68.8754C42.0602 69.4592 42.2103 69.9764 42.2104 70.0308C42.2105 70.0851 38.5464 69.8821 34.0636 69.8948C31.7833 69.9013 29.8248 69.9643 28.3126 70.0211C26.8391 70.0765 25.9271 70.1172 25.9269 70.0992ZM27.2373 52.6305C27.2354 52.4216 27.2724 52.3283 27.3196 52.4233C27.3667 52.5183 27.3683 52.6895 27.323 52.8036C27.2778 52.9176 27.2392 52.8396 27.2373 52.6305ZM24.055 38.1192C21.9582 38.2974 20.6992 36.4563 21.6205 34.517C22.0615 33.5885 22.2746 33.5001 22.0849 34.2736C21.8562 35.2056 22.2254 36.0102 22.9365 36.484C23.652 36.9606 24.7069 37.1032 25.8685 36.7929C26.4503 36.6374 27.7605 35.9059 28.2461 35.4696C28.5635 35.1844 28.556 35.1993 28.2897 35.659C28.0282 36.1103 27.3077 36.7757 26.5785 37.2607C26.1003 37.5788 24.6728 38.0666 24.055 38.1192Z" fill="#DDC327"/>
<path d="M24.078 75.2846C24.1395 75.105 24.2535 74.8012 24.3275 74.6196C24.3729 74.5083 24.4637 74.2849 24.4637 74.2849C26.2339 74.2428 28.2693 74.1976 30.4422 74.171C32.437 74.1465 34.0335 74.1462 34.0335 74.1462C35.8607 74.1439 37.7949 74.1573 40.0202 74.1945C42.0151 74.2278 43.6101 74.2682 43.6101 74.2682C43.6988 74.4692 43.8761 74.8687 43.8761 74.8687C44.0224 75.1977 44.142 75.4962 44.1421 75.5348C44.1421 75.5735 39.602 75.5194 34.051 75.5236C30.686 75.5261 23.9646 75.6149 23.9646 75.6149C23.9646 75.6149 24.078 75.2845 24.078 75.2846ZM25.9906 69.7406C26.2624 69.0756 26.5512 67.6182 26.8072 65.9312C27.0621 64.2511 27.2827 62.3546 27.4144 60.8909C27.569 59.173 27.6942 55.1168 27.4604 53.5806C27.2731 52.3508 27.878 54.7799 28.3894 57.3842C28.826 59.6075 29.1229 62.0894 29.2412 64.139C29.3596 66.1903 29.2982 67.7858 29.0235 68.3008C28.9451 68.4478 28.9126 68.9565 29.6447 69.4037C30.3961 69.8628 31.861 70.2255 34.8788 70.2367C36.5819 70.243 38.2654 69.886 39.4678 69.5148C40.6786 69.1409 41.4339 68.7418 41.3215 68.6114C41.296 68.5819 40.9028 68.0723 40.3903 67.4943C38.7512 65.6461 37.258 63.1022 35.907 59.9729C34.5657 56.8661 33.3788 53.209 32.4199 49.3398C31.9894 47.6028 31.9404 47.1436 31.9279 44.3414C31.9164 41.7517 31.9736 41.0865 32.3088 39.7044C33.0089 36.8175 34.3738 33.976 36.2959 31.4494C38.2478 28.8836 40.6224 26.8155 43.4875 24.779C43.8563 24.5168 44.1533 24.3874 44.1526 24.4939C44.1519 24.5998 44.0346 25.3628 43.8917 26.1854C43.5508 28.148 43.5022 30.6832 43.7968 31.5775C44.0592 32.3739 44.5983 32.8837 45.1047 32.7978C46.0376 32.6396 47.1906 31.6405 48.6459 29.5127C50.0984 27.3888 50.1489 27.2843 50.0414 28.0089C49.7832 29.7508 49.3497 31.6242 48.4609 33.9872C47.4983 36.5465 46.2914 39.0002 44.1061 43.082C42.7015 45.7055 41.806 47.8966 41.2367 50.0337C40.6691 52.1647 40.4313 54.2251 40.3455 56.6532C40.2483 59.4015 40.4428 61.7689 41.004 64.7845C41.3096 66.4263 41.859 69.0348 42.1402 69.7175C42.2021 69.8679 42.0138 69.9018 40.4274 69.8579C39.684 69.8374 36.872 69.7268 34.0274 69.7359C30.1728 69.7482 28.1387 69.8865 27.0803 69.908C26.022 69.9295 25.9375 69.8706 25.9906 69.7406ZM27.2067 52.549C27.213 52.3704 27.2521 52.3262 27.3061 52.4365C27.3551 52.5364 27.3504 52.6689 27.2957 52.7307C27.241 52.7925 27.2009 52.7106 27.2067 52.549ZM24.0472 38.1224C21.9563 38.2991 20.701 36.4567 21.6196 34.5182C22.0595 33.5901 22.272 33.5018 22.0827 34.2752C21.8547 35.207 22.2228 36.012 22.9319 36.4863C23.6453 36.9636 24.6973 37.107 25.8555 36.7972C26.4359 36.642 27.7419 35.9111 28.2264 35.4746C28.5429 35.1894 28.5354 35.2042 28.2699 35.664C28.0091 36.1153 27.2907 36.7807 26.5636 37.2655C26.0865 37.5835 24.6634 38.0704 24.0472 38.1224Z" fill="#E1B50B"/>
<path d="M24.0998 75.1852C24.2508 74.8025 24.2615 74.8001 24.3367 74.6164C24.492 74.19 24.8015 73.3277 24.8015 73.3277C26.53 73.2952 28.4921 73.2643 30.6131 73.2589C32.5525 73.254 34.1047 73.2743 34.1047 73.2743C35.847 73.2339 37.7136 73.2091 39.8372 73.2091C41.7476 73.2091 43.2747 73.2282 43.2747 73.2282C43.4966 73.7803 43.9397 74.8669 43.9397 74.8669C44.0762 75.1998 44.2064 75.4941 44.2064 75.5327C44.2064 75.5714 39.6537 75.5167 34.0872 75.5205C30.6989 75.5228 23.9307 75.6123 23.9307 75.6123C23.9871 75.4703 24.0435 75.328 24.0998 75.1852ZM25.726 70.5874C25.7838 70.4417 26.1279 69.3557 26.1839 69.1347C26.2252 68.9035 26.3078 68.4395 26.3078 68.4395C27.7633 68.3241 29.4223 68.2091 31.2128 68.1368C32.8514 68.0705 34.1636 68.0624 34.1636 68.0624C35.5902 68.0277 37.1396 68.0228 38.8796 68.0672C40.4509 68.1074 41.7062 68.1755 41.7062 68.1755C41.7871 68.4805 41.9488 69.0871 41.9488 69.0871C42.0065 69.3034 42.2773 70.2287 42.3352 70.3707C42.3814 70.484 42.1588 70.5338 40.9981 70.519C39.8374 70.5041 37.7374 70.3996 34.0287 70.4104C30.6849 70.42 27.8574 70.6001 27.0638 70.643C25.9046 70.7056 25.6814 70.6998 25.726 70.5874Z" fill="#006836"/>
<path d="M326.645 47.085H320.405V42.6348H326.645V47.085ZM182.627 27C186.505 27.0001 189.026 27.887 190.189 29.6611C191.353 31.4354 191.935 33.8839 191.935 37.0059C191.935 40.1181 191.353 42.5616 190.189 44.3359C189.026 46.1005 186.505 46.9833 182.627 46.9834C178.758 46.9834 176.242 46.1006 175.078 44.3359C173.915 42.5616 173.333 40.1181 173.333 37.0059C173.333 33.8648 173.91 31.412 175.063 29.6475C176.227 27.8828 178.749 27 182.627 27ZM267.59 27C271.526 27 273.999 27.868 275.008 29.6035C276.016 31.339 276.521 33.2396 276.521 35.3047H270.077C270.077 33.4238 269.854 32.2942 269.408 31.916C268.972 31.5282 268.356 31.334 267.562 31.334C266.757 31.334 266.097 31.5569 265.583 32.0029C265.079 32.449 264.827 34.0977 264.827 36.9482C264.827 39.8179 265.079 41.4807 265.583 41.9365C266.087 42.3825 266.747 42.6055 267.562 42.6055C268.356 42.6054 268.972 42.4112 269.408 42.0234C269.854 41.6355 270.077 40.5158 270.077 38.6641H276.521C276.521 40.6517 276.011 42.5283 274.993 44.293C273.985 46.0575 271.521 46.9395 267.604 46.9395C263.717 46.9394 261.211 46.0328 260.086 44.2197C258.971 42.4067 258.413 39.9829 258.413 36.9482C258.413 33.9037 258.971 31.4842 260.086 29.6904C261.211 27.8969 263.712 27.0001 267.59 27ZM285.699 39.7988C285.699 40.7682 285.893 41.4759 286.281 41.9219C286.679 42.3678 287.367 42.5908 288.347 42.5908C289.326 42.5908 290.01 42.3728 290.397 41.9365C290.785 41.4906 290.978 40.7778 290.979 39.7988V27.1895H297.349V40.4961C297.349 42.8035 296.617 44.4524 295.153 45.4414C293.699 46.4304 291.43 46.9248 288.347 46.9248C285.254 46.9248 282.98 46.4304 281.525 45.4414C280.071 44.4524 279.344 42.8037 279.344 40.4961V27.1895H285.699V39.7988ZM94.4336 31.5234H89.4443V46.8232H83.0889V31.5234H78.0859V27.1895H94.4336V31.5234ZM103.758 35.0283H108.645V27.1895H115V46.8232H108.645V39.3623H103.758V46.8232H97.3877V27.1895H103.758V35.0283ZM132.254 31.5234H124.633V34.8682H131.643V39.0273H124.633V42.4893H132.254V46.8232H118.263V27.1895H132.254V31.5234ZM150.865 42.2129H150.924L153.032 27.1895H161.075L163.198 42.2129H163.242L164.653 27.1895H171.474L168.449 46.8232H158.85L157.075 31.5518H157.032L155.258 46.8232H145.645L142.75 27.1895H149.542L150.865 42.2129ZM206.41 27.1895C208.785 27.1895 210.299 27.8287 210.948 29.1084C211.598 30.3786 211.923 31.8192 211.923 33.4287C211.923 35.009 211.573 36.3855 210.875 37.5586C210.474 38.237 209.775 38.7152 208.78 38.998L212.373 46.8232H205.553L202.478 39.3037H201.029V46.8232H194.645V27.1895H206.41ZM221.21 42.5186H227.653V46.8232H214.84V27.1895H221.21V42.5186ZM241.339 27.1895C244.17 27.1895 246.027 27.9307 246.909 29.4141C247.801 30.8878 248.247 33.4136 248.247 36.9912C248.247 40.5689 247.801 43.1045 246.909 44.5977C246.017 46.0811 244.16 46.8232 241.339 46.8232H230.519V27.1895H241.339ZM311.764 27.1895C314.381 27.1895 316.01 27.9258 316.65 29.3994C317.3 30.8731 317.625 32.5894 317.625 34.5479C317.625 36.516 317.3 38.2422 316.65 39.7256C316.001 41.209 314.372 41.9511 311.764 41.9512H306.848V46.8232H300.478V27.1895H311.764ZM182.627 31.334C181.706 31.334 180.979 31.5571 180.445 32.0029C179.922 32.4392 179.659 34.107 179.659 37.0059C179.659 39.8371 179.922 41.4858 180.445 41.9512C180.979 42.4164 181.706 42.6494 182.627 42.6494C183.548 42.6493 184.274 42.4163 184.808 41.9512C185.341 41.4858 185.608 39.8371 185.608 37.0059C185.608 34.107 185.341 32.4392 184.808 32.0029C184.274 31.5572 183.548 31.3341 182.627 31.334ZM236.874 42.4893H239.536C240.379 42.4892 240.985 42.271 241.354 41.835C241.722 41.3986 241.906 39.7836 241.906 36.9912C241.906 34.2088 241.722 32.6044 241.354 32.1777C240.985 31.7415 240.379 31.5235 239.536 31.5234H236.874V42.4893ZM326.731 39.8135H320.623L320.1 27.1895H327.24L326.731 39.8135ZM306.848 37.6172H309.771C310.343 37.6171 310.741 37.4179 310.964 37.0205C311.197 36.6229 311.312 35.8034 311.312 34.5625C311.312 33.3312 311.192 32.5167 310.949 32.1191C310.717 31.7218 310.324 31.5235 309.771 31.5234H306.848V37.6172ZM201.029 35.4355H204.2C204.733 35.4355 205.087 35.2799 205.262 34.9697C205.446 34.6498 205.538 34.1601 205.538 33.501C205.538 32.8223 205.446 32.3229 205.262 32.0029C205.078 31.683 204.724 31.5235 204.2 31.5234H201.029V35.4355ZM107.555 0C111.433 6.80595e-05 113.954 0.886986 115.117 2.66113C116.281 4.43542 116.862 6.88392 116.862 10.0059C116.862 13.1181 116.281 15.5616 115.117 17.3359C113.954 19.1005 111.433 19.9833 107.555 19.9834C103.686 19.9834 101.169 19.1006 100.006 17.3359C98.8425 15.5616 98.2607 13.1181 98.2607 10.0059C98.2608 6.8648 98.8376 4.41202 99.9912 2.64746C101.155 0.882812 103.676 0 107.555 0ZM213.729 0C217.607 6.74778e-05 220.128 0.886988 221.292 2.66113C222.455 4.43542 223.037 6.88392 223.037 10.0059C223.037 13.1181 222.455 15.5616 221.292 17.3359C220.129 19.1005 217.608 19.9833 213.729 19.9834C209.861 19.9834 207.344 19.1006 206.181 17.3359C205.017 15.5616 204.436 13.1181 204.436 10.0059C204.436 6.8648 205.012 4.41202 206.166 2.64746C207.33 0.882812 209.851 0 213.729 0ZM315.957 0C319.835 6.98046e-05 322.356 0.886986 323.52 2.66113C324.683 4.43542 325.265 6.88392 325.265 10.0059C325.265 13.1181 324.683 15.5616 323.52 17.3359C322.356 19.1005 319.835 19.9833 315.957 19.9834C312.088 19.9834 309.572 19.1006 308.408 17.3359C307.245 15.5616 306.663 13.1181 306.663 10.0059C306.663 6.8648 307.24 4.41202 308.394 2.64746C309.557 0.882812 312.079 0 315.957 0ZM86.8262 0C90.7627 0 93.2358 0.867953 94.2441 2.60352C95.2524 4.33902 95.7568 6.23956 95.7568 8.30469H89.3135C89.3135 6.42382 89.0905 5.29424 88.6445 4.91602C88.2083 4.52824 87.5927 4.33405 86.7979 4.33398C85.9931 4.33398 85.3332 4.55692 84.8193 5.00293C84.3152 5.44898 84.0635 7.09771 84.0635 9.94824C84.0635 12.8179 84.3152 14.4807 84.8193 14.9365C85.3235 15.3825 85.9834 15.6055 86.7979 15.6055C87.5927 15.6054 88.2083 15.4112 88.6445 15.0234C89.0904 14.6355 89.3135 13.5158 89.3135 11.6641H95.7568C95.7568 13.6517 95.2476 15.5283 94.2295 17.293C93.221 19.0575 90.7578 19.9395 86.8408 19.9395C82.953 19.9394 80.447 19.0328 79.3223 17.2197C78.2073 15.4067 77.6494 12.9829 77.6494 9.94824C77.6494 6.90374 78.2072 4.48417 79.3223 2.69043C80.447 0.896931 82.9482 6.0129e-05 86.8262 0ZM125.898 12.7988C125.898 13.7682 126.093 14.4759 126.48 14.9219C126.878 15.3678 127.567 15.5908 128.546 15.5908C129.525 15.5908 130.209 15.3728 130.597 14.9365C130.984 14.4906 131.178 13.7778 131.178 12.7988V0.189453H137.548V13.4961C137.548 15.8035 136.816 17.4524 135.353 18.4414C133.898 19.4304 131.629 19.9248 128.546 19.9248C125.453 19.9248 123.179 19.4304 121.725 18.4414C120.27 17.4524 119.543 15.8037 119.543 13.4961V0.189453H125.898V12.7988ZM155.278 15.0234H155.322L155.396 0.189453H161.722V19.8232H151.744L147.076 4.68262H146.989V19.8232H140.677V0.189453H150.712L155.278 15.0234ZM181.379 4.52344H176.39V19.8232H170.034V4.52344H165.031V0.189453H181.379V4.52344ZM195.154 0.189453C197.985 0.189453 199.842 0.930722 200.725 2.41406C201.617 3.8878 202.062 6.41358 202.062 9.99121C202.062 13.5689 201.617 16.1045 200.725 17.5977C199.833 19.0811 197.976 19.8232 195.154 19.8232H184.334V0.189453H195.154ZM232.529 15.2129H232.588L234.696 0.189453H242.739L244.862 15.2129H244.906L246.317 0.189453H253.138L250.113 19.8232H240.514L238.739 4.55176H238.696L236.922 19.8232H227.309L224.414 0.189453H231.206L232.529 15.2129ZM270.373 15.0234H270.417L270.49 0.189453H276.816V19.8232H266.839L262.171 4.68262H262.084V19.8232H255.771V0.189453H265.807L270.373 15.0234ZM304.398 4.52344H299.409V19.8232H293.054V4.52344H288.051V0.189453H304.398V4.52344ZM107.555 4.33398C106.634 4.33398 105.906 4.55708 105.373 5.00293C104.849 5.43923 104.587 7.10697 104.587 10.0059C104.587 12.8371 104.849 14.4858 105.373 14.9512C105.906 15.4164 106.634 15.6494 107.555 15.6494C108.475 15.6493 109.202 15.4163 109.735 14.9512C110.269 14.4858 110.536 12.8371 110.536 10.0059C110.536 7.10697 110.269 5.43923 109.735 5.00293C109.202 4.55718 108.475 4.33406 107.555 4.33398ZM213.729 4.33398C212.809 4.33398 212.081 4.55708 211.548 5.00293C211.024 5.43923 210.762 7.10697 210.762 10.0059C210.762 12.8371 211.024 14.4858 211.548 14.9512C212.081 15.4164 212.809 15.6494 213.729 15.6494C214.65 15.6493 215.377 15.4163 215.91 14.9512C216.443 14.4858 216.711 12.8371 216.711 10.0059C216.711 7.10697 216.443 5.43923 215.91 5.00293C215.377 4.55719 214.65 4.33406 213.729 4.33398ZM315.957 4.33398C315.036 4.33398 314.309 4.55708 313.775 5.00293C313.252 5.43923 312.989 7.10697 312.989 10.0059C312.989 12.8371 313.252 14.4858 313.775 14.9512C314.309 15.4164 315.036 15.6494 315.957 15.6494C316.878 15.6493 317.605 15.4163 318.138 14.9512C318.671 14.4858 318.938 12.8371 318.938 10.0059C318.938 7.10697 318.671 5.43923 318.138 5.00293C317.605 4.55718 316.878 4.33406 315.957 4.33398ZM190.689 15.4893H193.352C194.195 15.4892 194.801 15.271 195.169 14.835C195.537 14.3986 195.722 12.7836 195.722 9.99121C195.722 7.20877 195.537 5.60441 195.169 5.17773C194.801 4.74149 194.195 4.52351 193.352 4.52344H190.689V15.4893Z" fill="black"/>
<rect x="81.0381" y="54.085" width="246.813" height="50.3311" rx="10" fill="white" fill-opacity="0.5"/>
</svg>
