<svg width="49" height="49" viewBox="0 0 49 49" fill="none" xmlns="http://www.w3.org/2000/svg">
  <path
    d="M23.9487 7.01562H9.92082C8.85784 7.01563 7.83839 7.43789 7.08675 8.18953C6.33511 8.94117 5.91284 9.96062 5.91284 11.0236V39.0794C5.91284 40.1424 6.33511 41.1618 7.08675 41.9135C7.83839 42.6651 8.85784 43.0874 9.92082 43.0874H37.9766C39.0396 43.0874 40.0591 42.6651 40.8107 41.9135C41.5623 41.1618 41.9846 40.1424 41.9846 39.0794V25.0515"
    stroke="white" stroke-width="4" stroke-linecap="round" stroke-linejoin="round" />
  <path
    d="M38.9786 4.01074C39.7759 3.21351 40.8572 2.76562 41.9846 2.76562C43.1121 2.76563 44.1934 3.21351 44.9906 4.01074C45.7878 4.80798 46.2357 5.88926 46.2357 7.01672C46.2357 8.14419 45.7878 9.22547 44.9906 10.0227L25.9527 29.0606L17.9368 31.0646L19.9408 23.0486L38.9786 4.01074Z"
    stroke="white" stroke-width="4" stroke-linecap="round" stroke-linejoin="round" />
</svg>