<svg width="455" height="702" fill="none" xmlns="http://www.w3.org/2000/svg">
  <g id="fill-2026">
    <path
      d="M340.931 360.403H113.645C50.8773 360.403 0 411.283 0 474.045V587.688C0 650.453 50.8773 701.333 113.645 701.333H340.931C403.696 701.333 454.573 650.453 454.573 587.688C454.573 524.925 403.696 474.045 340.931 474.045H454.573C454.573 411.283 403.696 360.403 340.931 360.403ZM340.931 2.14577e-05H113.645C50.8773 2.14577e-05 0 50.88 0 113.643H113.645C50.8773 113.643 0 164.52 0 227.285V340.931H454.573V227.285H340.931C403.696 227.285 454.573 176.405 454.573 113.643C454.573 50.88 403.696 2.14577e-05 340.931 2.14577e-05Z" />
    <path d="M444.808 689.158H442.882V701.331H444.808V696.483H454.573V694.025H444.808V689.158Z" />
    <path
      d="M454.573 671.598H443.949C443.616 671.598 443.355 671.686 443.168 671.865C442.976 672.043 442.883 672.299 442.883 672.63V675.345L452.136 679.638L442.883 683.942V686.643C442.883 686.966 442.976 687.217 443.168 687.409C443.355 687.595 443.616 687.691 443.949 687.691H454.573V685.302H444.811L454.573 680.83V678.475L444.811 673.987H454.573V671.598Z" />
  </g>
  <g id="fifa">
    <path
      d="M134.035 568.588V634.873H154.515V610.934H169.256L174.499 596.449H154.515V583.03H179.336L184.56 568.588H134.035Z" />
    <path d="M190.824 568.588L190.826 634.873H211.304V568.588H190.824Z" />
    <path
      d="M225.396 568.588V634.873H245.876V610.934H260.617L265.86 596.449H245.876V583.03H270.697L275.921 568.588H225.396Z" />
    <path
      d="M299.626 585.621L307.81 613.232H291.711L299.626 585.621ZM289.303 568.587L265.333 634.877H285.495L288.055 625.971H311.199L313.874 634.877H334.557L310.594 568.587H289.303Z" />
  </g>
  <g id="trophy">
    <path
      d="M151.294 524.485C159.268 509.571 166.19 492.603 171.93 473.979C177.602 455.571 181.915 436.149 184.357 418.41C186.809 400.6 186.396 369.485 183.56 353.622C181.383 341.445 178.565 330.696 173.732 317.828C168.703 304.439 162.242 290.594 152.076 270.045C141.866 249.407 135.433 234.589 130.576 220.237C125.801 206.127 122.78 193.037 120.046 177.102C116.904 158.794 117.43 142.396 122.12 127.895C126.829 113.335 135.679 100.752 148.995 89.5569C164.48 76.5383 181.656 68.4279 202.249 64.0373C219.98 60.2569 242.512 60.8809 262.208 65.6458C276.037 68.9911 289.554 75.1244 301.074 83.0559C312.671 91.0412 322.338 100.908 328.847 111.937C340.983 132.5 343.424 151.759 337.855 181.305C335.083 196.014 331.424 209.357 325.245 225.012C318.513 242.066 310.841 257.249 297.222 283.805C289.878 298.126 284.923 309.101 281.3 319.144C277.687 329.158 275.369 338.33 273.337 349.368C269.884 368.13 269.428 388.833 271.999 411.256C274.56 433.593 280.156 457.787 288.736 482.387C290.969 488.788 294.823 498.268 298.813 507.266C302.776 516.201 306.684 524.235 308.897 528.001C309.781 529.504 311.547 532.495 311.547 532.495C284.114 532.495 229.263 532.495 229.263 532.495C201.83 532.495 146.979 532.495 146.979 532.495C148.422 529.835 149.857 527.173 151.294 524.485Z"
      fill="#F6DC32" />
    <path
      d="M147.99 532.066C147.99 531.83 150.056 527.695 152.569 522.81C156.995 514.207 162.603 501.462 168.43 486.032C170.143 481.493 172.967 471.899 175.727 461.4C178.462 450.995 181.033 440.094 182.143 433.974C186.386 410.563 187.314 388.489 185.032 367.399C182.739 346.204 177.254 326.242 168.755 306.411C166.066 300.139 159.906 285.074 152.174 269.312C143.298 251.215 137.603 239.681 133.098 228.58C128.701 217.744 125.762 208.026 123.099 194.915C121.784 188.442 121.291 182.611 121.612 182.288C121.932 181.964 122.194 182.206 122.193 182.824C122.185 185.853 129.342 198.783 134.171 204.067C140.25 210.718 149.575 217.882 151.172 217.471C151.7 217.336 153.635 215.61 155.472 213.66C160.82 207.987 165.064 205.604 172.989 203.884C188.497 200.517 199.639 207.981 198.328 219.753C198.096 221.837 197.987 223.542 198.085 223.526C198.796 223.413 204.291 214.398 208.777 206.348C222.961 180.894 242.358 163.657 268.485 150.646C276.161 146.822 285.944 142.605 295.588 138.643C304.84 134.842 315.197 130.766 322.092 128.424C335.919 123.728 335.096 123.133 338.038 133.748C341.326 145.612 341.31 161.069 337.958 179.484C335.456 193.228 332.027 206.082 326.645 220.398C321.057 235.261 314.086 249.983 303.436 270.72C294.657 287.813 289.714 297.98 286.28 305.805C282.927 313.442 281.092 318.702 278.917 325.731C271.822 348.667 270.512 358.407 270.598 384.772C270.642 398.488 271.277 411.671 272.138 416.785C275.745 438.189 279.241 453.243 286.095 475.568C287.577 480.395 291.418 490.245 295.599 500.069C299.805 509.954 304.118 519.264 306.696 524.123C308.87 528.221 311.522 531.845 311.522 532.076C311.522 532.307 273.855 532.495 229.193 532.495C184.531 532.495 147.99 532.302 147.99 532.066Z"
      fill="#F5C712" />
    <path
      d="M161.238 504.26C161.237 504.086 162.019 501.87 162.974 499.312C163.553 497.761 164.709 494.64 164.709 494.64C176.596 494.344 190.256 494.028 204.849 493.842C218.243 493.671 228.962 493.671 228.962 493.671C241.232 493.656 254.216 493.752 269.158 494.015C282.553 494.251 293.262 494.536 293.262 494.536C293.761 495.796 294.758 498.303 294.758 498.303C295.597 500.408 296.471 502.563 296.772 503.284C297.183 504.267 283.226 503.93 229.25 503.964C191.821 503.987 161.239 504.433 161.238 504.26ZM174.23 467.522C174.227 467.28 175.434 462.701 176.91 457.272C180.584 443.751 184.341 422.172 185.798 406.581C186.909 394.698 186.307 369.37 184.651 357.01C183.569 348.94 187.051 362.449 190.91 382.056C193.686 396.156 195.662 412.315 196.55 425.972C197.438 439.635 197.229 450.629 195.662 454.716C195.392 455.421 196.531 455.734 202.204 455.713C207.877 455.691 218.091 455.231 235.98 455.368C258.515 455.539 276.929 456.618 276.928 456.266C276.927 455.914 274.414 452.885 271.339 449.501C260.74 437.838 250.775 420.779 241.645 399.596C232.597 378.603 224.462 353.729 218.072 328.007C215.172 316.332 214.842 313.247 214.758 294.416C214.681 277.013 215.066 272.545 217.325 263.26C221.939 244.289 231.115 225.225 243.763 208.387C256.518 191.407 272.079 177.533 289.996 165.004C293.335 162.669 295.863 160.536 295.621 160.314C295.378 160.092 292.096 160.853 288.321 161.989C278.521 164.936 266.694 169.923 253.978 177.127C241.218 184.355 226.291 194.518 210.181 209.347C207.518 211.798 205.345 213.522 205.349 213.085C205.357 212.262 207.642 207.969 210.632 203.069C213.681 198.073 217.259 192.767 220.132 189.09C229.014 177.728 238.755 168.739 250.714 160.871C262.994 152.793 276.645 146.447 294.939 138.855C302.006 135.922 316.721 130.248 322.092 128.424C335.919 123.728 335.096 123.133 338.038 133.748C341.326 145.612 341.31 161.069 337.958 179.484C335.456 193.228 332.027 206.082 326.645 220.398C321.057 235.261 314.086 249.983 303.436 270.72C294.657 287.813 289.714 297.98 286.28 305.805C282.927 313.442 281.092 318.702 278.917 325.731C271.901 348.414 270.532 358.459 270.583 384.243C270.611 398.101 271.239 410.846 272.187 416.79C274.45 430.989 278.781 450.953 281.406 459.298C282.64 463.221 283.648 466.697 283.649 467.062C283.649 467.427 259.028 466.063 228.906 466.148C213.582 466.192 200.422 466.615 190.261 466.997C180.359 467.369 174.231 467.643 174.23 467.522ZM183.035 350.14C183.022 348.736 183.271 348.109 183.588 348.747C183.905 349.385 183.915 350.536 183.611 351.303C183.307 352.069 183.048 351.545 183.035 350.14ZM161.651 252.63C147.562 253.827 139.102 241.456 145.292 228.425C148.256 222.186 149.688 221.592 148.413 226.789C146.876 233.052 149.357 238.459 154.136 241.642C158.943 244.845 166.032 245.803 173.837 243.718C177.747 242.673 186.551 237.758 189.814 234.826C191.947 232.91 191.896 233.009 190.107 236.098C188.35 239.131 183.508 243.602 178.608 246.861C175.395 248.999 165.802 252.277 161.651 252.63Z"
      fill="#DDC327" />
    <path
      d="M161.806 502.358C162.219 501.152 162.986 499.11 163.483 497.89C163.788 497.142 164.398 495.641 164.398 495.641C176.293 495.358 189.97 495.055 204.572 494.875C217.976 494.711 228.703 494.709 228.703 494.709C240.981 494.693 253.978 494.784 268.932 495.033C282.337 495.257 293.054 495.529 293.054 495.529C293.651 496.879 294.842 499.564 294.842 499.564C295.825 501.775 296.629 503.78 296.629 504.04C296.629 504.3 266.122 503.936 228.821 503.964C206.21 503.981 161.044 504.578 161.044 504.578C161.044 504.578 161.806 502.358 161.806 502.358ZM174.659 465.106C176.485 460.637 178.426 450.844 180.146 439.508C181.859 428.218 183.341 415.475 184.226 405.639C185.265 394.095 186.106 366.84 184.534 356.517C183.276 348.253 187.341 364.576 190.777 382.075C193.711 397.016 195.706 413.693 196.501 427.465C197.296 441.249 196.884 451.97 195.038 455.43C194.512 456.418 194.293 459.836 199.212 462.842C204.261 465.926 214.105 468.364 234.384 468.439C245.828 468.481 257.141 466.083 265.22 463.588C273.356 461.076 278.431 458.394 277.676 457.518C277.505 457.319 274.863 453.895 271.419 450.011C260.405 437.592 250.371 420.498 241.293 399.471C232.28 378.594 224.304 354.02 217.86 328.021C214.968 316.349 214.639 313.263 214.555 294.434C214.478 277.032 214.862 272.562 217.114 263.275C221.819 243.876 230.99 224.783 243.906 207.805C257.022 190.564 272.978 176.667 292.231 162.983C294.709 161.221 296.705 160.351 296.7 161.067C296.695 161.778 295.907 166.906 294.947 172.433C292.656 185.621 292.33 202.657 294.309 208.666C296.073 214.017 299.695 217.443 303.098 216.866C309.366 215.803 317.115 209.089 326.893 194.791C336.654 180.519 336.993 179.818 336.271 184.686C334.535 196.391 331.623 208.98 325.65 224.858C319.182 242.055 311.072 258.543 296.387 285.971C286.949 303.6 280.931 318.323 277.107 332.683C273.293 347.003 271.694 360.848 271.118 377.163C270.465 395.631 271.772 411.539 275.543 431.802C277.596 442.835 281.288 460.363 283.177 464.95C283.594 465.96 282.328 466.188 271.668 465.894C266.673 465.755 247.777 465.012 228.662 465.074C202.761 465.156 189.093 466.086 181.981 466.23C174.869 466.375 174.302 465.979 174.659 465.106ZM182.83 349.585C182.873 348.385 183.135 348.088 183.498 348.829C183.827 349.501 183.796 350.391 183.428 350.806C183.06 351.221 182.791 350.671 182.83 349.585ZM161.599 252.645C147.549 253.832 139.114 241.452 145.287 228.426C148.243 222.19 149.67 221.596 148.399 226.793C146.866 233.055 149.34 238.463 154.105 241.651C158.899 244.858 165.968 245.822 173.751 243.74C177.651 242.697 186.427 237.786 189.682 234.852C191.809 232.936 191.759 233.036 189.974 236.125C188.222 239.158 183.394 243.629 178.508 246.886C175.303 249.024 165.74 252.295 161.599 252.645Z"
      fill="#E1B50B" />
  </g>
  <path id="green-bands"
    d="M161.944 501.711C162.958 499.139 163.031 499.124 163.535 497.889C164.579 495.024 166.659 489.23 166.659 489.23C178.274 489.011 191.458 488.804 205.71 488.768C218.743 488.734 229.173 488.871 229.173 488.871C240.881 488.599 253.423 488.433 267.693 488.433C280.53 488.433 290.792 488.561 290.792 488.561C292.283 492.271 295.261 499.572 295.261 499.572C296.177 501.81 297.052 503.787 297.052 504.046C297.052 504.306 266.46 503.939 229.055 503.964C206.287 503.98 160.807 504.581 160.807 504.581C161.186 503.627 161.565 502.671 161.944 501.711ZM172.871 470.816C173.259 469.837 175.572 462.539 175.948 461.054C176.226 459.501 176.781 456.383 176.781 456.383C186.561 455.607 197.709 454.835 209.74 454.349C220.751 453.904 229.568 453.849 229.568 453.849C239.155 453.616 249.566 453.583 261.258 453.882C271.817 454.151 280.252 454.609 280.252 454.609C280.796 456.658 281.882 460.735 281.882 460.735C282.27 462.188 284.09 468.406 284.479 469.36C284.789 470.121 283.293 470.456 275.494 470.356C267.694 470.257 253.583 469.554 228.662 469.626C206.193 469.691 187.193 470.902 181.86 471.19C174.071 471.611 172.572 471.571 172.871 470.816Z"
    fill="#006836" />
  <style>
    #fill-2026 {
      fill: white;
    }

    #fifa {
      fill: black;
    }
  </style>
</svg>