<svg width="137" height="211" viewBox="0 0 137 211" fill="none" xmlns="http://www.w3.org/2000/svg">
<path d="M102.572 108.43H34.1913C15.3069 108.43 0 123.738 0 142.621V176.811C0 195.695 15.3069 211.002 34.1913 211.002H102.572C121.456 211.002 136.763 195.695 136.763 176.811C136.763 157.929 121.456 142.621 102.572 142.621H136.763C136.763 123.738 121.456 108.43 102.572 108.43ZM102.572 -3.82662e-05H34.1913C15.3069 -3.82662e-05 0 15.3077 0 34.1904H34.1913C15.3069 34.1904 0 49.4973 0 68.3808V102.572H136.763V68.3808H102.572C121.456 68.3808 136.763 53.0731 136.763 34.1904C136.763 15.3077 121.456 -3.82662e-05 102.572 -3.82662e-05Z" fill="white"/>
<path d="M133.82 207.339H133.241V211.001H133.82V209.543H136.758V208.803H133.82V207.339Z" fill="white"/>
<path d="M136.756 202.051H133.56C133.46 202.051 133.381 202.078 133.325 202.131C133.267 202.185 133.239 202.262 133.239 202.362V203.178L136.023 204.47L133.239 205.765V206.578C133.239 206.675 133.267 206.75 133.325 206.808C133.381 206.864 133.46 206.893 133.56 206.893H136.756V206.174H133.819L136.756 204.829V204.12L133.819 202.77H136.756V202.051Z" fill="white"/>
<path d="M40.3252 171.07V191.013H46.4867V183.811H50.9218L52.4991 179.452H46.4867V175.415H53.9544L55.5261 171.07H40.3252Z" fill="black"/>
<path d="M57.4053 171.07L57.4061 191.013H63.5668V171.07H57.4053Z" fill="black"/>
<path d="M67.8076 171.07V191.013H73.9692V183.811H78.4042L79.9815 179.452H73.9692V175.415H81.4368L83.0085 171.07H67.8076Z" fill="black"/>
<path d="M90.1514 176.194L92.6136 184.501H87.7702L90.1514 176.194ZM87.0457 171.069L79.834 191.013H85.9001L86.6702 188.333H93.6333L94.438 191.013H100.66L93.4511 171.069H87.0457Z" fill="black"/>
<path d="M45.5207 157.795C47.9198 153.308 50.0022 148.203 51.729 142.6C53.4357 137.061 54.7332 131.218 55.4679 125.881C56.2054 120.523 56.0813 111.162 55.2281 106.389C54.5732 102.726 53.7253 99.4916 52.2711 95.6201C50.7581 91.5921 48.8144 87.4267 45.7558 81.2443C42.6841 75.0353 40.7489 70.5769 39.2875 66.259C37.8509 62.0139 36.9419 58.0755 36.1194 53.2816C35.1742 47.7733 35.3325 42.84 36.7435 38.477C38.1601 34.0966 40.8226 30.3109 44.8288 26.9427C49.4877 23.026 54.6551 20.5859 60.8507 19.2649C66.1852 18.1276 72.9641 18.3153 78.8899 19.7488C83.0503 20.7553 87.1171 22.6006 90.5828 24.9869C94.072 27.3893 96.9803 30.3578 98.9385 33.676C102.59 39.8626 103.324 45.6568 101.649 54.546C100.815 58.9714 99.7137 62.9858 97.8548 67.6956C95.8296 72.8266 93.5212 77.3944 89.424 85.384C87.2144 89.6928 85.7237 92.9947 84.6337 96.0161C83.5467 99.0289 82.8492 101.788 82.238 105.109C81.199 110.754 81.0621 116.983 81.8356 123.729C82.606 130.449 84.2896 137.728 86.871 145.129C87.5427 147.055 88.7021 149.907 89.9027 152.614C91.095 155.303 92.2705 157.72 92.9366 158.853C93.2024 159.305 93.7337 160.205 93.7337 160.205C85.4802 160.205 68.9781 160.205 68.9781 160.205C60.7246 160.205 44.2226 160.205 44.2226 160.205C44.6567 159.404 45.0883 158.604 45.5207 157.795Z" fill="#F6DC32"/>
<path d="M44.5212 160.079C44.5212 160.008 45.1429 158.764 45.8989 157.294C47.2305 154.706 48.9176 150.872 50.6706 146.229C51.1861 144.864 52.0355 141.977 52.866 138.819C53.689 135.688 54.4625 132.408 54.7962 130.567C56.0728 123.524 56.352 116.883 55.6655 110.537C54.9756 104.161 53.3256 98.1551 50.7684 92.1887C49.9596 90.3017 48.1061 85.7694 45.7801 81.027C43.1096 75.5823 41.3962 72.1123 40.0408 68.7725C38.7178 65.5125 37.8336 62.5886 37.0325 58.6442C36.637 56.6965 36.4888 54.9424 36.5851 54.8452C36.6816 54.7477 36.7603 54.8203 36.7599 55.0064C36.7577 55.9178 38.9108 59.8079 40.3636 61.3974C42.1927 63.3986 44.9981 65.5538 45.4784 65.4304C45.6375 65.3896 46.2194 64.8703 46.7722 64.2838C48.3812 62.5768 49.658 61.86 52.0423 61.3424C56.708 60.3294 60.06 62.5752 59.6656 66.1168C59.5958 66.7439 59.5632 67.2568 59.5927 67.252C59.8064 67.218 61.4597 64.5058 62.8093 62.0839C67.0767 54.4257 72.9125 49.24 80.7728 45.3252C83.0824 44.175 86.0255 42.9063 88.927 41.7142C91.7104 40.5707 94.8266 39.3443 96.9008 38.6397C101.061 37.2268 100.813 37.0479 101.698 40.2413C102.688 43.8108 102.683 48.4611 101.674 54.0017C100.922 58.1364 99.8899 62.0036 98.2706 66.3108C96.5894 70.7826 94.4922 75.2119 91.2881 81.4507C88.647 86.5932 87.1599 89.6522 86.1265 92.0063C85.1179 94.3041 84.5657 95.8865 83.9115 98.0013C81.7769 104.902 81.3828 107.832 81.4085 115.764C81.4217 119.891 81.6128 123.857 81.872 125.396C82.957 131.835 84.0088 136.365 86.0709 143.081C86.5167 144.533 87.6723 147.497 88.9302 150.453C90.1958 153.427 91.4932 156.227 92.2688 157.689C92.9228 158.922 93.7209 160.013 93.7209 160.082C93.7208 160.152 82.3886 160.208 68.9517 160.208C55.5149 160.208 44.5211 160.15 44.5212 160.079Z" fill="#F5C712"/>
<path d="M48.5048 151.713C48.5045 151.661 48.7399 150.994 49.0273 150.225C49.2015 149.758 49.5491 148.819 49.5491 148.819C53.1255 148.73 57.2351 148.635 61.6256 148.579C65.6551 148.528 68.8801 148.527 68.8801 148.527C72.5715 148.523 76.478 148.552 80.9735 148.631C85.0034 148.702 88.2251 148.788 88.2251 148.788C88.3752 149.167 88.6753 149.921 88.6753 149.921C88.9277 150.554 89.1905 151.203 89.2812 151.42C89.405 151.715 85.2058 151.614 68.9667 151.624C57.7059 151.631 48.5052 151.765 48.5048 151.713ZM52.4136 140.66C52.4127 140.588 52.776 139.21 53.2199 137.576C54.3253 133.509 55.4555 127.017 55.8939 122.326C56.2281 118.751 56.0471 111.13 55.5488 107.412C55.2235 104.984 56.2708 109.048 57.4321 114.947C58.2672 119.189 58.8617 124.051 59.1288 128.16C59.3961 132.27 59.333 135.578 58.8617 136.808C58.7805 137.02 59.1231 137.114 60.8299 137.107C62.5367 137.101 65.6095 136.963 70.9916 137.004C77.7712 137.055 83.3112 137.38 83.311 137.274C83.3107 137.168 82.5548 136.257 81.6294 135.239C78.4407 131.73 75.4427 126.597 72.696 120.224C69.9739 113.908 67.5264 106.425 65.6039 98.6861C64.7313 95.1735 64.632 94.2452 64.6068 88.5799C64.5835 83.3441 64.6995 81.9997 65.379 79.2062C66.7673 73.4987 69.5279 67.7631 73.3331 62.6973C77.1705 57.5888 81.852 53.4147 87.2427 49.6451C88.2471 48.9427 89.0077 48.301 88.9348 48.2342C88.8619 48.1674 87.8744 48.3963 86.7386 48.7379C83.7902 49.6246 80.2319 51.1251 76.4064 53.2924C72.5675 55.4671 68.0764 58.5246 63.2296 62.9859C62.4285 63.7233 61.7747 64.2422 61.776 64.1108C61.7784 63.8631 62.4659 62.5716 63.3656 61.0973C64.2828 59.5943 65.3592 57.9978 66.2237 56.8917C68.8957 53.4731 71.8263 50.7687 75.4243 48.4018C79.119 45.9713 83.2258 44.0621 88.7299 41.7778C90.8558 40.8955 95.2831 39.1885 96.8988 38.6397C101.059 37.2268 100.811 37.0479 101.696 40.2413C102.686 43.8108 102.681 48.4611 101.672 54.0017C100.92 58.1364 99.8878 62.0036 98.2686 66.3108C96.5874 70.7826 94.4902 75.2119 91.2861 81.4507C88.645 86.5932 87.1579 89.6522 86.1245 92.0063C85.1158 94.3041 84.5637 95.8865 83.9095 98.0013C81.7985 104.826 81.3869 107.848 81.4022 115.605C81.4104 119.774 81.5994 123.609 81.8845 125.397C82.5656 129.669 83.8684 135.675 84.6582 138.186C85.0294 139.366 85.3328 140.412 85.333 140.522C85.3331 140.632 77.9257 140.221 68.8632 140.247C64.2531 140.26 60.2937 140.387 57.2367 140.502C54.2576 140.614 52.414 140.697 52.4136 140.66ZM55.0628 105.345C55.0589 104.922 55.1338 104.734 55.229 104.926C55.3243 105.118 55.3275 105.464 55.2361 105.695C55.1447 105.925 55.0667 105.768 55.0628 105.345ZM48.6292 76.0081C44.3904 76.3684 41.8451 72.6464 43.7076 68.7258C44.5992 66.8488 45.03 66.67 44.6463 68.2338C44.1841 70.118 44.9305 71.7446 46.3681 72.7024C47.8145 73.666 49.9472 73.9542 52.2955 73.3268C53.4718 73.0125 56.1204 71.5337 57.1022 70.6516C57.7439 70.0751 57.7287 70.1051 57.1903 71.0345C56.6617 71.9469 55.2051 73.2921 53.731 74.2726C52.7642 74.9157 49.8782 75.9019 48.6292 76.0081Z" fill="#DDC327"/>
<path d="M48.6758 151.142C48.8001 150.779 49.0305 150.165 49.1802 149.798C49.272 149.573 49.4555 149.121 49.4555 149.121C53.0342 149.036 57.149 148.945 61.542 148.891C65.5747 148.841 68.8022 148.841 68.8022 148.841C72.4961 148.836 76.4063 148.863 80.9051 148.938C84.9382 149.006 88.1626 149.087 88.1626 149.087C88.342 149.494 88.7005 150.302 88.7005 150.302C88.9962 150.967 89.2381 151.57 89.2381 151.648C89.2381 151.726 80.0597 151.617 68.8375 151.625C62.0349 151.631 48.4466 151.81 48.4466 151.81C48.4465 151.81 48.6758 151.142 48.6758 151.142ZM52.5425 139.934C53.0918 138.59 53.6758 135.644 54.1933 132.233C54.7086 128.837 55.1545 125.003 55.4208 122.043C55.7333 118.57 55.9865 110.37 55.5137 107.265C55.1352 104.778 56.358 109.689 57.3919 114.954C58.2746 119.449 58.8747 124.466 59.1138 128.61C59.3532 132.757 59.2291 135.982 58.6738 137.024C58.5153 137.321 58.4497 138.349 59.9296 139.253C61.4487 140.181 64.4103 140.915 70.5111 140.937C73.9542 140.95 77.3577 140.228 79.7884 139.478C82.2363 138.722 83.7631 137.915 83.5359 137.652C83.4843 137.592 82.6895 136.562 81.6534 135.393C78.3397 131.657 75.3211 126.514 72.5898 120.188C69.8782 113.907 67.4786 106.513 65.54 98.6912C64.6698 95.1797 64.5707 94.2513 64.5455 88.5864C64.5222 83.3507 64.6379 82.0061 65.3155 79.212C66.7309 73.3756 69.4902 67.6312 73.3761 62.5232C77.3221 57.3362 82.1226 53.1552 87.9148 49.0381C88.6604 48.5081 89.2608 48.2464 89.2594 48.4617C89.258 48.6758 89.0208 50.2184 88.732 51.8813C88.0428 55.849 87.9445 60.9743 88.5402 62.7823C89.0706 64.3923 90.1605 65.4229 91.1843 65.2493C93.0701 64.9294 95.4013 62.9097 98.3432 58.608C101.28 54.3142 101.382 54.103 101.165 55.5678C100.642 59.0893 99.7662 62.8767 97.9693 67.6537C96.0231 72.8278 93.5832 77.7882 89.1653 86.0402C86.3259 91.3439 84.5153 95.7737 83.3646 100.094C82.2171 104.402 81.7362 108.568 81.5627 113.476C81.3664 119.032 81.7595 123.819 82.8941 129.915C83.5119 133.234 84.6227 138.508 85.191 139.888C85.3163 140.192 84.9356 140.26 81.7284 140.172C80.2255 140.13 74.5407 139.906 68.7898 139.925C60.9972 139.95 56.8851 140.229 54.7454 140.273C52.6057 140.316 52.4351 140.197 52.5425 139.934ZM55.0009 105.179C55.0137 104.818 55.0926 104.729 55.2019 104.952C55.3009 105.154 55.2914 105.421 55.1808 105.546C55.0702 105.671 54.9892 105.506 55.0009 105.179ZM48.6135 76.0138C44.3864 76.3709 41.8487 72.6462 43.7058 68.7273C44.595 66.851 45.0246 66.6724 44.642 68.236C44.181 70.1199 44.9253 71.7471 46.3588 72.7061C47.8011 73.6709 49.9278 73.9609 52.2693 73.3347C53.4427 73.0209 56.0829 71.5432 57.0623 70.6607C57.7022 70.0842 57.6871 70.1142 57.1502 71.0436C56.6231 71.9561 55.1707 73.3013 53.7007 74.2813C52.7362 74.9243 49.8593 75.9085 48.6135 76.0138Z" fill="#E1B50B"/>
<path d="M48.7228 150.942C49.0281 150.168 49.0498 150.164 49.2017 149.792C49.5157 148.93 50.1414 147.187 50.1414 147.187C53.6357 147.121 57.6025 147.059 61.8903 147.048C65.8112 147.038 68.9492 147.079 68.9492 147.079C72.4714 146.997 76.245 146.947 80.5383 146.947C84.4003 146.947 87.4876 146.986 87.4876 146.986C87.9363 148.102 88.832 150.299 88.832 150.299C89.1078 150.972 89.3711 151.567 89.3711 151.645C89.3711 151.723 80.1672 151.612 68.9138 151.62C62.0637 151.625 48.3809 151.806 48.3809 151.806C48.4949 151.519 48.6089 151.231 48.7228 150.942ZM52.0104 141.647C52.1272 141.353 52.8228 139.157 52.936 138.71C53.0196 138.243 53.1866 137.305 53.1866 137.305C56.1291 137.071 59.4831 136.839 63.1027 136.693C66.4154 136.559 69.0681 136.542 69.0681 136.542C71.9522 136.472 75.0846 136.462 78.6022 136.552C81.7789 136.633 84.3167 136.771 84.3167 136.771C84.4803 137.388 84.807 138.614 84.807 138.614C84.9237 139.051 85.4713 140.922 85.5883 141.209C85.6816 141.438 85.2316 141.539 82.885 141.509C80.5385 141.479 76.2932 141.267 68.7955 141.289C62.0354 141.309 56.3193 141.673 54.7149 141.759C52.3714 141.886 51.9203 141.874 52.0104 141.647Z" fill="#006836"/>
</svg>
