<?xml version="1.0" encoding="UTF-8" standalone="no"?>
<!DOCTYPE svg PUBLIC "-//W3C//DTD SVG 1.1//EN" "http://www.w3.org/Graphics/SVG/1.1/DTD/svg11.dtd">
<svg width="100%" height="100%" viewBox="0 0 613 654" version="1.1" xmlns="http://www.w3.org/2000/svg" xmlns:xlink="http://www.w3.org/1999/xlink" xml:space="preserve" xmlns:serif="http://www.serif.com/" style="fill-rule:evenodd;clip-rule:evenodd;stroke-linejoin:round;stroke-miterlimit:2;">
    <g transform="matrix(1,0,0,1,-93.919441,-73.470001)">
        <path d="M203.16,512.54L199.55,516.15L209.49,526.09L207.2,528.38L197.26,518.44L193.65,522.05L191.79,520.19L201.3,510.68L203.16,512.54ZM218.62,510.08L213.47,498.51L216.76,495.22L228.56,507L226.41,509.15L217.19,499.93L217.13,499.99L222.83,512.73L221.23,514.33L208.49,508.64L208.43,508.69L217.65,517.91L215.5,520.06L203.71,508.26L207,505L218.62,510.08Z" style="fill-rule:nonzero;"/>
        <path d="M328.94,319.52L336.4,342.49L316.86,328.3L297.33,342.49L304.79,319.52L285.26,305.33L309.41,305.33L316.86,282.37L324.32,305.33L348.46,305.33L328.94,319.52Z" style="fill-rule:nonzero;"/>
        <path d="M216.54,319.52L236.07,305.33L211.93,305.33L204.46,282.37L197.01,305.33L172.86,305.33L192.39,319.52L184.93,342.49L204.46,328.3L223.99,342.49L216.54,319.52Z" style="fill-rule:nonzero;"/>
        <path d="M268.13,380.1L260.67,357.14L253.21,380.1L229.06,380.1L248.59,394.29L241.13,417.25L260.67,403.06L280.19,417.25L272.74,394.29L292.26,380.1L268.13,380.1Z" style="fill-rule:nonzero;"/>
        <path d="M195.07,229.61L172.92,179.18L172.22,179.18L172.22,246.49C172.222,246.524 172.223,246.559 172.223,246.593C172.223,247.504 171.474,248.253 170.563,248.253C170.529,248.253 170.494,248.252 170.46,248.25L150.6,248.25C150.569,248.252 150.538,248.253 150.507,248.253C149.591,248.253 148.837,247.499 148.837,246.583C148.837,246.552 148.838,246.521 148.84,246.49L148.84,130.49C148.838,130.459 148.837,130.428 148.837,130.397C148.837,129.486 149.587,128.737 150.497,128.737C150.532,128.737 150.566,128.738 150.6,128.74L171.52,128.74C172.74,128.615 173.898,129.339 174.32,130.49L204.55,198.68L205.26,198.68L235,130.49C235.427,129.333 236.594,128.609 237.82,128.74L258.38,128.74C258.414,128.738 258.449,128.737 258.483,128.737C259.388,128.737 260.133,129.482 260.133,130.387C260.133,130.421 260.132,130.456 260.13,130.49L260.13,246.49C260.132,246.524 260.133,246.558 260.133,246.593C260.133,247.503 259.384,248.253 258.473,248.253C258.442,248.253 258.411,248.252 258.38,248.25L238.47,248.25C238.439,248.252 238.408,248.253 238.377,248.253C237.466,248.253 236.717,247.503 236.717,246.593C236.717,246.558 236.718,246.524 236.72,246.49L236.72,179.18L236,179.18L213.85,229.61C213.374,231.033 211.999,231.973 210.5,231.9L198.4,231.9C196.907,231.967 195.541,231.028 195.07,229.61" style="fill-rule:nonzero;"/>
        <path d="M277.93,248.25L355.79,248.25C355.821,248.252 355.852,248.253 355.883,248.253C356.799,248.253 357.553,247.499 357.553,246.583C357.553,246.552 357.552,246.521 357.55,246.49L357.55,227C357.552,226.969 357.553,226.938 357.553,226.907C357.553,225.991 356.799,225.237 355.883,225.237C355.852,225.237 355.821,225.238 355.79,225.24L303.07,225.24C303.023,225.247 302.976,225.251 302.929,225.251C302.419,225.251 301.999,224.831 301.999,224.321C301.999,224.274 302.003,224.227 302.01,224.18L302.01,130.49C302.012,130.459 302.013,130.428 302.013,130.397C302.013,129.486 301.263,128.737 300.353,128.737C300.318,128.737 300.284,128.738 300.25,128.74L277.93,128.74C277.896,128.738 277.861,128.737 277.827,128.737C276.922,128.737 276.177,129.482 276.177,130.387C276.177,130.421 276.178,130.456 276.18,130.49L276.18,246.49C276.178,246.524 276.177,246.558 276.177,246.593C276.177,247.503 276.926,248.253 277.837,248.253C277.868,248.253 277.899,248.252 277.93,248.25" style="fill-rule:nonzero;"/>
        <path d="M422.39,176.36L416.07,175.48C402.36,173.55 397.44,169.16 397.44,162.31C397.44,154.74 402.88,149.31 413.44,149.31C423.28,149.31 432.06,152.47 441.21,158.45C441.496,158.638 441.83,158.738 442.172,158.738C442.778,158.738 443.341,158.424 443.66,157.91L454.39,141.91C455.26,140.68 455.09,139.98 454.04,139.28C444.04,131.54 429.25,126.8 413.44,126.8C387.6,126.8 371.08,141.39 371.08,163.36C371.08,184.45 384.61,195.87 408.87,199.21L415.2,200.08C429.43,202.02 433.65,206.42 433.65,213.45C433.65,221.88 426.65,227.68 414.14,227.68C401.49,227.68 390.77,221.68 382.86,215.38C382.529,215.053 382.081,214.869 381.616,214.869C381.071,214.869 380.555,215.12 380.22,215.55L366.87,230.84C366.113,231.717 366.188,233.055 367.04,233.84C376.35,242.84 394.45,250.19 413.09,250.19C444.02,250.19 460.02,234.19 460.02,212.58C460.02,190.97 447.02,179.71 422.4,176.37" style="fill-rule:nonzero;"/>
        <path d="M706.08,87.19L706.08,73.47L93.92,73.47L93.92,319.84C93.77,411.943 123.831,501.602 179.47,575C180.33,576.14 181.21,577.27 182.09,578.4L101.74,658.74L121.15,678.15L199.64,599.66C222.029,625.035 247.373,647.642 275.13,667C312.076,692.812 352.931,712.52 396.13,725.37L400.05,726.53L403.97,725.37C447.14,712.52 486.23,690.37 524.97,667C571.57,638.8 597.97,609.4 620.63,575C645.45,537.34 669.03,499.27 683.55,456.77C698.598,412.699 706.252,366.44 706.2,319.87C706.1,318.46 706.08,87.19 706.08,87.19ZM201.35,558.4C149.32,489.781 121.209,405.954 121.35,319.84L121.35,100.92L659.54,100.92L201.66,558.8C201.56,558.67 201.45,558.54 201.35,558.4ZM657.48,447.86C616.481,567.403 520.698,660.407 400,697.87C329.972,676.15 267.334,635.399 219.1,580.18L678.63,120.65L678.63,319.84C678.683,363.387 671.536,406.644 657.48,447.86Z" style="fill-rule:nonzero;"/>
    </g>
</svg>
