<svg width="613" height="654" viewBox="0 0 613 654" fill="none" xmlns="http://www.w3.org/2000/svg">
<g clip-path="url(#clip0_9_13)">
<path d="M109.241 439.07L105.631 442.68L115.571 452.62L113.281 454.91L103.341 444.97L99.7306 448.58L97.8706 446.72L107.381 437.21L109.241 439.07ZM124.701 436.61L119.551 425.04L122.841 421.75L134.641 433.53L132.491 435.68L123.271 426.46L123.211 426.52L128.911 439.26L127.311 440.86L114.571 435.17L114.511 435.22L123.731 444.44L121.581 446.59L109.791 434.79L113.081 431.53L124.701 436.61Z" fill="black"/>
<path d="M235.021 246.05L242.481 269.02L222.941 254.83L203.411 269.02L210.871 246.05L191.341 231.86H215.491L222.941 208.9L230.401 231.86H254.541L235.021 246.05Z" fill="black"/>
<path d="M122.621 246.05L142.151 231.86H118.011L110.541 208.9L103.091 231.86H78.9406L98.4706 246.05L91.0105 269.02L110.541 254.83L130.071 269.02L122.621 246.05Z" fill="black"/>
<path d="M174.211 306.63L166.751 283.67L159.291 306.63H135.141L154.671 320.82L147.211 343.78L166.751 329.59L186.271 343.78L178.821 320.82L198.341 306.63H174.211Z" fill="black"/>
<path d="M101.151 156.14L79.0006 105.71H78.3006V173.02C78.3152 173.255 78.2797 173.49 78.1965 173.71C78.1132 173.931 77.984 174.131 77.8176 174.297C77.6512 174.463 77.4512 174.593 77.231 174.676C77.0109 174.759 76.7755 174.795 76.5406 174.78H56.6806C56.4461 174.793 56.2114 174.756 55.992 174.673C55.7725 174.589 55.5733 174.46 55.4072 174.293C55.2411 174.127 55.1119 173.928 55.028 173.709C54.9442 173.489 54.9076 173.255 54.9206 173.02V57.02C54.9074 56.7859 54.944 56.5516 55.0279 56.3327C55.1119 56.1137 55.2412 55.915 55.4075 55.7497C55.5738 55.5843 55.7732 55.4561 55.9927 55.3734C56.2121 55.2908 56.4466 55.2555 56.6806 55.27H77.6006C78.1954 55.209 78.7936 55.3479 79.3007 55.6648C79.8077 55.9818 80.1948 56.4586 80.4006 57.02L110.631 125.21H111.341L141.081 57.02C141.289 56.456 141.679 55.9775 142.19 55.6605C142.701 55.3435 143.303 55.2061 143.901 55.27H164.461C164.694 55.2554 164.928 55.2906 165.147 55.3733C165.366 55.4561 165.565 55.5845 165.731 55.75C165.896 55.9156 166.024 56.1144 166.107 56.3334C166.19 56.5523 166.225 56.7864 166.211 57.02V173.02C166.225 173.254 166.19 173.488 166.107 173.708C166.024 173.927 165.896 174.127 165.731 174.293C165.566 174.459 165.367 174.589 165.148 174.673C164.929 174.757 164.695 174.793 164.461 174.78H144.551C144.316 174.793 144.082 174.757 143.863 174.673C143.644 174.589 143.446 174.459 143.28 174.293C143.115 174.127 142.987 173.927 142.904 173.708C142.821 173.488 142.786 173.254 142.801 173.02V105.71H142.081L119.931 156.14C119.698 156.835 119.245 157.434 118.64 157.848C118.036 158.261 117.312 158.466 116.581 158.43H104.481C103.752 158.463 103.032 158.257 102.431 157.844C101.83 157.43 101.381 156.832 101.151 156.14Z" fill="black"/>
<path d="M184.011 174.78H261.871C262.105 174.793 262.34 174.756 262.559 174.673C262.779 174.589 262.978 174.46 263.144 174.293C263.31 174.127 263.439 173.928 263.523 173.709C263.607 173.489 263.644 173.255 263.631 173.02V153.53C263.644 153.295 263.607 153.061 263.523 152.841C263.439 152.622 263.31 152.423 263.144 152.257C262.978 152.09 262.779 151.961 262.559 151.877C262.34 151.794 262.105 151.757 261.871 151.77H209.151C209.006 151.792 208.859 151.78 208.72 151.734C208.581 151.689 208.455 151.612 208.352 151.508C208.249 151.405 208.172 151.279 208.126 151.14C208.081 151.002 208.068 150.854 208.091 150.71V57.02C208.104 56.7859 208.067 56.5516 207.983 56.3327C207.899 56.1137 207.77 55.915 207.604 55.7497C207.437 55.5844 207.238 55.4561 207.018 55.3735C206.799 55.2908 206.565 55.2555 206.331 55.27H184.011C183.777 55.2554 183.543 55.2906 183.324 55.3734C183.105 55.4561 182.906 55.5845 182.741 55.7501C182.575 55.9156 182.447 56.1144 182.364 56.3334C182.281 56.5523 182.246 56.7864 182.261 57.02V173.02C182.246 173.254 182.281 173.489 182.364 173.708C182.447 173.927 182.575 174.127 182.74 174.293C182.906 174.459 183.104 174.589 183.323 174.673C183.542 174.757 183.776 174.793 184.011 174.78Z" fill="black"/>
<path d="M328.471 102.89L322.151 102.01C308.441 100.08 303.521 95.69 303.521 88.84C303.521 81.27 308.961 75.84 319.521 75.84C329.361 75.84 338.141 79 347.291 84.98C347.486 85.1086 347.705 85.1968 347.935 85.2393C348.165 85.2818 348.401 85.2777 348.63 85.2274C348.858 85.177 349.074 85.0814 349.265 84.9462C349.456 84.8109 349.617 84.6388 349.741 84.44L360.471 68.44C361.341 67.21 361.171 66.51 360.121 65.81C350.121 58.07 335.331 53.33 319.521 53.33C293.681 53.33 277.161 67.92 277.161 89.89C277.161 110.98 290.691 122.4 314.951 125.74L321.281 126.61C335.511 128.55 339.731 132.95 339.731 139.98C339.731 148.41 332.731 154.21 320.221 154.21C307.571 154.21 296.851 148.21 288.941 141.91C288.763 141.734 288.55 141.598 288.316 141.511C288.082 141.423 287.832 141.386 287.582 141.402C287.333 141.418 287.09 141.487 286.869 141.604C286.648 141.721 286.454 141.883 286.301 142.08L272.951 157.37C272.584 157.794 272.397 158.345 272.429 158.904C272.46 159.464 272.708 159.99 273.121 160.37C282.431 169.37 300.531 176.72 319.171 176.72C350.101 176.72 366.101 160.72 366.101 139.11C366.101 117.5 353.101 106.24 328.481 102.9" fill="black"/>
<path d="M612.161 13.72V0H0.000557574V13.72C0.000557574 13.72 0.000557574 244.99 0.000557574 246.37C-0.149273 338.49 29.9016 428.119 85.5506 501.53C86.4106 502.67 87.2906 503.8 88.1706 504.93L7.82056 585.27L27.2306 604.68L105.721 526.19C128.11 551.565 153.453 574.172 181.211 593.53C218.157 619.342 259.011 639.05 302.211 651.9L306.131 653.06L310.051 651.9C353.221 639.05 392.311 616.9 431.051 593.53C477.651 565.33 504.051 535.93 526.711 501.53C551.531 463.87 575.111 425.8 589.631 383.3C604.679 339.228 612.332 292.97 612.281 246.4C612.181 244.99 612.161 13.72 612.161 13.72ZM107.431 484.93C55.3914 416.299 27.2895 332.499 27.4306 246.37C27.4306 245.2 27.4306 77.2 27.4306 27.45H565.621L107.741 485.33C107.641 485.2 107.531 485.07 107.431 484.93ZM563.561 374.39C543.33 433.376 509.47 486.759 464.731 530.2C419.993 573.64 365.637 605.915 306.081 624.4C236.046 602.678 173.419 561.934 125.181 506.71L584.711 47.18C584.711 111.3 584.711 245.32 584.711 246.37C584.763 289.917 577.617 333.174 563.561 374.39Z" fill="black"/>
</g>
<defs>
<clipPath id="clip0_9_13">
<rect width="612.281" height="653.06" fill="white"/>
</clipPath>
</defs>
</svg>
