<svg width="394" height="96" viewBox="0 0 394 96" fill="none" xmlns="http://www.w3.org/2000/svg">
<path d="M45.342 48.3049H15.1142C6.76642 48.3049 0 55.1244 0 63.5365V78.7681C0 87.1805 6.76642 94 15.1142 94H45.342C53.6895 94 60.4559 87.1805 60.4559 78.7681C60.4559 70.356 53.6895 63.5365 45.342 63.5365H60.4559C60.4559 55.1244 53.6895 48.3049 45.342 48.3049ZM45.342 0H15.1142C6.76642 0 0 6.81947 0 15.2316H15.1142C6.76642 15.2316 0 22.0507 0 30.4631V45.6951H60.4559V30.4631H45.342C53.6895 30.4631 60.4559 23.6437 60.4559 15.2316C60.4559 6.81947 53.6895 0 45.342 0Z" fill="white"/>
<path d="M59.1571 92.3682H58.901V93.9998H59.1571V93.35H60.4558V93.0204H59.1571V92.3682Z" fill="black"/>
<path d="M60.4558 90.0146H59.0429C58.9985 90.0146 58.9638 90.0264 58.9389 90.0504C58.9134 90.0743 58.901 90.1086 58.901 90.153V90.5168L60.1316 91.0922L58.901 91.6691V92.0312C58.901 92.0744 58.9134 92.108 58.9389 92.1337C58.9638 92.1588 58.9985 92.1716 59.0429 92.1716H60.4558V91.8514H59.1574L60.4558 91.252V90.9364L59.1574 90.3349H60.4558V90.0146Z" fill="black"/>
<path d="M16.9194 78.1668V87.6655H19.8379V84.2351H21.9386L22.6857 82.1594H19.8379V80.2365H23.3751L24.1195 78.1668H16.9194Z" fill="black"/>
<path d="M25.012 78.1668L25.0123 87.6655H27.9305V78.1668H25.012Z" fill="black"/>
<path d="M29.9386 78.1668V87.6655H32.8571V84.2351H34.9578L35.7049 82.1594H32.8571V80.2365H36.3942L37.1387 78.1668H29.9386Z" fill="black"/>
<path d="M40.5167 80.6076L41.683 84.5642H39.3888L40.5167 80.6076ZM39.0457 78.1665L35.6298 87.666H38.503L38.8678 86.3897H42.166L42.5471 87.666H45.4945L42.0797 78.1665H39.0457Z" fill="black"/>
<path d="M19.3789 71.8467C20.5152 69.7096 21.5016 67.278 22.3195 64.6092C23.1279 61.9714 23.7425 59.1881 24.0905 56.6461C24.4399 54.094 24.381 49.6353 23.9769 47.362C23.6667 45.6171 23.2651 44.0767 22.5763 42.2327C21.8597 40.3141 20.939 38.3302 19.4903 35.3854C18.0353 32.4281 17.1186 30.3046 16.4265 28.2479C15.746 26.2259 15.3154 24.3501 14.9258 22.0667C14.4781 19.4431 14.5531 17.0933 15.2215 15.0153C15.8925 12.9288 17.1536 11.1257 19.0512 9.52144C21.2579 7.65586 23.7055 6.49365 26.6401 5.86448C29.1669 5.32275 32.3778 5.41215 35.1847 6.09497C37.1553 6.57435 39.0816 7.45325 40.7231 8.58985C42.3758 9.73414 43.7534 11.1481 44.6809 12.7285C46.4104 15.6752 46.7582 18.435 45.9647 22.6689C45.5696 24.7768 45.0481 26.6889 44.1676 28.9322C43.2083 31.3761 42.1149 33.5517 40.1742 37.3572C39.1276 39.4095 38.4216 40.9822 37.9053 42.4213C37.3904 43.8563 37.06 45.1707 36.7705 46.7524C36.2784 49.441 36.2135 52.4078 36.5799 55.6211C36.9448 58.8219 37.7423 62.2889 38.965 65.814C39.2831 66.7314 39.8323 68.0898 40.401 69.3793C40.9657 70.6597 41.5226 71.8109 41.838 72.3506C41.9639 72.566 42.2156 72.9947 42.2156 72.9947C38.3062 72.9947 30.4898 72.9947 30.4898 72.9947C26.5804 72.9947 18.764 72.9947 18.764 72.9947C18.9696 72.6133 19.1741 72.2319 19.3789 71.8467Z" fill="#F6DC32"/>
<path d="M18.908 72.9333C18.908 72.8995 19.2025 72.3069 19.5606 71.6069C20.1913 70.3741 20.9904 68.5478 21.8207 66.3366C22.0649 65.6863 22.4673 64.3114 22.8606 62.8068C23.2505 61.3159 23.6168 59.7537 23.7749 58.8768C24.3796 55.522 24.5118 52.3587 24.1867 49.3365C23.8599 46.2992 23.0783 43.4387 21.8671 40.5969C21.484 39.6981 20.6061 37.5393 19.5043 35.2806C18.2394 32.6872 17.4278 31.0344 16.7858 29.4437C16.1592 27.8909 15.7404 26.4983 15.3609 24.6195C15.1735 23.6918 15.1033 22.8564 15.149 22.8101C15.1947 22.7636 15.232 22.7982 15.2318 22.8868C15.2307 23.3209 16.2506 25.1738 16.9387 25.9309C17.8051 26.8841 19.1339 27.9106 19.3614 27.8518C19.4367 27.8324 19.7124 27.5851 19.9742 27.3057C20.7363 26.4927 21.3411 26.1512 22.4705 25.9047C24.6804 25.4222 26.2682 26.4919 26.0814 28.1788C26.0483 28.4775 26.0328 28.7217 26.0468 28.7195C26.148 28.7033 26.9311 27.4114 27.5704 26.2579C29.5917 22.6103 32.3559 20.1403 36.079 18.2757C37.173 17.7278 38.567 17.1235 39.9414 16.5557C41.2598 16.0111 42.7358 15.4269 43.7183 15.0913C45.6887 14.4184 45.5715 14.3331 45.9907 15.8542C46.4593 17.5543 46.457 19.7693 45.9793 22.4083C45.6228 24.3777 45.1341 26.2196 44.3671 28.2712C43.5708 30.4011 42.5774 32.5108 41.0598 35.4823C39.8088 37.9318 39.1044 39.3888 38.6149 40.51C38.1371 41.6045 37.8756 42.3582 37.5657 43.3655C36.5547 46.6522 36.368 48.048 36.3801 51.826C36.3864 53.7916 36.4769 55.6807 36.5997 56.4135C37.1136 59.4807 37.6118 61.638 38.5886 64.8372C38.7997 65.5289 39.3471 66.9404 39.9429 68.3482C40.5424 69.7647 41.1569 71.0988 41.5243 71.7951C41.8341 72.3823 42.2121 72.9017 42.2121 72.9347C42.2121 72.9678 36.8444 72.9949 30.4799 72.9949C24.1153 72.9949 18.908 72.9672 18.908 72.9333Z" fill="#F5C712"/>
<path d="M20.7958 68.9486C20.7956 68.9238 20.9072 68.6062 21.0433 68.2396C21.1258 68.0173 21.2904 67.5702 21.2904 67.5702C22.9845 67.5278 24.931 67.4824 27.0106 67.4558C28.9193 67.4313 30.4468 67.4312 30.4468 67.4312C32.1953 67.4291 34.0456 67.4429 36.175 67.4806C38.0838 67.5144 39.6098 67.5552 39.6098 67.5552C39.6809 67.7358 39.8231 68.095 39.8231 68.095C39.9426 68.3967 40.0671 68.7055 40.1101 68.8088C40.1687 68.9497 38.1797 68.9014 30.4878 68.9063C25.154 68.9096 20.796 68.9735 20.7958 68.9486ZM22.6472 63.6841C22.6468 63.6495 22.8189 62.9933 23.0291 62.2152C23.5528 60.2778 24.0881 57.1855 24.2958 54.9513C24.454 53.2485 24.3683 49.6189 24.1323 47.8477C23.9782 46.6913 24.4743 48.6272 25.0243 51.4368C25.4199 53.4574 25.7015 55.773 25.828 57.73C25.9546 59.6879 25.9247 61.2633 25.7015 61.8491C25.663 61.9501 25.8253 61.995 26.6337 61.9919C27.4422 61.9888 28.8977 61.9229 31.447 61.9424C34.6582 61.967 37.2823 62.1216 37.2822 62.0711C37.2821 62.0207 36.924 61.5867 36.4857 61.1017C34.9753 59.4304 33.5553 56.9859 32.2543 53.9504C30.9649 50.942 29.8056 47.3776 28.895 43.6916C28.4817 42.0186 28.4346 41.5764 28.4227 38.878C28.4117 36.3842 28.4666 35.7438 28.7885 34.4133C29.4461 31.6948 30.7536 28.9629 32.5561 26.5501C34.3737 24.1168 36.5911 22.1287 39.1445 20.3332C39.6203 19.9987 39.9805 19.693 39.946 19.6612C39.9114 19.6294 39.4437 19.7384 38.9057 19.9011C37.5092 20.3235 35.8237 21.0382 34.0117 22.0704C32.1934 23.1063 30.0661 24.5626 27.7704 26.6875C27.3909 27.0388 27.0813 27.2859 27.0819 27.2233C27.083 27.1053 27.4087 26.4902 27.8348 25.788C28.2692 25.0721 28.7791 24.3116 29.1886 23.7848C30.4542 22.1565 31.8423 20.8684 33.5466 19.741C35.2966 18.5834 37.2419 17.674 39.8489 16.586C40.8559 16.1658 42.9529 15.3527 43.7182 15.0913C45.6886 14.4184 45.5715 14.3331 45.9906 15.8542C46.4592 17.5543 46.4569 19.7693 45.9792 22.4083C45.6227 24.3777 45.134 26.2196 44.367 28.2712C43.5707 30.4011 42.5774 32.5108 41.0597 35.4823C39.8087 37.9318 39.1043 39.3888 38.6148 40.51C38.1371 41.6045 37.8756 42.3582 37.5657 43.3655C36.5658 46.6159 36.3708 48.0554 36.3781 51.7502C36.382 53.7361 36.4715 55.5624 36.6065 56.4143C36.9291 58.4489 37.5462 61.3097 37.9203 62.5056C38.0962 63.0678 38.2398 63.5658 38.2399 63.6182C38.24 63.6705 34.7314 63.4751 30.4388 63.4873C28.2552 63.4935 26.3798 63.5541 24.9318 63.6089C23.5207 63.6622 22.6474 63.7014 22.6472 63.6841ZM23.9021 46.8632C23.9002 46.662 23.9357 46.5722 23.9808 46.6636C24.0259 46.7551 24.0274 46.92 23.9841 47.0299C23.9409 47.1397 23.9039 47.0646 23.9021 46.8632ZM20.8547 32.89C18.8469 33.0616 17.6413 31.2888 18.5235 29.4214C18.9459 28.5274 19.1499 28.4422 18.9682 29.1871C18.7492 30.0845 19.1028 30.8593 19.7837 31.3155C20.4688 31.7745 21.479 31.9117 22.5913 31.6129C23.1485 31.4632 24.403 30.7588 24.868 30.3387C25.172 30.0641 25.1648 30.0784 24.9098 30.5211C24.6594 30.9556 23.9695 31.5964 23.2712 32.0634C22.8133 32.3697 21.4463 32.8394 20.8547 32.89Z" fill="#DDC327"/>
<path d="M20.8768 68.6762C20.9356 68.5033 21.0448 68.2108 21.1157 68.036C21.1592 67.9287 21.2461 67.7136 21.2461 67.7136C22.9412 67.6731 24.8902 67.6296 26.971 67.6039C28.8812 67.5804 30.4099 67.5801 30.4099 67.5801C32.1596 67.5778 34.0117 67.5908 36.1426 67.6266C38.053 67.6586 39.5802 67.6975 39.5802 67.6975C39.6652 67.8911 39.835 68.2758 39.835 68.2758C39.9751 68.5926 40.0896 68.88 40.0896 68.9172C40.0896 68.9544 35.7422 68.9023 30.4267 68.9064C27.2045 68.9088 20.7682 68.9943 20.7682 68.9943C20.7682 68.9943 20.8768 68.6762 20.8768 68.6762ZM22.7083 63.3379C22.9685 62.6975 23.2451 61.2942 23.4902 59.6697C23.7343 58.0519 23.9455 56.2258 24.0716 54.8164C24.2197 53.1621 24.3396 49.2564 24.1156 47.7771C23.9364 46.593 24.5156 48.932 25.0053 51.4397C25.4234 53.5806 25.7076 55.9704 25.8209 57.944C25.9343 59.9192 25.8755 61.4556 25.6125 61.9515C25.5374 62.093 25.5063 62.5828 26.2073 63.0135C26.9268 63.4555 28.3296 63.8048 31.2194 63.8155C32.8502 63.8216 34.4623 63.4779 35.6136 63.1204C36.7731 62.7604 37.4963 62.3761 37.3887 62.2506C37.3643 62.2221 36.9878 61.7314 36.497 61.1749C34.9275 59.3952 33.4977 56.9457 32.204 53.9324C30.9196 50.9408 29.783 47.4194 28.8647 43.6936C28.4525 42.0211 28.4056 41.5789 28.3937 38.8806C28.3827 36.3869 28.4375 35.7464 28.7584 34.4156C29.4288 31.6357 30.7358 28.8996 32.5764 26.4666C34.4455 23.996 36.7193 22.0046 39.4628 20.0437C39.816 19.7912 40.1004 19.6666 40.0997 19.7691C40.0991 19.8711 39.9867 20.6058 39.8499 21.3979C39.5235 23.2877 39.4769 25.7289 39.7591 26.59C40.0103 27.3569 40.5266 27.8478 41.0115 27.7651C41.9047 27.6127 43.0089 26.6507 44.4024 24.6018C45.7933 22.5567 45.8416 22.4561 45.7388 23.1538C45.4914 24.8311 45.0764 26.635 44.2253 28.9103C43.3035 31.3748 42.1478 33.7374 40.0552 37.6679C38.7102 40.1941 37.8526 42.304 37.3076 44.3618C36.7641 46.4138 36.5363 48.3978 36.4541 50.7358C36.3611 53.3822 36.5473 55.6618 37.0847 58.5655C37.3773 60.1465 37.9035 62.6583 38.1727 63.3156C38.232 63.4604 38.0517 63.4931 36.5326 63.4508C35.8207 63.431 33.1281 63.3246 30.404 63.3333C26.713 63.3452 24.7653 63.4784 23.7518 63.4991C22.7383 63.5198 22.6574 63.4631 22.7083 63.3379ZM23.8727 46.7838C23.8788 46.6119 23.9162 46.5693 23.968 46.6755C24.0149 46.7717 24.0103 46.8993 23.958 46.9588C23.9056 47.0183 23.8672 46.9395 23.8727 46.7838ZM20.8473 32.8923C18.8451 33.0624 17.643 31.2883 18.5227 29.4217C18.9439 28.528 19.1473 28.4429 18.9661 29.1877C18.7478 30.085 19.1003 30.86 19.7793 31.3168C20.4625 31.7764 21.4698 31.9145 22.5789 31.6162C23.1347 31.4667 24.3853 30.7629 24.8492 30.3426C25.1523 30.068 25.1451 30.0822 24.8908 30.525C24.6411 30.9596 23.9532 31.6003 23.2569 32.0671C22.8001 32.3733 21.4374 32.8421 20.8473 32.8923Z" fill="#E1B50B"/>
<path d="M20.8964 68.5831C21.0411 68.2146 21.0513 68.2124 21.1233 68.0354C21.272 67.6249 21.5684 66.7945 21.5684 66.7945C23.2235 66.7632 25.1024 66.7335 27.1334 66.7283C28.9906 66.7236 30.477 66.7431 30.477 66.7431C32.1453 66.7042 33.9327 66.6803 35.9663 66.6803C37.7956 66.6803 39.2579 66.6987 39.2579 66.6987C39.4704 67.2303 39.8947 68.2766 39.8947 68.2766C40.0254 68.5972 40.1501 68.8806 40.1501 68.9178C40.1501 68.955 35.7905 68.9023 30.4602 68.906C27.2156 68.9082 20.7345 68.9944 20.7345 68.9944C20.7885 68.8577 20.8425 68.7206 20.8964 68.5831ZM22.4537 64.1558C22.509 64.0156 22.8385 62.9698 22.8921 62.757C22.9317 62.5343 23.0108 62.0876 23.0108 62.0876C24.4046 61.9764 25.9932 61.8657 27.7077 61.7961C29.2768 61.7323 30.5333 61.7245 30.5333 61.7245C31.8994 61.6911 33.3831 61.6864 35.0492 61.7291C36.5539 61.7678 37.756 61.8333 37.756 61.8333C37.8335 62.127 37.9882 62.7112 37.9882 62.7112C38.0435 62.9195 38.3029 63.8104 38.3583 63.9472C38.4025 64.0563 38.1893 64.1042 37.0779 64.09C35.9664 64.0757 33.9555 63.975 30.4042 63.9854C27.2022 63.9947 24.4946 64.1681 23.7347 64.2094C22.6246 64.2697 22.411 64.2641 22.4537 64.1558Z" fill="#006836"/>
<path d="M121.906 0C128.354 2.49005e-05 131.842 1.65201 132.369 4.95508C132.896 8.24054 133.159 12.6328 133.159 18.1318C133.159 23.596 132.896 27.9713 132.369 31.2568C131.842 34.5421 128.354 36.1845 121.906 36.1846C115.493 36.1846 112.023 34.5421 111.496 31.2568C110.969 27.9713 110.705 23.596 110.705 18.1318C110.705 12.5977 110.96 8.19661 111.47 4.92871C111.979 1.64319 115.458 0 121.906 0ZM225.444 0C232.015 0 235.521 1.65199 235.96 4.95508C236.417 8.25793 236.645 11.7364 236.645 15.3906H226.868C226.868 10.7349 226.762 8.16968 226.552 7.69531C226.358 7.22097 226.006 6.98438 225.497 6.98438C225.005 6.98445 224.645 7.22996 224.417 7.72168C224.206 8.21363 224.1 11.6486 224.1 18.0264C224.1 24.4744 224.206 27.9446 224.417 28.4365C224.628 28.9283 224.988 29.1747 225.497 29.1748C226.006 29.1748 226.358 28.9461 226.552 28.4893C226.762 28.0148 226.868 25.5024 226.868 20.9521H236.645C236.645 24.3781 236.408 27.7693 235.933 31.125C235.476 34.4805 231.989 36.1582 225.471 36.1582C219.058 36.1582 215.605 34.463 215.113 31.0723C214.621 27.6813 214.376 23.3324 214.376 18.0264C214.376 12.7031 214.621 8.37232 215.113 5.03418C215.605 1.67842 219.049 3.96709e-05 225.444 0ZM249.21 26.5918C249.21 27.4351 249.307 28.0676 249.5 28.4893C249.693 28.9108 250.071 29.122 250.633 29.1221C251.195 29.1221 251.564 28.9197 251.74 28.5156C251.933 28.094 252.03 27.4526 252.03 26.5918V0.369141H261.781V27.8828C261.781 30.7994 260.92 32.8991 259.198 34.1816C257.476 35.4642 254.621 36.1055 250.633 36.1055C246.627 36.1054 243.764 35.4642 242.042 34.1816C240.338 32.8991 239.485 30.7994 239.485 27.8828V0.369141H249.21V26.5918ZM82.1298 28.832H82.288L84.369 0.369141H95.0956L97.204 28.8057H97.3094L97.9159 0.369141H108.115L105.427 35.9473H91.1161L89.7987 7.53711H89.6932L88.3759 35.9473H74.0126L71.4559 0.369141H81.5497L82.1298 28.832ZM151.546 0.369141C155.604 0.369141 157.766 1.62535 158.029 4.1377C158.31 6.65015 158.451 9.01377 158.451 11.2275C158.451 13.3532 158.301 15.5228 158.003 17.7363C157.864 18.8202 157.265 19.6356 156.206 20.1846L158.952 35.9473H148.964L146.881 21.0312H146.17V35.9473H136.392V0.369141H151.546ZM172.148 29.0693H177.656V35.9473H162.396V0.369141H172.148V29.0693ZM194.283 0.369141C198.746 0.369141 201.162 1.67803 201.531 4.2959C201.918 6.89617 202.11 11.5082 202.11 18.1318C202.11 24.7552 201.909 29.385 201.505 32.0205C201.118 34.6384 198.711 35.9473 194.283 35.9473H180.025V0.369141H194.283ZM280.505 0.369141C284.756 0.369243 287.014 1.81889 287.277 4.71777C287.558 7.61673 287.699 10.5425 287.699 13.4941C287.699 16.4984 287.55 19.4674 287.251 22.4014C286.97 25.3178 284.721 26.7763 280.505 26.7764H275.523V35.9473H265.772V0.369141H280.505ZM121.906 6.98438C121.361 6.98438 120.966 7.21213 120.72 7.66895C120.474 8.12586 120.351 11.6136 120.351 18.1318C120.351 24.4564 120.474 27.8827 120.72 28.4102C120.966 28.9372 121.361 29.2012 121.906 29.2012C122.468 29.2011 122.872 28.9371 123.118 28.4102C123.364 27.8831 123.487 24.4569 123.487 18.1318C123.487 11.6135 123.364 8.12576 123.118 7.66895C122.872 7.21235 122.468 6.98441 121.906 6.98438ZM189.724 28.9639H191.095C191.657 28.9638 192.017 28.691 192.175 28.1465C192.333 27.5836 192.412 24.2453 192.412 18.1318C192.412 12.0177 192.333 8.697 192.175 8.16992C192.017 7.62549 191.657 7.35362 191.095 7.35352H189.724V28.9639ZM275.523 19.792H276.92C277.447 19.792 277.755 19.4059 277.843 18.6328C277.93 17.8422 277.974 16.1381 277.974 13.5205C277.974 10.9554 277.922 9.28577 277.816 8.5127C277.711 7.73963 277.412 7.35352 276.92 7.35352H275.523V19.792ZM146.17 15.0488H147.698C148.208 15.0488 148.489 14.7321 148.542 14.0996C148.612 13.4672 148.647 12.5186 148.647 11.2539C148.647 9.91861 148.603 8.93427 148.516 8.30176C148.445 7.6693 148.172 7.35352 147.698 7.35352H146.17V15.0488Z" fill="white"/>
<path d="M124.998 59.1296H91.5454V67.3552H121.68V78.9666H91.5454V93.2732H71.9858V46.6199H124.998V59.1296ZM152.157 93.2732H132.804V46.6199H152.157V93.2732ZM203.835 46.6199C210.102 46.6199 215.125 47.8753 218.903 50.3865C222.681 52.8977 224.57 56.9643 224.57 62.5857C224.57 68.1609 222.566 72.2155 218.557 74.7498C216.373 76.1307 213.784 77.134 210.792 77.7625L226.402 93.2732H204.285L190.96 78.5515H180.059V93.2732H160.5V46.6199H203.835ZM287.169 59.1296H249.432V64.072H283.644V75.6833H249.432V80.7634H287.169V93.2732H229.872V46.6199H287.169V59.1296ZM180.059 66.8015H198.237C200.633 66.8015 202.361 66.5021 203.42 65.9031C204.48 65.3041 205.01 64.3368 205.01 63.0007C205.01 61.6185 204.469 60.6271 203.386 60.0281C202.303 59.4291 200.587 59.1297 198.237 59.1296H180.059V66.8015Z" fill="white"/>
<path d="M383.012 57.1419C383.394 54.7997 383.585 52.4048 383.585 49.9574C383.585 49.3039 383.569 48.6668 383.541 48.0276C383.541 47.8002 383.526 47.5872 383.498 47.3598C383.482 46.8148 383.439 46.2822 383.395 45.7496C383.381 45.5529 383.35 45.3398 383.322 45.1288C383.277 44.6413 383.22 44.1394 383.146 43.6538L383.146 43.6527C383.101 43.3192 383.058 43 382.998 42.6828C382.839 41.5724 382.619 40.4949 382.355 39.4173C382.284 39.067 382.195 38.7331 382.106 38.3848L382.073 38.2642C381.952 37.8171 381.832 37.3716 381.698 36.9262C381.579 36.5451 381.462 36.1805 381.346 35.8322C381.212 35.3938 381.066 34.9636 380.908 34.5416C380.716 33.9803 380.513 33.4333 380.276 32.8863C380.088 32.4001 379.879 31.9139 379.648 31.4277C379.504 31.0958 379.352 30.7722 379.194 30.4567C378.989 29.9855 378.754 29.5287 378.507 29.0575C378.302 28.6641 378.097 28.2831 377.876 27.9061C377.264 26.7651 376.573 25.6568 375.842 24.6079C375.829 24.5935 375.829 24.6079 375.829 24.6079V24.5935C375.534 24.1531 375.213 23.7126 374.907 23.2886C373.963 21.9874 372.941 20.7489 371.847 19.5806C371.13 18.7912 370.383 18.0318 369.608 17.3025H369.592C368.813 16.5582 368.013 15.8596 367.192 15.2068C364.094 12.6715 360.658 10.6152 356.992 9.10193C352.104 7.03488 346.748 5.91224 341.142 5.91224C335.698 5.89835 330.304 6.98669 325.262 9.11627C317.623 12.3099 311.046 17.7462 306.339 24.7595C301.345 32.1379 298.676 40.9407 298.699 49.9574C298.699 52.3021 298.875 54.6433 299.226 56.9596C300.239 63.5218 302.676 69.7593 306.353 75.2004C307.106 76.3109 307.907 77.3854 308.753 78.4208C309.223 78.9904 309.716 79.523 310.206 80.0597H310.202L310.232 80.0905C310.449 80.3281 310.652 80.5883 310.875 80.8198C311.025 80.9573 311.171 81.0987 311.314 81.2438C311.327 81.2746 311.359 81.3053 311.387 81.334C311.548 81.5183 311.724 81.6843 311.914 81.8666C312.086 82.0473 312.267 82.2196 312.455 82.3829C312.466 82.4101 312.487 82.432 312.514 82.4443C312.53 82.4587 312.543 82.4894 312.573 82.5037C312.618 82.5427 312.662 82.5837 312.703 82.6266C312.72 82.6454 312.74 82.6607 312.763 82.6717L313.187 83.0671C313.365 83.2377 313.551 83.3997 313.744 83.5526C314.109 83.8845 314.49 84.2089 314.885 84.5257C314.93 84.5687 314.96 84.6015 315.001 84.6302C315.441 84.9826 315.895 85.3452 316.363 85.6791C316.906 86.0888 317.475 86.4985 318.047 86.8796C318.164 86.9554 318.28 87.0455 318.399 87.1213C318.809 87.3958 319.218 87.6376 319.628 87.8977C319.994 88.1237 320.365 88.3409 320.74 88.5492C321.068 88.7428 321.4 88.9306 321.735 89.1126C322.481 89.5059 323.227 89.8869 323.989 90.2352C324.547 90.492 325.113 90.7398 325.687 90.9788C325.837 91.0539 325.994 91.1156 326.155 91.1632L326.988 91.4808C327.324 91.6185 327.667 91.7402 328.014 91.8454C328.368 91.9642 328.714 92.0762 329.053 92.1814C329.434 92.3043 329.815 92.4204 330.194 92.5296C330.475 92.6065 330.758 92.6768 331.043 92.7406C331.731 92.9223 332.418 93.0793 333.105 93.2118C333.538 93.3003 333.973 93.3816 334.408 93.4556C334.572 93.4863 334.746 93.5007 334.908 93.5314C335.478 93.6216 336.048 93.6973 336.619 93.7588C336.677 93.7588 336.736 93.7752 336.795 93.7752C337.481 93.8455 338.169 93.9008 338.858 93.9411H338.961C342.377 94.1243 345.802 93.8801 349.163 93.2139C360.152 91.0403 369.652 84.4479 375.856 75.2906V75.2762C379.544 69.8775 381.992 63.6743 383.012 57.1419Z" fill="#D6D6D6" stroke="#7E7E7E" stroke-width="3" stroke-linecap="round" stroke-linejoin="round"/>
<path d="M383.012 57.1419C383.394 54.7997 383.585 52.4048 383.585 49.9574C383.585 49.3039 383.569 48.6668 383.541 48.0276C383.541 47.8002 383.526 47.5872 383.498 47.3598C383.482 46.8148 383.439 46.2822 383.395 45.7496C383.381 45.5529 383.35 45.3398 383.322 45.1288C383.277 44.6413 383.22 44.1394 383.146 43.6538L383.146 43.6527C383.101 43.3192 383.058 43 382.998 42.6828C382.839 41.5724 382.619 40.4949 382.355 39.4173C382.284 39.067 382.195 38.7331 382.106 38.3848L382.073 38.2642C381.952 37.8171 381.832 37.3716 381.698 36.9262C381.579 36.5451 381.462 36.1805 381.346 35.8322C381.212 35.3938 381.066 34.9636 380.908 34.5416C380.716 33.9803 380.513 33.4333 380.276 32.8863C380.088 32.4001 379.879 31.9139 379.648 31.4277C379.504 31.0958 379.352 30.7722 379.194 30.4567C378.989 29.9855 378.754 29.5287 378.507 29.0575C378.302 28.6641 378.097 28.2831 377.876 27.9061C377.264 26.7651 376.573 25.6568 375.842 24.6079C375.829 24.5935 375.829 24.6079 375.829 24.6079V24.5935C375.534 24.1531 375.213 23.7126 374.907 23.2886C373.963 21.9874 372.941 20.7489 371.847 19.5806C371.13 18.7912 370.383 18.0318 369.608 17.3025H369.592C368.813 16.5582 368.013 15.8596 367.192 15.2068C364.094 12.6715 360.658 10.6152 356.992 9.10193C352.104 7.03488 346.748 5.91224 341.142 5.91224C335.698 5.89835 330.304 6.98669 325.262 9.11627C317.623 12.3099 311.046 17.7462 306.339 24.7595C301.345 32.1379 298.676 40.9407 298.699 49.9574C298.699 52.3021 298.875 54.6433 299.226 56.9596C300.239 63.5218 302.676 69.7593 306.353 75.2004C307.106 76.3109 307.907 77.3854 308.753 78.4208C309.223 78.9904 309.716 79.523 310.206 80.0597H310.202L310.232 80.0905C310.449 80.3281 310.652 80.5883 310.875 80.8198C311.025 80.9573 311.171 81.0987 311.314 81.2438C311.327 81.2746 311.359 81.3053 311.387 81.334C311.548 81.5183 311.724 81.6843 311.914 81.8666C312.086 82.0473 312.267 82.2196 312.455 82.3829C312.466 82.4101 312.487 82.432 312.514 82.4443C312.53 82.4587 312.543 82.4894 312.573 82.5037C312.618 82.5427 312.662 82.5837 312.703 82.6266C312.72 82.6454 312.74 82.6607 312.763 82.6717L313.187 83.0671C313.365 83.2377 313.551 83.3997 313.744 83.5526C314.109 83.8845 314.49 84.2089 314.885 84.5257C314.93 84.5687 314.96 84.6015 315.001 84.6302C315.441 84.9826 315.895 85.3452 316.363 85.6791C316.906 86.0888 317.475 86.4985 318.047 86.8796C318.164 86.9554 318.28 87.0455 318.399 87.1213C318.809 87.3958 319.218 87.6376 319.628 87.8977C319.994 88.1237 320.365 88.3409 320.74 88.5492C321.068 88.7428 321.4 88.9306 321.735 89.1126C322.481 89.5059 323.227 89.8869 323.989 90.2352C324.547 90.492 325.113 90.7398 325.687 90.9788C325.837 91.0539 325.994 91.1156 326.155 91.1632L326.988 91.4808C327.324 91.6185 327.667 91.7402 328.014 91.8454C328.368 91.9642 328.714 92.0762 329.053 92.1814C329.434 92.3043 329.815 92.4204 330.194 92.5296C330.475 92.6065 330.758 92.6768 331.043 92.7406C331.731 92.9223 332.418 93.0793 333.105 93.2118C333.538 93.3003 333.973 93.3816 334.408 93.4556C334.572 93.4863 334.746 93.5007 334.908 93.5314C335.478 93.6216 336.048 93.6973 336.619 93.7588C336.677 93.7588 336.736 93.7752 336.795 93.7752C337.481 93.8455 338.169 93.9008 338.858 93.9411H338.961C342.377 94.1243 345.802 93.8801 349.163 93.2139C360.152 91.0403 369.652 84.4479 375.856 75.2906V75.2762C379.544 69.8775 381.992 63.6743 383.012 57.1419Z" fill="#D6D6D6" stroke="black" stroke-width="2" stroke-linecap="round" stroke-linejoin="round"/>
<path d="M326.568 44.0413C326.858 43.143 327.412 42.3608 328.152 41.8045L337.16 35.0113C337.909 34.4443 338.813 34.1388 339.741 34.1388C339.741 34.1388 339.741 34.1388 339.742 34.1388C340.669 34.1391 341.572 34.4446 342.322 35.0113L351.331 41.8025C352.06 42.3503 352.608 43.1171 352.902 43.9983C352.911 44.0255 352.92 44.0529 352.929 44.0803C353.215 44.9959 353.214 45.9822 352.927 46.8974L349.486 57.8882C349.196 58.8126 348.641 59.5897 347.925 60.1406C347.186 60.7092 346.275 61.0369 345.309 61.0369H334.173C333.245 61.0381 332.341 60.7338 331.591 60.168C331.572 60.154 331.554 60.1398 331.536 60.1254L324.248 77.2788C324.898 77.7621 325.447 78.3775 325.863 79.0887L329.988 86.0601L333.194 91.4971C333.516 92.0441 333.107 93.2118 333.107 93.2118C325.863 91.8676 322.524 89.9798 318.043 86.8796C313.459 83.803 309.489 79.8375 306.353 75.2004C306.499 74.9358 306.717 74.7222 306.98 74.5868C307.244 74.4515 307.54 74.4005 307.831 74.4404L321.502 76.1715C322.394 76.2824 323.251 76.6027 324.006 77.1081C324.088 77.163 324.169 77.2199 324.248 77.2788L331.536 60.1254C330.813 59.5625 330.276 58.7812 329.998 57.8882L326.557 46.8974C326.269 45.9825 326.269 44.9966 326.555 44.0815C326.56 44.0681 326.564 44.0547 326.568 44.0413Z" fill="black"/>
<path d="M343.878 16.9993L356.186 10.7429C356.476 10.6002 356.712 10.3601 356.858 10.0636C357.004 9.76718 357.051 9.42905 356.992 9.10193C352.104 7.03693 346.748 5.91224 341.142 5.91224C335.698 5.89835 330.304 6.98669 325.262 9.11627C325.204 9.4515 325.253 9.7973 325.4 10.1015C325.548 10.4056 325.787 10.6516 326.082 10.8023L338.682 17.0301C339.454 17.4027 340.291 17.6043 341.142 17.6221C342.088 17.6368 343.025 17.4237 343.878 16.9993Z" fill="black"/>
<path d="M309.486 45.3706C310.037 44.6517 310.432 43.8171 310.642 42.9245C310.861 42.0149 310.875 41.0562 310.67 40.1302L307.626 25.96C307.496 25.2921 306.953 24.8373 306.339 24.7595C301.345 32.1379 298.676 40.9407 298.699 49.9574C298.696 52.3023 298.872 54.6437 299.226 56.9596C299.514 57.0556 299.823 57.0591 300.113 56.9696C300.403 56.88 300.66 56.7015 300.851 56.4577L309.486 45.3706Z" fill="black"/>
<path d="M375.856 75.2906V75.2762C375.715 74.9975 375.495 74.7679 375.226 74.6216C374.957 74.4753 374.651 74.4171 374.35 74.4547L360.725 76.1879C359.834 76.3043 358.98 76.6267 358.225 77.1312C357.471 77.6358 356.835 78.3096 356.364 79.103L349.06 91.4664C348.904 91.7339 348.83 92.0445 348.848 92.3568C348.866 92.6691 348.976 92.9681 349.163 93.2139C360.152 91.0403 369.652 84.4479 375.856 75.2906Z" fill="black"/>
<path d="M382.208 57.093C382.467 57.1871 382.745 57.2041 383.012 57.1419C383.972 51.2517 383.953 46.1428 382.355 39.4173C380.888 33.2457 378.912 29.0009 375.842 24.6099C375.833 24.599 375.829 24.599 375.829 24.6099C375.552 24.6701 375.297 24.8126 375.097 25.0199C374.897 25.2272 374.758 25.4904 374.699 25.7776L373.179 32.9007V32.9171L371.628 40.1302C371.427 41.0386 371.428 41.9825 371.631 42.8904C371.834 43.7982 372.233 44.6464 372.798 45.3706L373.866 46.737L381.551 56.6093C381.722 56.8312 381.95 56.9988 382.208 57.093Z" fill="black"/>
<path d="M341.142 17.6262L339.742 34.1406M352.897 43.9986L371.602 42.859M347.924 60.1396L358.174 77.163M331.537 60.1212L324.248 77.2788M326.572 44.0416L310.644 42.9307M328.152 41.8045C327.401 42.3691 326.842 43.1663 326.555 44.0815C326.269 44.9966 326.269 45.9825 326.557 46.8974L329.998 57.8882C330.283 58.804 330.841 59.6022 331.591 60.168C332.341 60.7338 333.245 61.0381 334.173 61.0369H345.309C347.212 61.0369 348.897 59.7668 349.486 57.8882L352.927 46.8974C353.214 45.9822 353.215 44.9959 352.929 44.0803C352.642 43.1648 352.083 42.3672 351.331 41.8025L342.322 35.0113C341.572 34.4443 340.668 34.1388 339.741 34.1388C338.813 34.1388 337.909 34.4443 337.16 35.0113L328.152 41.8045ZM356.186 10.7429L343.878 16.9993C343.025 17.4237 342.088 17.6368 341.142 17.6221C340.291 17.6043 339.454 17.4027 338.682 17.0301L326.082 10.8023C325.787 10.6516 325.548 10.4056 325.4 10.1015C325.253 9.7973 325.204 9.4515 325.262 9.11627C330.304 6.98669 335.698 5.89835 341.142 5.91224C346.748 5.91224 352.104 7.03693 356.992 9.10193C357.051 9.42905 357.004 9.76718 356.858 10.0636C356.712 10.3601 356.476 10.6002 356.186 10.7429ZM318.043 86.8796C313.459 83.803 309.489 79.8375 306.353 75.2004C306.499 74.9358 306.717 74.7222 306.98 74.5868C307.244 74.4515 307.54 74.4005 307.831 74.4404L321.502 76.1715C322.394 76.2824 323.251 76.6027 324.006 77.1081C324.762 77.6136 325.397 78.2909 325.863 79.0887L329.988 86.0601L333.194 91.4971C333.516 92.0441 333.107 93.2118 333.107 93.2118C325.863 91.8676 322.524 89.9798 318.043 86.8796ZM310.642 42.9245C310.432 43.8171 310.037 44.6517 309.486 45.3706L300.851 56.4577C300.66 56.7016 300.403 56.88 300.113 56.9696C299.823 57.0591 299.514 57.0556 299.226 56.9596C298.872 54.6437 298.696 52.3023 298.699 49.9574C298.676 40.9407 301.345 32.1379 306.339 24.7595C306.953 24.8373 307.496 25.2921 307.626 25.96L310.67 40.1302C310.875 41.0562 310.861 42.0149 310.642 42.9245ZM375.856 75.2762V75.2906C369.652 84.4479 360.152 91.0403 349.163 93.2139C348.976 92.9681 348.866 92.6691 348.848 92.3568C348.83 92.0445 348.904 91.7339 349.06 91.4664L356.364 79.103C356.835 78.3096 357.471 77.6358 358.225 77.1312C358.98 76.6267 359.834 76.3043 360.725 76.1879L374.35 74.4547C374.651 74.4171 374.957 74.4753 375.226 74.6216C375.495 74.7679 375.715 74.9975 375.856 75.2762ZM383.012 57.1419C382.745 57.2041 382.467 57.1871 382.208 57.093C381.95 56.9988 381.722 56.8312 381.551 56.6093L373.866 46.737L372.798 45.3706C372.233 44.6464 371.834 43.7982 371.631 42.8904C371.428 41.9825 371.427 41.0386 371.628 40.1302L373.179 32.9171V32.9007L374.699 25.7776C374.758 25.4904 374.897 25.2272 375.097 25.0199C375.297 24.8126 375.552 24.6701 375.829 24.6099C375.829 24.599 375.833 24.599 375.842 24.6099C378.912 29.0009 380.888 33.2457 382.355 39.4173C383.953 46.1428 383.972 51.2517 383.012 57.1419Z" stroke="black" stroke-width="2" stroke-linecap="round" stroke-linejoin="round"/>
<path d="M387.861 26.6719C394.083 35.0041 393.366 43.1719 384.645 51.3564H387.275C381.754 55.8351 376.201 57.3933 371.236 58.2743C370.287 58.4427 369.736 58.3848 368.893 58.2743L368.785 58.2601C365.292 57.8031 357.434 56.7748 352.232 49.4717C353.206 49.8695 355.132 50.737 356.01 50.737C348.875 42.9268 348.289 35.8127 355.027 25.9624C355.027 30.563 357.746 34.8243 359.832 32.8941C362.351 30.563 359.832 24.4423 364.753 15.6865C366.002 15.8043 368.363 15.4011 368.972 13.6193C370.261 9.8494 368.1 5.27004 368.1 2.71631C375.747 7.61855 386.054 13.6193 383.545 26.6719C382.929 29.8768 387.861 32.8941 387.861 26.6719Z" fill="#FB3702"/>
<path d="M387.784 31.3664C387.784 35.5176 385.349 38.6646 385.349 41.9701C386.235 42.6819 387.332 42.7489 388.751 41.2758C383.848 53.3032 376.299 56.3263 371.236 58.2742C370.287 58.4426 369.706 58.5336 368.893 58.2742C366.721 57.5807 358.256 55.0485 356.01 51.7045C356.984 52.1024 357.846 52.1024 358.724 52.1024C356.492 50.114 351.911 39.8698 354.169 28.7551C355.469 34.1405 358.559 36.2967 360.944 34.6472C364.179 32.4087 361.404 26.0538 365.718 18.0422C366.967 18.16 368.881 17.9638 369.783 16.2344C372.126 12.5821 371.236 8.86334 370.25 6.27148C378.493 12.0162 381.783 19.85 381.783 30.5629C381.783 32.7815 384.558 33.7768 387.784 31.3664Z" fill="#FF733D"/>
<path d="M384.302 35.0017C384.699 40.285 382.877 42.0924 383.541 43.7884C384.047 45.0828 384.737 44.8394 386.144 44.2683C382.719 52.3914 376.298 56.3261 371.235 58.274C370.286 58.4424 369.705 58.5333 368.892 58.274C366.72 57.5805 361.257 54.153 359.011 50.809C356.766 47.465 355.812 44.2683 354.957 37.6173C356.398 39.8492 360.346 40.6165 361.961 39.0245C363.934 37.0786 363.491 31.5225 364.572 28.6566C366.797 22.7563 371.235 19.5355 372.271 13.2808C381.915 19.9904 376.428 31.8074 378.846 35.0017C380.167 36.7462 382.261 36.3724 384.302 35.0017Z" fill="#FF8E12"/>
<path d="M381.915 38.5274C381.915 38.5274 379.936 43.6193 380.6 45.3152C382.396 49.9063 375.888 56.268 371.235 58.2744C370.286 58.4428 369.704 58.5337 368.892 58.2744C366.72 57.5809 363.337 54.7995 362.518 51.7192C361.699 48.6388 358.573 42.8488 358.573 42.8488C360.326 43.986 361.89 44.4408 363.504 42.8488C365.478 40.9029 365.273 37.0721 366.354 34.2061C368.578 28.3058 370.963 26.5453 373.812 22.2239C377.538 28.0237 373.469 34.4233 375.888 37.6177C377.208 39.3622 379.874 39.8981 381.915 38.5274Z" fill="#FFCA51"/>
<path d="M379.639 49.3791C378.001 52.6719 375.238 56.0178 371.235 58.2744C370.286 58.4428 369.704 58.5338 368.892 58.2744C366.72 57.581 364.951 55.7522 364.132 52.6719C363.313 49.5915 361.639 45.3154 361.639 45.3154C362.796 45.78 363.424 46.7706 364.661 45.3152C366.462 43.197 366.432 39.334 367.513 36.468C368.593 33.6021 369.854 31.7723 373.514 28.4414C372.1 33.4377 372.194 37.7203 373.514 39.4648C374.835 41.2093 376.788 42.1248 378.829 40.7541C378.829 40.7541 377.656 43.6193 378.319 45.3152C378.726 46.3543 380.461 47.7266 379.639 49.3791Z" fill="#FDFA9E"/>
<path d="M376.027 51.5943C375.491 54.2982 373.792 56.3816 371.579 57.3201C370.733 57.6792 369.95 57.7023 369.113 57.3201C367.4 56.538 366.748 55.1416 366.168 52.9602C365.68 51.126 365.825 48.769 367.1 47.2689C368.376 45.7688 368.322 44.5709 368.322 42.3915C368.322 40.8945 368.965 39.4719 370.171 38.6182C370.171 41.0085 371.323 43.0574 372.572 44.5137C374.807 47.1198 374.894 46.1992 375.491 47.7243C375.779 48.4601 376.282 50.3076 376.027 51.5943Z" fill="#FFFFE4"/>
</svg>
