<svg width="323" height="96" viewBox="0 0 323 96" fill="none" xmlns="http://www.w3.org/2000/svg">
  <path
    d="M51.1782 0.363281C57.6262 0.363306 61.114 2.01529 61.6411 5.31836C62.1682 8.60382 62.4312 12.9961 62.4312 18.4951C62.4312 23.9593 62.1682 28.3346 61.6411 31.6201C61.1138 34.9054 57.6259 36.5478 51.1782 36.5479C44.7656 36.5479 41.2954 34.9053 40.7681 31.6201C40.241 28.3346 39.9771 23.9593 39.9771 18.4951C39.9771 12.9609 40.2322 8.5599 40.7417 5.29199C41.2512 2.00647 44.7302 0.363281 51.1782 0.363281ZM154.716 0.363281C161.287 0.363281 164.793 2.01527 165.232 5.31836C165.689 8.62121 165.917 12.0997 165.917 15.7539H156.14C156.14 11.0982 156.035 8.53296 155.824 8.05859C155.63 7.58425 155.279 7.34766 154.769 7.34766C154.277 7.34773 153.917 7.59324 153.689 8.08496C153.478 8.57691 153.373 12.0119 153.373 18.3896C153.373 24.8377 153.478 28.3079 153.689 28.7998C153.9 29.2916 154.26 29.538 154.769 29.5381C155.279 29.5381 155.63 29.3093 155.824 28.8525C156.035 28.3781 156.14 25.8656 156.14 21.3154H165.917C165.917 24.7414 165.68 28.1326 165.206 31.4883C164.749 34.8438 161.261 36.5215 154.743 36.5215C148.33 36.5214 144.877 34.8262 144.385 31.4355C143.893 28.0446 143.648 23.6957 143.648 18.3896C143.648 13.0664 143.893 8.73561 144.385 5.39746C144.877 2.0417 148.321 0.363321 154.716 0.363281ZM178.482 26.9551C178.482 27.7984 178.579 28.4309 178.772 28.8525C178.965 29.2741 179.343 29.4852 179.905 29.4854C180.467 29.4854 180.837 29.283 181.012 28.8789C181.205 28.4572 181.302 27.8159 181.302 26.9551V0.732422H191.053V28.2461C191.053 31.1627 190.192 33.2623 188.47 34.5449C186.748 35.8275 183.893 36.4688 179.905 36.4688C175.899 36.4687 173.036 35.8274 171.314 34.5449C169.61 33.2623 168.757 31.1627 168.757 28.2461V0.732422H178.482V26.9551ZM11.4019 29.1953H11.5601L13.6411 0.732422H24.3677L26.4761 29.1689H26.5815L27.188 0.732422H37.3872L34.6987 36.3105H20.3882L19.0708 7.90039H18.9653L17.6479 36.3105H3.28467L0.728027 0.732422H10.8218L11.4019 29.1953ZM80.8179 0.732422C84.8764 0.732422 87.0376 1.98863 87.3013 4.50098C87.5824 7.01343 87.7231 9.37705 87.7231 11.5908C87.7231 13.7165 87.5735 15.8861 87.2749 18.0996C87.1362 19.1835 86.5368 19.9989 85.478 20.5479L88.2241 36.3105H78.2358L76.1528 21.3945H75.4419V36.3105H65.6646V0.732422H80.8179ZM101.42 29.4326H106.928V36.3105H91.6685V0.732422H101.42V29.4326ZM123.555 0.732422C128.018 0.732422 130.434 2.04131 130.803 4.65918C131.19 7.25946 131.382 11.8715 131.382 18.4951C131.382 25.1185 131.181 29.7483 130.777 32.3838C130.39 35.0017 127.983 36.3105 123.555 36.3105H109.297V0.732422H123.555ZM209.777 0.732422C214.028 0.732524 216.286 2.18217 216.549 5.08105C216.83 7.98001 216.971 10.9058 216.971 13.8574C216.971 16.8616 216.822 19.8307 216.523 22.7646C216.242 25.6811 213.993 27.1395 209.777 27.1396H204.795V36.3105H195.044V0.732422H209.777ZM51.1782 7.34766C50.6336 7.34766 50.2377 7.57542 49.9917 8.03223C49.7457 8.48914 49.6235 11.9769 49.6235 18.4951C49.6235 24.8197 49.7458 28.246 49.9917 28.7734C50.2377 29.3005 50.6336 29.5645 51.1782 29.5645C51.7403 29.5644 52.1442 29.3004 52.3901 28.7734C52.6361 28.2463 52.7593 24.8202 52.7593 18.4951C52.7593 11.9768 52.6361 8.48904 52.3901 8.03223C52.1442 7.57563 51.7403 7.3477 51.1782 7.34766ZM118.996 29.3271H120.367C120.929 29.327 121.289 29.0543 121.447 28.5098C121.605 27.9469 121.684 24.6086 121.684 18.4951C121.684 12.381 121.605 9.06029 121.447 8.5332C121.289 7.98877 120.929 7.7169 120.367 7.7168H118.996V29.3271ZM204.795 20.1553H206.192C206.719 20.1553 207.027 19.7692 207.115 18.9961C207.203 18.2055 207.247 16.5014 207.247 13.8838C207.247 11.3186 207.194 9.64905 207.088 8.87598C206.983 8.10291 206.684 7.7168 206.192 7.7168H204.795V20.1553ZM75.4419 15.4121H76.9702C77.4797 15.4121 77.7613 15.0954 77.814 14.4629C77.8842 13.8304 77.9194 12.8819 77.9194 11.6172C77.9194 10.2819 77.8754 9.29755 77.7876 8.66504C77.7173 8.03258 77.4446 7.7168 76.9702 7.7168H75.4419V15.4121Z"
    fill="white" />
  <path
    d="M54.2698 59.4929H20.8176V67.7185H50.9524V79.3298H20.8176V93.6365H1.25806V46.9832H54.2698V59.4929ZM81.429 93.6365H62.0764V46.9832H81.429V93.6365ZM133.108 46.9832C139.374 46.9832 144.397 48.2386 148.175 50.7498C151.953 53.261 153.842 57.3276 153.842 62.949C153.842 68.5242 151.838 72.5788 147.829 75.113C145.645 76.494 143.056 77.4973 140.065 78.1257L155.674 93.6365H133.557L120.233 78.9148H109.331V93.6365H89.7717V46.9832H133.108ZM216.442 59.4929H178.704V64.4353H212.916V76.0466H178.704V81.1267H216.442V93.6365H159.144V46.9832H216.442V59.4929ZM109.331 67.1648H127.509C129.905 67.1648 131.633 66.8654 132.693 66.2664C133.752 65.6674 134.282 64.7001 134.282 63.364C134.282 61.9817 133.741 60.9904 132.658 60.3914C131.576 59.7924 129.859 59.4929 127.509 59.4929H109.331V67.1648Z"
    fill="white" />
  <path
    d="M312.284 57.1419C312.666 54.7997 312.857 52.4048 312.857 49.9574C312.857 49.3039 312.841 48.6668 312.814 48.0276C312.814 47.8002 312.798 47.5872 312.77 47.3598C312.754 46.8148 312.711 46.2822 312.667 45.7496C312.654 45.5529 312.622 45.3398 312.594 45.1288C312.549 44.6413 312.492 44.1394 312.419 43.6538L312.419 43.6527C312.373 43.3192 312.33 43 312.271 42.6828C312.111 41.5724 311.892 40.4949 311.627 39.4173C311.556 39.067 311.467 38.7331 311.378 38.3848L311.346 38.2642C311.225 37.8171 311.104 37.3716 310.97 36.9262C310.851 36.5451 310.734 36.1805 310.618 35.8322C310.484 35.3938 310.338 34.9636 310.18 34.5416C309.989 33.9803 309.785 33.4333 309.548 32.8863C309.36 32.4001 309.151 31.9139 308.921 31.4277C308.776 31.0958 308.625 30.7722 308.467 30.4567C308.261 29.9855 308.026 29.5287 307.78 29.0575C307.574 28.6641 307.369 28.2831 307.148 27.9061C306.536 26.7651 305.845 25.6568 305.115 24.6079C305.101 24.5935 305.101 24.6079 305.101 24.6079V24.5935C304.807 24.1531 304.485 23.7126 304.179 23.2886C303.235 21.9874 302.213 20.7489 301.119 19.5806C300.402 18.7912 299.656 18.0318 298.88 17.3025H298.865C298.086 16.5582 297.285 15.8596 296.464 15.2068C293.366 12.6715 289.93 10.6152 286.264 9.10193C281.376 7.03488 276.021 5.91224 270.414 5.91224C264.971 5.89835 259.577 6.98669 254.535 9.11627C246.895 12.3099 240.319 17.7462 235.611 24.7595C230.617 32.1379 227.948 40.9407 227.971 49.9574C227.971 52.3021 228.147 54.6433 228.498 56.9596C229.511 63.5218 231.948 69.7593 235.625 75.2004C236.378 76.3109 237.179 77.3854 238.025 78.4208C238.495 78.9904 238.989 79.523 239.478 80.0597H239.474L239.504 80.0905C239.721 80.3281 239.924 80.5883 240.147 80.8198C240.297 80.9573 240.443 81.0987 240.586 81.2438C240.6 81.2746 240.631 81.3053 240.659 81.334C240.821 81.5183 240.996 81.6843 241.186 81.8666C241.358 82.0473 241.539 82.2196 241.727 82.3829C241.739 82.4101 241.76 82.432 241.786 82.4443C241.802 82.4587 241.816 82.4894 241.845 82.5037C241.89 82.5427 241.934 82.5837 241.975 82.6266C241.992 82.6454 242.012 82.6607 242.035 82.6717L242.459 83.0671C242.637 83.2377 242.823 83.3997 243.016 83.5526C243.382 83.8845 243.762 84.2089 244.157 84.5257C244.202 84.5687 244.232 84.6015 244.273 84.6302C244.714 84.9826 245.168 85.3452 245.635 85.6791C246.178 86.0888 246.747 86.4985 247.319 86.8796C247.436 86.9554 247.552 87.0455 247.671 87.1213C248.081 87.3958 248.49 87.6376 248.901 87.8977C249.266 88.1237 249.637 88.3409 250.012 88.5492C250.341 88.7428 250.672 88.9306 251.007 89.1126C251.753 89.5059 252.499 89.8869 253.261 90.2352C253.819 90.492 254.385 90.7398 254.959 90.9788C255.11 91.0539 255.266 91.1156 255.427 91.1632L256.26 91.4808C256.597 91.6185 256.939 91.7402 257.286 91.8454C257.641 91.9642 257.987 92.0762 258.325 92.1814C258.707 92.3043 259.087 92.4204 259.466 92.5296C259.747 92.6065 260.03 92.6768 260.315 92.7406C261.003 92.9223 261.691 93.0793 262.378 93.2118C262.811 93.3003 263.245 93.3816 263.681 93.4556C263.844 93.4863 264.018 93.5007 264.18 93.5314C264.75 93.6216 265.32 93.6973 265.892 93.7588C265.949 93.7588 266.008 93.7752 266.067 93.7752C266.754 93.8455 267.441 93.9008 268.13 93.9411H268.233C271.649 94.1243 275.075 93.8801 278.435 93.2139C289.425 91.0403 298.924 84.4479 305.128 75.2906V75.2762C308.816 69.8775 311.264 63.6743 312.284 57.1419Z"
    fill="#D6D6D6" stroke="#7E7E7E" stroke-width="3" stroke-linecap="round" stroke-linejoin="round" />
  <path
    d="M312.284 57.1419C312.666 54.7997 312.857 52.4048 312.857 49.9574C312.857 49.3039 312.841 48.6668 312.814 48.0276C312.814 47.8002 312.798 47.5872 312.77 47.3598C312.754 46.8148 312.711 46.2822 312.667 45.7496C312.654 45.5529 312.622 45.3398 312.594 45.1288C312.549 44.6413 312.492 44.1394 312.419 43.6538L312.419 43.6527C312.373 43.3192 312.33 43 312.271 42.6828C312.111 41.5724 311.892 40.4949 311.627 39.4173C311.556 39.067 311.467 38.7331 311.378 38.3848L311.346 38.2642C311.225 37.8171 311.104 37.3716 310.97 36.9262C310.851 36.5451 310.734 36.1805 310.618 35.8322C310.484 35.3938 310.338 34.9636 310.18 34.5416C309.989 33.9803 309.785 33.4333 309.548 32.8863C309.36 32.4001 309.151 31.9139 308.921 31.4277C308.776 31.0958 308.625 30.7722 308.467 30.4567C308.261 29.9855 308.026 29.5287 307.78 29.0575C307.574 28.6641 307.369 28.2831 307.148 27.9061C306.536 26.7651 305.845 25.6568 305.115 24.6079C305.101 24.5935 305.101 24.6079 305.101 24.6079V24.5935C304.807 24.1531 304.485 23.7126 304.179 23.2886C303.235 21.9874 302.213 20.7489 301.119 19.5806C300.402 18.7912 299.656 18.0318 298.88 17.3025H298.865C298.086 16.5582 297.285 15.8596 296.464 15.2068C293.366 12.6715 289.93 10.6152 286.264 9.10193C281.376 7.03488 276.021 5.91224 270.414 5.91224C264.971 5.89835 259.577 6.98669 254.535 9.11627C246.895 12.3099 240.319 17.7462 235.611 24.7595C230.617 32.1379 227.948 40.9407 227.971 49.9574C227.971 52.3021 228.147 54.6433 228.498 56.9596C229.511 63.5218 231.948 69.7593 235.625 75.2004C236.378 76.3109 237.179 77.3854 238.025 78.4208C238.495 78.9904 238.989 79.523 239.478 80.0597H239.474L239.504 80.0905C239.721 80.3281 239.924 80.5883 240.147 80.8198C240.297 80.9573 240.443 81.0987 240.586 81.2438C240.6 81.2746 240.631 81.3053 240.659 81.334C240.821 81.5183 240.996 81.6843 241.186 81.8666C241.358 82.0473 241.539 82.2196 241.727 82.3829C241.739 82.4101 241.76 82.432 241.786 82.4443C241.802 82.4587 241.816 82.4894 241.845 82.5037C241.89 82.5427 241.934 82.5837 241.975 82.6266C241.992 82.6454 242.012 82.6607 242.035 82.6717L242.459 83.0671C242.637 83.2377 242.823 83.3997 243.016 83.5526C243.382 83.8845 243.762 84.2089 244.157 84.5257C244.202 84.5687 244.232 84.6015 244.273 84.6302C244.714 84.9826 245.168 85.3452 245.635 85.6791C246.178 86.0888 246.747 86.4985 247.319 86.8796C247.436 86.9554 247.552 87.0455 247.671 87.1213C248.081 87.3958 248.49 87.6376 248.901 87.8977C249.266 88.1237 249.637 88.3409 250.012 88.5492C250.341 88.7428 250.672 88.9306 251.007 89.1126C251.753 89.5059 252.499 89.8869 253.261 90.2352C253.819 90.492 254.385 90.7398 254.959 90.9788C255.11 91.0539 255.266 91.1156 255.427 91.1632L256.26 91.4808C256.597 91.6185 256.939 91.7402 257.286 91.8454C257.641 91.9642 257.987 92.0762 258.325 92.1814C258.707 92.3043 259.087 92.4204 259.466 92.5296C259.747 92.6065 260.03 92.6768 260.315 92.7406C261.003 92.9223 261.691 93.0793 262.378 93.2118C262.811 93.3003 263.245 93.3816 263.681 93.4556C263.844 93.4863 264.018 93.5007 264.18 93.5314C264.75 93.6216 265.32 93.6973 265.892 93.7588C265.949 93.7588 266.008 93.7752 266.067 93.7752C266.754 93.8455 267.441 93.9008 268.13 93.9411H268.233C271.649 94.1243 275.075 93.8801 278.435 93.2139C289.425 91.0403 298.924 84.4479 305.128 75.2906V75.2762C308.816 69.8775 311.264 63.6743 312.284 57.1419Z"
    fill="#D6D6D6" stroke="black" stroke-width="2" stroke-linecap="round" stroke-linejoin="round" />
  <path
    d="M255.84 44.0413C256.131 43.143 256.684 42.3608 257.424 41.8045L266.432 35.0113C267.181 34.4443 268.085 34.1388 269.013 34.1388C269.013 34.1388 269.014 34.1388 269.014 34.1388C269.941 34.1391 270.845 34.4446 271.594 35.0113L280.604 41.8025C281.332 42.3503 281.88 43.1171 282.174 43.9983C282.183 44.0255 282.192 44.0529 282.201 44.0803C282.487 44.9959 282.487 45.9822 282.199 46.8974L278.758 57.8882C278.468 58.8126 277.913 59.5897 277.197 60.1406C276.458 60.7092 275.547 61.0369 274.581 61.0369H263.445C262.517 61.0381 261.614 60.7338 260.863 60.168C260.845 60.154 260.826 60.1398 260.808 60.1254L253.52 77.2788C254.17 77.7621 254.719 78.3775 255.135 79.0887L259.261 86.0601L262.466 91.4971C262.788 92.0441 262.38 93.2118 262.38 93.2118C255.135 91.8676 251.796 89.9798 247.315 86.8796C242.731 83.803 238.762 79.8375 235.625 75.2004C235.771 74.9358 235.989 74.7222 236.253 74.5868C236.516 74.4515 236.812 74.4005 237.103 74.4404L250.774 76.1715C251.667 76.2824 252.523 76.6027 253.279 77.1081C253.361 77.163 253.441 77.2199 253.52 77.2788L260.808 60.1254C260.085 59.5625 259.548 58.7812 259.27 57.8882L255.829 46.8974C255.541 45.9825 255.541 44.9966 255.828 44.0815C255.832 44.0681 255.836 44.0547 255.84 44.0413Z"
    fill="black" />
  <path
    d="M273.15 16.9993L285.459 10.7429C285.748 10.6002 285.984 10.3601 286.13 10.0636C286.276 9.76718 286.323 9.42905 286.264 9.10193C281.376 7.03693 276.021 5.91224 270.414 5.91224C264.971 5.89835 259.577 6.98669 254.535 9.11627C254.476 9.4515 254.525 9.7973 254.673 10.1015C254.82 10.4056 255.059 10.6516 255.354 10.8023L267.954 17.0301C268.726 17.4027 269.564 17.6043 270.414 17.6221C271.36 17.6368 272.297 17.4237 273.15 16.9993Z"
    fill="black" />
  <path
    d="M238.758 45.3706C239.309 44.6517 239.704 43.8171 239.915 42.9245C240.134 42.0149 240.147 41.0562 239.942 40.1302L236.898 25.96C236.768 25.2921 236.225 24.8373 235.611 24.7595C230.617 32.1379 227.948 40.9407 227.971 49.9574C227.968 52.3023 228.144 54.6437 228.498 56.9596C228.786 57.0556 229.096 57.0591 229.386 56.9696C229.676 56.88 229.933 56.7015 230.123 56.4577L238.758 45.3706Z"
    fill="black" />
  <path
    d="M305.128 75.2906V75.2762C304.987 74.9975 304.767 74.7679 304.498 74.6216C304.229 74.4753 303.924 74.4171 303.622 74.4547L289.997 76.1879C289.106 76.3043 288.252 76.6267 287.498 77.1312C286.743 77.6358 286.107 78.3096 285.636 79.103L278.332 91.4664C278.176 91.7339 278.102 92.0445 278.12 92.3568C278.139 92.6691 278.248 92.9681 278.435 93.2139C289.425 91.0403 298.924 84.4479 305.128 75.2906Z"
    fill="black" />
  <path
    d="M311.48 57.093C311.739 57.1871 312.017 57.2041 312.284 57.1419C313.244 51.2517 313.225 46.1428 311.627 39.4173C310.16 33.2457 308.184 29.0009 305.115 24.6099C305.105 24.599 305.101 24.599 305.101 24.6099C304.824 24.6701 304.57 24.8126 304.369 25.0199C304.169 25.2272 304.031 25.4904 303.972 25.7776L302.452 32.9007V32.9171L300.9 40.1302C300.699 41.0386 300.701 41.9825 300.903 42.8904C301.106 43.7982 301.505 44.6464 302.071 45.3706L303.139 46.737L310.824 56.6093C310.995 56.8312 311.222 56.9988 311.48 57.093Z"
    fill="black" />
  <path
    d="M270.414 17.6262L269.014 34.1406M282.169 43.9986L300.874 42.859M277.196 60.1396L287.447 77.163M260.81 60.1212L253.52 77.2788M255.845 44.0416L239.917 42.9307M257.424 41.8045C256.673 42.3691 256.114 43.1663 255.828 44.0815C255.541 44.9966 255.541 45.9825 255.829 46.8974L259.27 57.8882C259.555 58.804 260.113 59.6022 260.863 60.168C261.614 60.7338 262.517 61.0381 263.445 61.0369H274.581C276.484 61.0369 278.17 59.7668 278.758 57.8882L282.199 46.8974C282.487 45.9822 282.487 44.9959 282.201 44.0803C281.914 43.1648 281.355 42.3672 280.604 41.8025L271.594 35.0113C270.844 34.4443 269.941 34.1388 269.013 34.1388C268.085 34.1388 267.181 34.4443 266.432 35.0113L257.424 41.8045ZM285.459 10.7429L273.15 16.9993C272.297 17.4237 271.36 17.6368 270.414 17.6221C269.564 17.6043 268.726 17.4027 267.954 17.0301L255.354 10.8023C255.059 10.6516 254.82 10.4056 254.673 10.1015C254.525 9.7973 254.476 9.4515 254.535 9.11627C259.577 6.98669 264.971 5.89835 270.414 5.91224C276.021 5.91224 281.376 7.03693 286.264 9.10193C286.323 9.42905 286.276 9.76718 286.13 10.0636C285.984 10.3601 285.748 10.6002 285.459 10.7429ZM247.315 86.8796C242.731 83.803 238.762 79.8375 235.625 75.2004C235.771 74.9358 235.989 74.7222 236.253 74.5868C236.516 74.4515 236.812 74.4005 237.103 74.4404L250.774 76.1715C251.667 76.2824 252.523 76.6027 253.279 77.1081C254.034 77.6136 254.669 78.2909 255.135 79.0887L259.261 86.0601L262.466 91.4971C262.788 92.0441 262.38 93.2118 262.38 93.2118C255.135 91.8676 251.796 89.9798 247.315 86.8796ZM239.915 42.9245C239.704 43.8171 239.309 44.6517 238.758 45.3706L230.123 56.4577C229.933 56.7016 229.676 56.88 229.386 56.9696C229.096 57.0591 228.786 57.0556 228.498 56.9596C228.144 54.6437 227.968 52.3023 227.971 49.9574C227.948 40.9407 230.617 32.1379 235.611 24.7595C236.225 24.8373 236.768 25.2921 236.898 25.96L239.942 40.1302C240.147 41.0562 240.134 42.0149 239.915 42.9245ZM305.128 75.2762V75.2906C298.924 84.4479 289.425 91.0403 278.435 93.2139C278.248 92.9681 278.139 92.6691 278.12 92.3568C278.102 92.0445 278.176 91.7339 278.332 91.4664L285.636 79.103C286.107 78.3096 286.743 77.6358 287.498 77.1312C288.252 76.6267 289.106 76.3043 289.997 76.1879L303.622 74.4547C303.924 74.4171 304.229 74.4753 304.498 74.6216C304.767 74.7679 304.987 74.9975 305.128 75.2762ZM312.284 57.1419C312.017 57.2041 311.739 57.1871 311.48 57.093C311.222 56.9988 310.995 56.8312 310.824 56.6093L303.139 46.737L302.071 45.3706C301.505 44.6464 301.106 43.7982 300.903 42.8904C300.701 41.9825 300.699 41.0386 300.9 40.1302L302.452 32.9171V32.9007L303.972 25.7776C304.031 25.4904 304.169 25.2272 304.369 25.0199C304.57 24.8126 304.824 24.6701 305.101 24.6099C305.101 24.599 305.105 24.599 305.115 24.6099C308.184 29.0009 310.16 33.2457 311.627 39.4173C313.225 46.1428 313.244 51.2517 312.284 57.1419Z"
    stroke="black" stroke-width="2" stroke-linecap="round" stroke-linejoin="round" />
  <g id="fire">
    <path
      d="M317.133 26.6719C323.356 35.0041 322.638 43.1719 313.917 51.3564H316.547C311.027 55.8351 305.473 57.3933 300.508 58.2743C299.559 58.4427 299.008 58.3848 298.165 58.2743L298.057 58.2601C294.564 57.8031 286.706 56.7748 281.504 49.4717C282.478 49.8695 284.405 50.737 285.282 50.737C278.147 42.9268 277.561 35.8127 284.299 25.9624C284.299 30.563 287.018 34.8243 289.104 32.8941C291.623 30.563 289.104 24.4423 294.026 15.6865C295.275 15.8043 297.635 15.4011 298.244 13.6193C299.533 9.8494 297.372 5.27004 297.372 2.71631C305.02 7.61855 315.326 13.6193 312.817 26.6719C312.201 29.8768 317.133 32.8941 317.133 26.6719Z"
      fill="#FB3702" />
    <path
      d="M317.056 31.3664C317.056 35.5176 314.621 38.6646 314.621 41.9701C315.507 42.6819 316.604 42.7489 318.024 41.2758C313.12 53.3032 305.571 56.3263 300.509 58.2742C299.56 58.4426 298.978 58.5336 298.165 58.2742C295.993 57.5807 287.528 55.0485 285.282 51.7045C286.256 52.1024 287.118 52.1024 287.996 52.1024C285.764 50.114 281.183 39.8698 283.441 28.7551C284.742 34.1405 287.832 36.2967 290.216 34.6472C293.451 32.4087 290.676 26.0538 294.99 18.0422C296.239 18.16 298.154 17.9638 299.055 16.2344C301.398 12.5821 300.509 8.86334 299.522 6.27148C307.765 12.0162 311.056 19.85 311.056 30.5629C311.056 32.7815 313.83 33.7768 317.056 31.3664Z"
      fill="#FF733D" />
    <path
      d="M313.574 35.0017C313.971 40.285 312.149 42.0924 312.813 43.7884C313.319 45.0828 314.009 44.8394 315.416 44.2683C311.991 52.3914 305.57 56.3261 300.508 58.274C299.559 58.4424 298.977 58.5333 298.164 58.274C295.992 57.5805 290.53 54.153 288.284 50.809C286.038 47.465 285.084 44.2683 284.229 37.6173C285.67 39.8492 289.619 40.6165 291.233 39.0245C293.206 37.0786 292.764 31.5225 293.844 28.6566C296.069 22.7563 300.508 19.5355 301.543 13.2808C311.187 19.9904 305.7 31.8074 308.118 35.0017C309.439 36.7462 311.533 36.3724 313.574 35.0017Z"
      fill="#FF8E12" />
    <path
      d="M311.187 38.5274C311.187 38.5274 309.208 43.6193 309.872 45.3152C311.668 49.9063 305.16 56.268 300.507 58.2744C299.558 58.4428 298.977 58.5337 298.164 58.2744C295.992 57.5809 292.609 54.7995 291.79 51.7192C290.971 48.6388 287.845 42.8488 287.845 42.8488C289.598 43.986 291.162 44.4408 292.776 42.8488C294.75 40.9029 294.545 37.0721 295.626 34.2061C297.851 28.3058 300.235 26.5453 303.085 22.2239C306.81 28.0237 302.741 34.4233 305.16 37.6177C306.481 39.3622 309.146 39.8981 311.187 38.5274Z"
      fill="#FFCA51" />
    <path
      d="M308.911 49.3791C307.273 52.6719 304.51 56.0178 300.507 58.2744C299.558 58.4428 298.976 58.5338 298.164 58.2744C295.992 57.581 294.223 55.7522 293.404 52.6719C292.585 49.5915 290.911 45.3154 290.911 45.3154C292.068 45.78 292.696 46.7706 293.933 45.3152C295.735 43.197 295.704 39.334 296.785 36.468C297.865 33.6021 299.126 31.7723 302.787 28.4414C301.373 33.4377 301.466 37.7203 302.787 39.4648C304.107 41.2093 306.06 42.1248 308.101 40.7541C308.101 40.7541 306.928 43.6193 307.591 45.3152C307.998 46.3543 309.733 47.7266 308.911 49.3791Z"
      fill="#FDFA9E" />
    <path
      d="M305.299 51.5943C304.763 54.2982 303.064 56.3816 300.852 57.3201C300.005 57.6792 299.222 57.7023 298.385 57.3201C296.672 56.538 296.02 55.1416 295.44 52.9602C294.953 51.126 295.097 48.769 296.372 47.2689C297.648 45.7688 297.594 44.5709 297.594 42.3915C297.594 40.8945 298.237 39.4719 299.444 38.6182C299.444 41.0085 300.595 43.0574 301.844 44.5137C304.079 47.1198 304.167 46.1992 304.763 47.7243C305.051 48.4601 305.554 50.3076 305.299 51.5943Z"
      fill="#FFFFE4" />
  </g>
</svg>