<svg viewBox="0 0 999 79" fill="none" xmlns="http://www.w3.org/2000/svg">
<path d="M36.8628 40.4053H12.2878C5.50107 40.4053 0 45.9495 0 52.7885V65.1717C0 72.011 5.50107 77.5552 12.2878 77.5552H36.8628C43.6493 77.5552 49.1504 72.011 49.1504 65.1717C49.1504 58.3327 43.6493 52.7885 36.8628 52.7885H49.1504C49.1504 45.9495 43.6493 40.4053 36.8628 40.4053ZM36.8628 1.13361H12.2878C5.50107 1.13361 0 6.6778 0 13.5168H12.2878C5.50107 13.5168 0 19.0607 0 25.9V38.2835H49.1504V25.9H36.8628C43.6493 25.9 49.1504 20.3558 49.1504 13.5168C49.1504 6.6778 43.6493 1.13361 36.8628 1.13361Z" fill="white"/>
<path d="M48.0945 76.2285H47.8864V77.5549H48.0945V77.0267H49.1504V76.7588H48.0945V76.2285Z" fill="black"/>
<path d="M49.1505 74.3152H48.0018C47.9658 74.3152 47.9375 74.3248 47.9173 74.3443C47.8966 74.3637 47.8865 74.3916 47.8865 74.4277V74.7235L48.887 75.1913L47.8865 75.6603V75.9547C47.8865 75.9898 47.8966 76.0171 47.9173 76.038C47.9375 76.0584 47.9658 76.0688 48.0018 76.0688H49.1505V75.8085H48.0949L49.1505 75.3212V75.0646L48.0949 74.5756H49.1505V74.3152Z" fill="black"/>
<path d="M13.7554 64.6826V72.405H16.1281V69.6161H17.836L18.4433 67.9285H16.1281V66.3652H19.0038L19.609 64.6826H13.7554Z" fill="black"/>
<path d="M20.3347 64.6826L20.335 72.405H22.7074V64.6826H20.3347Z" fill="black"/>
<path d="M24.3398 64.6826V72.405H26.7126V69.6161H28.4204L29.0278 67.9285H26.7126V66.3652H29.5883L30.1935 64.6826H24.3398Z" fill="black"/>
<path d="M32.9399 66.6671L33.888 69.8838H32.0229L32.9399 66.6671ZM31.7439 64.6825L28.9668 72.4055H31.3028L31.5993 71.3679H34.2807L34.5906 72.4055H36.9868L34.2106 64.6825H31.7439Z" fill="black"/>
<path d="M15.755 59.5445C16.6788 57.807 17.4807 55.8301 18.1457 53.6604C18.8029 51.5159 19.3026 49.2531 19.5855 47.1865C19.8695 45.1116 19.8217 41.4867 19.4931 39.6386C19.2409 38.2199 18.9144 36.9676 18.3544 35.4684C17.7718 33.9087 17.0233 32.2957 15.8455 29.9016C14.6626 27.4973 13.9174 25.7709 13.3547 24.0989C12.8014 22.455 12.4514 20.93 12.1346 19.0736C11.7707 16.9406 11.8316 15.0302 12.375 13.3408C12.9205 11.6445 13.9458 10.1786 15.4885 8.87433C17.2826 7.35762 19.2725 6.41274 21.6583 5.90123C23.7126 5.46081 26.323 5.5335 28.605 6.08862C30.2071 6.47836 31.7731 7.1929 33.1077 8.11695C34.4514 9.04725 35.5713 10.1968 36.3254 11.4817C37.7314 13.8773 38.0142 16.121 37.3691 19.5632C37.0479 21.2769 36.6239 22.8313 35.9081 24.6551C35.1282 26.6421 34.2393 28.4108 32.6615 31.5047C31.8106 33.1732 31.2366 34.4518 30.8168 35.6218C30.3982 36.7884 30.1296 37.857 29.8943 39.1429C29.4942 41.3288 29.4414 43.7407 29.7393 46.3531C30.036 48.9554 30.6843 51.774 31.6783 54.6399C31.937 55.3857 32.3835 56.4901 32.8458 57.5385C33.305 58.5794 33.7577 59.5153 34.0141 59.9542C34.1165 60.1293 34.3211 60.4778 34.3211 60.4778C31.1428 60.4778 24.7881 60.4778 24.7881 60.4778C21.6098 60.4778 15.2551 60.4778 15.2551 60.4778C15.4222 60.1677 15.5884 59.8577 15.755 59.5445Z" fill="#F6DC32"/>
<path d="M15.3721 60.428C15.3721 60.4005 15.6115 59.9187 15.9026 59.3497C16.4154 58.3474 17.0651 56.8626 17.7401 55.0649C17.9387 54.5362 18.2658 53.4184 18.5856 52.1952C18.9025 50.9831 19.2004 49.713 19.3289 49.0001C19.8204 46.2727 19.928 43.7009 19.6636 41.2439C19.3979 38.7746 18.7625 36.449 17.7778 34.1386C17.4663 33.4079 16.7526 31.6529 15.8569 29.8165C14.8285 27.7081 14.1687 26.3644 13.6468 25.0711C13.1373 23.8088 12.7968 22.6765 12.4883 21.1491C12.336 20.3949 12.2789 19.7157 12.316 19.678C12.3532 19.6403 12.3835 19.6684 12.3833 19.7405C12.3825 20.0934 13.2116 21.5998 13.7711 22.2153C14.4754 22.9902 15.5557 23.8248 15.7407 23.777C15.8019 23.7612 16.026 23.5601 16.2389 23.333C16.8585 22.672 17.3502 22.3944 18.2683 22.194C20.0651 21.8017 21.3559 22.6713 21.204 24.0428C21.1771 24.2856 21.1645 24.4842 21.1759 24.4824C21.2582 24.4692 21.8949 23.4189 22.4146 22.4811C24.0579 19.5156 26.3052 17.5075 29.3321 15.9916C30.2214 15.5462 31.3548 15.0549 32.4721 14.5933C33.544 14.1505 34.744 13.6756 35.5427 13.4028C37.1447 12.8556 37.0494 12.7863 37.3902 14.0229C37.7711 15.4052 37.7693 17.2059 37.3809 19.3514C37.0911 20.9525 36.6938 22.45 36.0702 24.1179C35.4228 25.8495 34.6152 27.5647 33.3814 29.9805C32.3643 31.9719 31.7916 33.1564 31.3937 34.068C31.0053 34.9578 30.7927 35.5706 30.5407 36.3895C29.7187 39.0616 29.567 40.1964 29.5768 43.2679C29.5819 44.8659 29.6555 46.4017 29.7553 46.9975C30.1731 49.4911 30.5782 51.245 31.3723 53.8459C31.544 54.4082 31.989 55.5558 32.4734 56.7003C32.9607 57.852 33.4603 58.9365 33.759 59.5027C34.0109 59.98 34.3182 60.4023 34.3182 60.4292C34.3182 60.4561 29.9543 60.478 24.7799 60.478C19.6056 60.478 15.3721 60.4555 15.3721 60.428Z" fill="#F5C712"/>
<path d="M16.907 57.1885C16.9069 57.1683 16.9976 56.9101 17.1082 56.612C17.1753 56.4314 17.3091 56.0678 17.3091 56.0678C18.6864 56.0333 20.2689 55.9965 21.9596 55.9748C23.5114 55.9549 24.7532 55.9549 24.7532 55.9549C26.1748 55.9531 27.6791 55.9644 29.4102 55.995C30.9621 56.0225 32.2027 56.0556 32.2027 56.0556C32.2605 56.2025 32.3761 56.4945 32.3761 56.4945C32.4733 56.7397 32.5745 56.9908 32.6094 57.0748C32.6571 57.1893 31.04 57.1501 24.7866 57.154C20.4502 57.1568 16.9072 57.2087 16.907 57.1885ZM18.4122 52.9085C18.4119 52.8803 18.5518 52.3468 18.7227 51.7143C19.1484 50.1391 19.5836 47.6251 19.7525 45.8087C19.8811 44.4243 19.8114 41.4735 19.6195 40.0335C19.4943 39.0934 19.8976 40.6672 20.3448 42.9515C20.6664 44.5941 20.8953 46.4767 20.9982 48.0678C21.1011 49.6596 21.0768 50.9404 20.8953 51.4166C20.864 51.4987 20.9959 51.5352 21.6532 51.5327C22.3105 51.5301 23.4938 51.4766 25.5664 51.4924C28.1771 51.5124 30.3105 51.6381 30.3104 51.5971C30.3103 51.5561 30.0192 51.2032 29.6628 50.8089C28.4349 49.4502 27.2804 47.4628 26.2227 44.995C25.1744 42.5491 24.232 39.6513 23.4916 36.6546C23.1556 35.2945 23.1174 34.935 23.1077 32.7412C23.0987 30.7137 23.1433 30.1931 23.405 29.1114C23.9397 26.9013 25.0027 24.6803 26.468 22.7186C27.9458 20.7404 29.7486 19.1241 31.8244 17.6644C32.2112 17.3924 32.5041 17.1439 32.476 17.118C32.4479 17.0922 32.0677 17.1808 31.6303 17.3131C30.4949 17.6565 29.1247 18.2375 27.6515 19.0767C26.1732 19.9189 24.4438 21.1028 22.5773 22.8304C22.2688 23.1159 22.0171 23.3169 22.0176 23.266C22.0185 23.1701 22.2832 22.6699 22.6297 22.0991C22.9829 21.517 23.3974 20.8988 23.7303 20.4705C24.7592 19.1467 25.8878 18.0995 27.2733 17.1829C28.6961 16.2418 30.2776 15.5025 32.3971 14.6179C33.2158 14.2763 34.9207 13.6153 35.5428 13.4028C37.1448 12.8556 37.0495 12.7863 37.3903 14.0229C37.7712 15.4052 37.7694 17.2059 37.381 19.3514C37.0912 20.9525 36.6939 22.45 36.0703 24.1179C35.4229 25.8495 34.6153 27.5647 33.3815 29.9805C32.3644 31.9719 31.7917 33.1564 31.3938 34.068C31.0054 34.9578 30.7928 35.5705 30.5409 36.3895C29.7279 39.032 29.5694 40.2024 29.5753 43.2062C29.5785 44.8208 29.6513 46.3055 29.7611 46.9981C30.0233 48.6522 30.525 50.9781 30.8292 51.9504C30.9721 52.4074 31.0889 52.8123 31.089 52.8549C31.0891 52.8974 28.2366 52.7385 24.7467 52.7484C22.9714 52.7535 21.4467 52.8028 20.2695 52.8473C19.1223 52.8907 18.4124 52.9225 18.4122 52.9085ZM19.4324 39.2331C19.4309 39.0696 19.4597 38.9965 19.4964 39.0709C19.5331 39.1453 19.5343 39.2793 19.4991 39.3686C19.4639 39.4579 19.4339 39.3968 19.4324 39.2331ZM16.9549 27.873C15.3226 28.0125 14.3425 26.5712 15.0597 25.0531C15.403 24.3262 15.5689 24.257 15.4212 24.8625C15.2432 25.5921 15.5306 26.222 16.0842 26.5929C16.6412 26.9661 17.4625 27.0776 18.3667 26.8347C18.8197 26.713 19.8397 26.1404 20.2177 25.7988C20.4648 25.5755 20.459 25.5872 20.2517 25.947C20.0481 26.3004 19.4872 26.8213 18.9195 27.201C18.5472 27.45 17.4359 27.8319 16.9549 27.873Z" fill="#DDC327"/>
<path d="M16.9728 56.9673C17.0207 56.8267 17.1095 56.5889 17.1671 56.4467C17.2025 56.3595 17.2731 56.1847 17.2731 56.1847C18.6512 56.1517 20.2358 56.1164 21.9274 56.0955C23.4804 56.0763 24.7232 56.0761 24.7232 56.0761C26.1457 56.0743 27.6515 56.0848 29.3839 56.1139C30.937 56.14 32.1787 56.1716 32.1787 56.1716C32.2477 56.329 32.3858 56.6417 32.3858 56.6417C32.4997 56.8993 32.5928 57.1329 32.5928 57.1632C32.5928 57.1934 29.0584 57.1511 24.7369 57.1544C22.1172 57.1563 16.8846 57.2258 16.8846 57.2258C16.8846 57.2259 16.9729 56.9672 16.9728 56.9673ZM18.4619 52.6272C18.6734 52.1066 18.8983 50.9657 19.0976 49.645C19.296 48.3297 19.4677 46.8451 19.5703 45.6992C19.6906 44.3544 19.7881 41.179 19.606 39.9764C19.4603 39.0137 19.9312 40.9153 20.3293 42.954C20.6692 44.6946 20.9003 46.6375 20.9924 48.242C21.0846 49.8478 21.0368 51.0969 20.823 51.5001C20.7619 51.6151 20.7366 52.0134 21.3065 52.3635C21.8915 52.7228 23.032 53.0068 25.3813 53.0155C26.7072 53.0205 28.0178 52.741 28.9539 52.4504C29.8965 52.1577 30.4845 51.8453 30.397 51.7432C30.3771 51.7201 30.0711 51.3211 29.6721 50.8687C28.396 49.4218 27.2336 47.4304 26.1818 44.9806C25.1376 42.5485 24.2135 39.6855 23.467 36.6565C23.1319 35.2967 23.0938 34.9372 23.0841 32.7436C23.0751 30.7162 23.1196 30.1955 23.3806 29.1135C23.9256 26.8534 24.9882 24.629 26.4846 22.6511C28.0041 20.6425 29.8527 19.0234 32.0832 17.4292C32.3704 17.224 32.6016 17.1226 32.601 17.206C32.6005 17.2889 32.5092 17.8862 32.3979 18.5302C32.1325 20.0666 32.0947 22.0513 32.3241 22.7514C32.5283 23.3748 32.948 23.7739 33.3423 23.7067C34.0685 23.5828 34.9662 22.8007 36.0991 21.135C37.2299 19.4722 37.2692 19.3905 37.1855 19.9577C36.9845 21.3214 36.647 22.788 35.9551 24.6378C35.2056 26.6413 34.2661 28.5622 32.5648 31.7576C31.4714 33.8114 30.7742 35.5267 30.331 37.1997C29.8891 38.868 29.7039 40.481 29.6371 42.3817C29.5615 44.5333 29.7129 46.3866 30.1498 48.7473C30.3877 50.0326 30.8155 52.0747 31.0344 52.6091C31.0826 52.7268 30.936 52.7534 29.7009 52.719C29.1222 52.7029 26.9331 52.6164 24.7185 52.6235C21.7176 52.6331 20.1342 52.7414 19.3102 52.7583C18.4862 52.7751 18.4205 52.729 18.4619 52.6272ZM19.4085 39.1688C19.4135 39.029 19.4439 38.9944 19.486 39.0808C19.5241 39.159 19.5204 39.2627 19.4778 39.3111C19.4353 39.3594 19.4041 39.2954 19.4085 39.1688ZM16.9489 27.875C15.3211 28.0133 14.3438 26.571 15.059 25.0535C15.4014 24.3269 15.5668 24.2578 15.4195 24.8632C15.242 25.5927 15.5286 26.2229 16.0806 26.5942C16.636 26.9678 17.455 27.0801 18.3567 26.8376C18.8085 26.7161 19.8252 26.1439 20.2024 25.8022C20.4488 25.5789 20.443 25.5905 20.2362 25.9504C20.0332 26.3038 19.4739 26.8247 18.9079 27.2042C18.5365 27.4532 17.4286 27.8343 16.9489 27.875Z" fill="#E1B50B"/>
<path d="M16.9887 56.8913C17.1063 56.5917 17.1146 56.5899 17.1731 56.446C17.2941 56.1123 17.535 55.4372 17.535 55.4372C18.8806 55.4117 20.4082 55.3876 22.0593 55.3834C23.5692 55.3795 24.7776 55.3954 24.7776 55.3954C26.134 55.3637 27.5872 55.3443 29.2404 55.3443C30.7276 55.3443 31.9165 55.3593 31.9165 55.3593C32.0893 55.7915 32.4342 56.6421 32.4342 56.6421C32.5404 56.9028 32.6418 57.1331 32.6418 57.1634C32.6418 57.1936 29.0975 57.1508 24.764 57.1538C22.1261 57.1556 16.8571 57.2257 16.8571 57.2257C16.901 57.1145 16.9449 57.0031 16.9887 56.8913ZM18.2548 53.2919C18.2997 53.1779 18.5676 52.3277 18.6112 52.1547C18.6434 51.9737 18.7077 51.6105 18.7077 51.6105C19.8408 51.5201 21.1324 51.4301 22.5262 51.3735C23.8019 51.3216 24.8234 51.3153 24.8234 51.3153C25.934 51.2881 27.1403 51.2843 28.4949 51.3191C29.7182 51.3505 30.6954 51.4038 30.6954 51.4038C30.7584 51.6425 30.8842 52.1175 30.8842 52.1175C30.9292 52.2868 31.1401 53.0111 31.1851 53.1223C31.2211 53.211 31.0477 53.25 30.1441 53.2384C29.2405 53.2268 27.6057 53.145 24.7185 53.1534C22.1152 53.1609 19.914 53.3019 19.2962 53.3355C18.3937 53.3845 18.22 53.38 18.2548 53.2919Z" fill="#006836"/>
<path d="M69.4765 78.134L60.814 0.688468H78.942L83.7035 65.5133H83.9903L91.6775 0.688468H112.387L120.074 65.5133H120.304L125.237 0.688468H143.48L134.531 78.134H108.773L102.118 13.0224H101.946L95.349 78.134H69.4765ZM177.572 78.6503C165.487 78.6503 158.067 75.3422 155.314 68.7258C152.56 62.0712 151.183 52.2997 151.183 39.4113C151.183 26.408 152.541 16.5983 155.256 9.98193C158.01 3.32735 165.449 5.79276e-05 177.572 5.79276e-05C189.734 5.79276e-05 197.192 3.34647 199.945 10.0393C202.699 16.6939 204.076 26.4845 204.076 39.4113C204.076 52.2997 202.699 62.0712 199.945 68.7258C197.192 75.3422 189.734 78.6503 177.572 78.6503ZM177.572 66.5459C180.594 66.5459 182.907 65.3029 184.514 62.817C186.12 60.3311 186.923 52.5292 186.923 39.4113C186.923 26.0256 186.12 18.1281 184.514 15.7186C182.907 13.3092 180.594 12.1045 177.572 12.1045C174.627 12.1045 172.352 13.3092 170.746 15.7186C169.139 18.1281 168.336 26.0256 168.336 39.4113C168.336 52.5292 169.139 60.3311 170.746 62.817C172.352 65.3029 174.627 66.5459 177.572 66.5459ZM213.716 78.134V0.688468H246.76C254.562 0.688468 259.17 3.17437 260.585 8.14619C262.038 13.0798 262.765 18.3002 262.765 23.8074C262.765 29.2382 262.019 34.2291 260.528 38.7802C259.036 43.2931 254.332 45.5495 246.415 45.5495H230.984V78.134H213.716ZM245.727 78.134L236.606 42.2796L253.357 41.0749L263.855 78.134H245.727ZM230.984 34.9366H240.564C242.667 34.9366 244.006 33.9614 244.58 32.0109C245.192 30.0222 245.498 27.3259 245.498 23.9221C245.498 20.4419 245.192 17.7265 244.58 15.776C243.968 13.7873 242.629 12.7929 240.564 12.7929H230.984V34.9366ZM274.131 78.134V0.688468H291.341V66.1443H310.502V78.134H274.131ZM318.106 78.134V0.688468H348.339C357.403 0.688468 362.986 3.46121 365.09 9.00669C367.193 14.5522 368.245 24.6679 368.245 39.3539C368.245 54.0781 367.174 64.2321 365.033 69.8158C362.929 75.3613 357.365 78.134 348.339 78.134H318.106ZM335.259 66.0296H343.118C346.025 66.0296 348.071 64.8631 349.257 62.5302C350.48 60.1973 351.092 52.4718 351.092 39.3539C351.092 26.2742 350.48 18.587 349.257 16.2923C348.071 13.9594 346.025 12.7929 343.118 12.7929H335.259V66.0296ZM427.365 78.593C415.203 78.593 407.841 75.2848 405.278 68.6685C402.754 62.0139 401.492 52.185 401.492 39.1818C401.492 26.1403 402.754 16.3497 405.278 9.80983C407.841 3.26998 415.184 5.79276e-05 427.307 5.79276e-05C439.622 5.79276e-05 446.927 3.17437 449.221 9.52299C451.554 15.8716 452.721 23.5588 452.721 32.5846H435.339C435.339 23.0616 434.688 17.2676 433.388 15.2023C432.126 13.1371 430.099 12.1045 427.307 12.1045C424.515 12.1045 422.393 13.2327 420.94 15.4892C419.486 17.7074 418.76 25.6049 418.76 39.1818C418.76 52.8351 419.467 60.8092 420.882 63.1039C422.335 65.3603 424.477 66.4885 427.307 66.4885C430.061 66.4885 432.088 65.4368 433.388 63.3333C434.688 61.1916 435.339 55.4549 435.339 46.1232H452.721C452.721 54.8048 451.554 62.3963 449.221 68.8979C446.889 75.3613 439.603 78.593 427.365 78.593ZM487.408 78.5356C478.612 78.5356 472.168 77.0058 468.076 73.9462C463.983 70.8867 461.937 65.7427 461.937 58.5145V0.688468H479.147V56.3345C479.147 60.006 479.778 62.6067 481.04 64.1365C482.341 65.6663 484.463 66.4311 487.408 66.4311C490.315 66.4311 492.399 65.6663 493.661 64.1365C494.962 62.6067 495.612 60.006 495.612 56.3345V0.688468H512.822V58.5145C512.822 65.7427 510.776 70.8867 506.684 73.9462C502.591 77.0058 496.166 78.5356 487.408 78.5356ZM524.924 78.134V0.688468H556.418C564.832 0.688468 569.785 3.61419 571.276 9.46563C572.768 15.3171 573.514 21.8187 573.514 28.9704C573.514 36.1987 572.749 42.7577 571.219 48.6474C569.727 54.4988 564.794 57.4245 556.418 57.4245H542.134V78.134H524.924ZM542.134 45.3201H550.624C552.957 45.3201 554.487 44.058 555.213 41.5338C555.978 39.0097 556.361 34.841 556.361 29.0278C556.361 23.2146 555.978 19.0651 555.213 16.5791C554.449 14.055 552.919 12.7929 550.624 12.7929H542.134V45.3201Z" fill="white"/>
<path d="M608.807 78.1335V1.36142H679.153V20.2417H637.526V35.8236H675.286V53.5665H637.526V78.1335H608.807ZM688.044 78.1335V1.36142H716.535V78.1335H688.044ZM728.008 78.1335V1.36142H787.265C797.122 1.36142 804.288 3.63615 808.761 8.18561C813.235 12.6972 815.472 18.8768 815.472 26.7247C815.472 34.4966 813.083 40.5626 808.306 44.9225C803.567 49.2824 796.023 51.4623 785.673 51.4623H756.784V78.1335H728.008ZM786.071 78.1335L762.186 42.534L790.961 42.0222L817.86 78.1335H786.071ZM756.784 34.1175H778.394C781.427 34.1175 783.569 33.5678 784.82 32.4683C786.071 31.3689 786.696 29.6249 786.696 27.2365C786.696 24.7722 786.052 22.9903 784.763 21.8909C783.512 20.7914 781.389 20.2417 778.394 20.2417H756.784V34.1175ZM825.399 78.1335V1.36142H900.863V20.2417H854.117V30.7054H896.711V48.4483H854.117V59.2533H900.863V78.1335H825.399Z" fill="white"/>
<path d="M989.436 47.5896C989.746 45.6853 989.901 43.7383 989.901 41.7486C989.901 41.2173 989.888 40.6993 989.866 40.1797C989.866 39.9948 989.853 39.8216 989.83 39.6367C989.818 39.1938 989.782 38.7609 989.747 38.328L989.747 38.3276C989.736 38.1677 989.71 37.9945 989.688 37.823C989.651 37.4266 989.604 37.0185 989.545 36.6238L989.545 36.6227C989.508 36.3517 989.472 36.0922 989.424 35.8344C989.294 34.9317 989.116 34.0556 988.901 33.1795C988.843 32.8947 988.771 32.6232 988.699 32.3401L988.672 32.2423C988.574 31.8788 988.476 31.5165 988.367 31.1543C988.27 30.8445 988.175 30.548 988.081 30.2649C987.972 29.9085 987.853 29.5587 987.725 29.2156C987.569 28.7593 987.404 28.3146 987.211 27.8699C987.058 27.4746 986.888 27.0793 986.701 26.684C986.583 26.4142 986.46 26.1511 986.332 25.8946C986.165 25.5115 985.974 25.1401 985.773 24.757C985.606 24.4372 985.439 24.1275 985.26 23.821C984.762 22.8933 984.2 21.9923 983.606 21.1395C983.595 21.1279 983.595 21.1395 983.595 21.1395V21.1279C983.356 20.7698 983.094 20.4117 982.846 20.0669C982.078 19.0091 981.247 18.0022 980.358 17.0524C979.775 16.4106 979.168 15.7932 978.538 15.2003H978.525C977.892 14.5952 977.241 14.0272 976.574 13.4965C974.055 11.4353 971.262 9.76353 968.281 8.53325C964.307 6.85275 959.953 5.94005 955.395 5.94005C950.969 5.92876 946.584 6.81357 942.485 8.54491C936.274 11.1413 930.928 15.561 927.1 21.2628C923.04 27.2614 920.87 34.4181 920.889 41.7486C920.889 43.6549 921.032 45.5582 921.318 47.4413C922.141 52.7764 924.122 57.8474 927.112 62.2711C927.724 63.1739 928.375 64.0475 929.063 64.8893C929.445 65.3523 929.846 65.7853 930.244 66.2217H930.241L930.265 66.2466C930.442 66.4398 930.607 66.6514 930.788 66.8396C930.91 66.9514 931.029 67.0663 931.145 67.1843C931.156 67.2093 931.182 67.2343 931.204 67.2576C931.336 67.4075 931.479 67.5424 931.633 67.6906C931.773 67.8376 931.92 67.9776 932.072 68.1104C932.082 68.1325 932.099 68.1503 932.121 68.1603C932.133 68.172 932.145 68.197 932.169 68.2086C932.205 68.2403 932.241 68.2736 932.275 68.3085C932.288 68.3238 932.305 68.3362 932.323 68.3452L932.668 68.6666C932.813 68.8054 932.964 68.9371 933.12 69.0614C933.418 69.3312 933.727 69.5949 934.048 69.8525C934.085 69.8875 934.109 69.9141 934.143 69.9374C934.501 70.2239 934.87 70.5187 935.25 70.7902C935.691 71.1233 936.154 71.4564 936.619 71.7662C936.714 71.8278 936.809 71.9011 936.905 71.9627C937.239 72.1859 937.571 72.3824 937.905 72.5939C938.202 72.7777 938.503 72.9543 938.808 73.1236C939.075 73.2809 939.345 73.4336 939.617 73.5816C940.224 73.9013 940.83 74.2111 941.45 74.4943C941.904 74.703 942.364 74.9045 942.83 75.0988C942.953 75.1599 943.08 75.21 943.211 75.2487L943.888 75.5069C944.162 75.6189 944.44 75.7178 944.722 75.8034C945.01 75.9 945.292 75.991 945.567 76.0765C945.877 76.1764 946.186 76.2708 946.494 76.3596C946.723 76.4221 946.953 76.4793 947.184 76.5312C947.744 76.6789 948.303 76.8066 948.861 76.9143C949.214 76.9862 949.567 77.0523 949.921 77.1125C950.054 77.1374 950.195 77.1491 950.327 77.1741C950.79 77.2474 951.254 77.309 951.718 77.359C951.765 77.359 951.813 77.3723 951.861 77.3723C952.419 77.4294 952.978 77.4744 953.538 77.5072H953.622C956.399 77.6561 959.184 77.4576 961.916 76.9159C970.851 75.1488 978.573 69.7892 983.618 62.3443V62.3327C986.616 57.9436 988.606 52.9004 989.436 47.5896Z" fill="#D6D6D6" stroke="#7E7E7E" stroke-width="2.43899" stroke-linecap="round" stroke-linejoin="round"/>
<path d="M989.436 47.5896C989.746 45.6853 989.901 43.7383 989.901 41.7486C989.901 41.2173 989.888 40.6993 989.866 40.1797C989.866 39.9948 989.853 39.8216 989.83 39.6367C989.818 39.1938 989.782 38.7609 989.747 38.328L989.747 38.3276C989.736 38.1677 989.71 37.9945 989.688 37.823C989.651 37.4266 989.604 37.0185 989.545 36.6238L989.545 36.6227C989.508 36.3517 989.472 36.0922 989.424 35.8344C989.294 34.9317 989.116 34.0556 988.901 33.1795C988.843 32.8947 988.771 32.6232 988.699 32.3401L988.672 32.2423C988.574 31.8788 988.476 31.5165 988.367 31.1543C988.27 30.8445 988.175 30.548 988.081 30.2649C987.972 29.9085 987.853 29.5587 987.725 29.2156C987.569 28.7593 987.404 28.3146 987.211 27.8699C987.058 27.4746 986.888 27.0793 986.701 26.684C986.583 26.4142 986.46 26.1511 986.332 25.8946C986.165 25.5115 985.974 25.1401 985.773 24.757C985.606 24.4372 985.439 24.1275 985.26 23.821C984.762 22.8933 984.2 21.9923 983.606 21.1395C983.595 21.1279 983.595 21.1395 983.595 21.1395V21.1279C983.356 20.7698 983.094 20.4117 982.846 20.0669C982.078 19.0091 981.247 18.0022 980.358 17.0524C979.775 16.4106 979.168 15.7932 978.538 15.2003H978.525C977.892 14.5952 977.241 14.0272 976.574 13.4965C974.055 11.4353 971.262 9.76353 968.281 8.53325C964.307 6.85275 959.953 5.94005 955.395 5.94005C950.969 5.92876 946.584 6.81357 942.485 8.54491C936.274 11.1413 930.928 15.561 927.1 21.2628C923.04 27.2614 920.87 34.4181 920.889 41.7486C920.889 43.6549 921.032 45.5582 921.318 47.4413C922.141 52.7764 924.122 57.8474 927.112 62.2711C927.724 63.1739 928.375 64.0475 929.063 64.8893C929.445 65.3523 929.846 65.7853 930.244 66.2217H930.241L930.265 66.2466C930.442 66.4398 930.607 66.6514 930.788 66.8396C930.91 66.9514 931.029 67.0663 931.145 67.1843C931.156 67.2093 931.182 67.2343 931.204 67.2576C931.336 67.4075 931.479 67.5424 931.633 67.6906C931.773 67.8376 931.92 67.9776 932.072 68.1104C932.082 68.1325 932.099 68.1503 932.121 68.1603C932.133 68.172 932.145 68.197 932.169 68.2086C932.205 68.2403 932.241 68.2736 932.275 68.3085C932.288 68.3238 932.305 68.3362 932.323 68.3452L932.668 68.6666C932.813 68.8054 932.964 68.9371 933.12 69.0614C933.418 69.3312 933.727 69.5949 934.048 69.8525C934.085 69.8875 934.109 69.9141 934.143 69.9374C934.501 70.2239 934.87 70.5187 935.25 70.7902C935.691 71.1233 936.154 71.4564 936.619 71.7662C936.714 71.8278 936.809 71.9011 936.905 71.9627C937.239 72.1859 937.571 72.3824 937.905 72.5939C938.202 72.7777 938.503 72.9543 938.808 73.1236C939.075 73.2809 939.345 73.4336 939.617 73.5816C940.224 73.9013 940.83 74.2111 941.45 74.4943C941.904 74.703 942.364 74.9045 942.83 75.0988C942.953 75.1599 943.08 75.21 943.211 75.2487L943.888 75.5069C944.162 75.6189 944.44 75.7178 944.722 75.8034C945.01 75.9 945.292 75.991 945.567 76.0765C945.877 76.1764 946.186 76.2708 946.494 76.3596C946.723 76.4221 946.953 76.4793 947.184 76.5312C947.744 76.6789 948.303 76.8066 948.861 76.9143C949.214 76.9862 949.567 77.0523 949.921 77.1125C950.054 77.1374 950.195 77.1491 950.327 77.1741C950.79 77.2474 951.254 77.309 951.718 77.359C951.765 77.359 951.813 77.3723 951.861 77.3723C952.419 77.4294 952.978 77.4744 953.538 77.5072H953.622C956.399 77.6561 959.184 77.4576 961.916 76.9159C970.851 75.1488 978.573 69.7892 983.618 62.3443V62.3327C986.616 57.9436 988.606 52.9004 989.436 47.5896Z" fill="#D6D6D6" stroke="black" stroke-width="1.62599" stroke-linecap="round" stroke-linejoin="round"/>
<path d="M943.547 36.9388C943.783 36.2085 944.233 35.5726 944.834 35.1203L952.157 29.5975C952.767 29.1365 953.502 28.8882 954.256 28.8882C954.256 28.8882 954.256 28.8882 954.257 28.8882C955.011 28.8884 955.745 29.1367 956.354 29.5975L963.679 35.1187C964.272 35.564 964.717 36.1875 964.956 36.9038C964.963 36.926 964.971 36.9482 964.978 36.9706C965.211 37.7149 965.21 38.5168 964.976 39.2608L962.179 48.1963C961.943 48.9478 961.492 49.5796 960.91 50.0275C960.309 50.4898 959.568 50.7562 958.783 50.7562H949.729C948.975 50.7571 948.24 50.5098 947.63 50.0498C947.615 50.0383 947.6 50.0268 947.585 50.0151L941.661 63.9607C942.189 64.3537 942.635 64.854 942.973 65.4322L946.327 71.1L948.934 75.5202C949.195 75.9649 948.863 76.9143 948.863 76.9143C942.973 75.8214 940.259 74.2866 936.616 71.7662C932.889 69.2649 929.662 66.041 927.112 62.2711C927.23 62.0559 927.408 61.8823 927.622 61.7722C927.836 61.6622 928.077 61.6207 928.314 61.6532L939.428 63.0605C940.153 63.1507 940.85 63.4111 941.464 63.822C941.531 63.8666 941.596 63.9129 941.661 63.9607L947.585 50.0151C946.998 49.5575 946.561 48.9223 946.335 48.1963L943.537 39.2608C943.304 38.517 943.303 37.7155 943.536 36.9715C943.54 36.9606 943.543 36.9497 943.547 36.9388Z" fill="black"/>
<path d="M957.62 14.9538L967.626 9.86733C967.862 9.75136 968.054 9.55612 968.172 9.31511C968.291 9.0741 968.329 8.7992 968.281 8.53325C964.307 6.85442 959.953 5.94005 955.395 5.94005C950.969 5.92876 946.584 6.81357 942.485 8.54491C942.438 8.81745 942.477 9.09859 942.597 9.34586C942.717 9.59314 942.912 9.79313 943.151 9.91563L953.395 14.9788C954.022 15.2818 954.704 15.4457 955.395 15.4601C956.164 15.4721 956.926 15.2988 957.62 14.9538Z" fill="black"/>
<path d="M929.659 38.0195C930.107 37.4351 930.428 36.7566 930.599 36.0309C930.777 35.2914 930.788 34.5119 930.622 33.7591L928.147 22.2388C928.041 21.6958 927.599 21.3261 927.1 21.2628C923.04 27.2614 920.87 34.4181 920.889 41.7486C920.887 43.655 921.03 45.5585 921.318 47.4413C921.552 47.5194 921.803 47.5223 922.039 47.4494C922.275 47.3766 922.484 47.2315 922.639 47.0333L929.659 38.0195Z" fill="black"/>
<path d="M983.618 62.3443V62.3327C983.503 62.1061 983.324 61.9194 983.105 61.8005C982.887 61.6815 982.638 61.6342 982.393 61.6648L971.316 63.0738C970.592 63.1685 969.897 63.4306 969.284 63.8408C968.67 64.251 968.153 64.7988 967.771 65.4439L961.832 75.4952C961.705 75.7127 961.645 75.9652 961.66 76.2191C961.675 76.473 961.764 76.7161 961.916 76.9159C970.851 75.1488 978.573 69.7892 983.618 62.3443Z" fill="black"/>
<path d="M988.782 47.5498C988.992 47.6263 989.218 47.6401 989.436 47.5896C990.216 42.8009 990.201 38.6473 988.901 33.1795C987.709 28.1621 986.102 24.7111 983.606 21.1412C983.599 21.1323 983.595 21.1323 983.595 21.1412C983.37 21.1902 983.163 21.3059 983 21.4745C982.837 21.643 982.725 21.857 982.677 22.0905L981.441 27.8815V27.8949L980.18 33.7591C980.017 34.4977 980.018 35.265 980.183 36.0031C980.348 36.7412 980.672 37.4307 981.132 38.0195L982 39.1304L988.248 47.1565C988.387 47.3369 988.572 47.4732 988.782 47.5498Z" fill="black"/>
<path d="M955.395 15.4635L954.257 28.8896M964.952 36.9041L980.159 35.9776M960.909 50.0267L969.242 63.8666M947.587 50.0117L941.661 63.9607M943.55 36.9391L930.601 36.0359M944.834 35.1203C944.224 35.5793 943.769 36.2275 943.536 36.9715C943.303 37.7155 943.304 38.517 943.537 39.2608L946.335 48.1963C946.567 48.9408 947.02 49.5898 947.63 50.0498C948.24 50.5098 948.975 50.7571 949.729 50.7562H958.783C960.33 50.7562 961.7 49.7235 962.179 48.1963L964.976 39.2608C965.21 38.5168 965.211 37.7149 964.978 36.9706C964.745 36.2262 964.29 35.5778 963.679 35.1187L956.354 29.5975C955.745 29.1365 955.01 28.8882 954.256 28.8882C953.502 28.8882 952.767 29.1365 952.157 29.5975L944.834 35.1203ZM967.626 9.86733L957.62 14.9538C956.926 15.2988 956.164 15.4721 955.395 15.4601C954.704 15.4457 954.022 15.2818 953.395 14.9788L943.151 9.91563C942.912 9.79313 942.717 9.59314 942.597 9.34586C942.477 9.09859 942.438 8.81745 942.485 8.54491C946.584 6.81357 950.969 5.92876 955.395 5.94005C959.953 5.94005 964.307 6.85442 968.281 8.53325C968.329 8.7992 968.291 9.0741 968.172 9.31511C968.054 9.55612 967.862 9.75136 967.626 9.86733ZM936.616 71.7662C932.889 69.2649 929.662 66.041 927.112 62.2711C927.23 62.0559 927.408 61.8823 927.622 61.7722C927.836 61.6622 928.077 61.6207 928.314 61.6532L939.428 63.0605C940.153 63.1507 940.85 63.4111 941.464 63.822C942.078 64.2329 942.594 64.7836 942.973 65.4322L946.327 71.0999L948.934 75.5202C949.195 75.9649 948.863 76.9143 948.863 76.9143C942.973 75.8214 940.259 74.2866 936.616 71.7662ZM930.599 36.0309C930.428 36.7566 930.107 37.4351 929.659 38.0195L922.639 47.0333C922.484 47.2315 922.275 47.3766 922.039 47.4494C921.803 47.5223 921.552 47.5194 921.318 47.4413C921.03 45.5585 920.887 43.655 920.889 41.7486C920.87 34.4181 923.04 27.2614 927.1 21.2628C927.599 21.3261 928.041 21.6958 928.147 22.2388L930.622 33.7591C930.788 34.5119 930.777 35.2914 930.599 36.0309ZM983.618 62.3327V62.3443C978.573 69.7892 970.851 75.1488 961.916 76.9159C961.764 76.7161 961.675 76.473 961.66 76.2191C961.645 75.9653 961.705 75.7127 961.832 75.4952L967.771 65.4439C968.153 64.7988 968.67 64.251 969.284 63.8408C969.897 63.4306 970.592 63.1685 971.316 63.0738L982.393 61.6648C982.638 61.6342 982.887 61.6815 983.105 61.8005C983.324 61.9194 983.503 62.1061 983.618 62.3327ZM989.436 47.5896C989.218 47.6401 988.992 47.6263 988.782 47.5498C988.572 47.4732 988.387 47.3369 988.248 47.1565L982 39.1304L981.132 38.0195C980.672 37.4307 980.348 36.7412 980.183 36.0031C980.018 35.265 980.017 34.4977 980.18 33.7591L981.441 27.8949V27.8815L982.677 22.0905C982.725 21.857 982.837 21.643 983 21.4745C983.163 21.3059 983.37 21.1902 983.595 21.1412C983.595 21.1323 983.599 21.1323 983.606 21.1412C986.102 24.7111 987.709 28.1621 988.901 33.1795C990.201 38.6473 990.216 42.8009 989.436 47.5896Z" stroke="black" stroke-width="1.62599" stroke-linecap="round" stroke-linejoin="round"/>
<path d="M993.377 22.8178C998.436 29.5919 997.853 36.2322 990.763 42.8863H992.901C988.413 46.5274 983.897 47.7942 979.861 48.5105C979.09 48.6474 978.642 48.6003 977.956 48.5105L977.869 48.499C975.029 48.1274 968.64 47.2913 964.411 41.354C965.203 41.6774 966.769 42.3826 967.483 42.3826C961.682 36.033 961.205 30.2493 966.684 22.241C966.684 25.9813 968.894 29.4457 970.59 27.8765C972.638 25.9813 970.59 21.0052 974.591 13.8867C975.606 13.9825 977.525 13.6547 978.021 12.2061C979.069 9.14122 977.311 5.41821 977.311 3.34204C983.529 7.32754 991.908 12.2061 989.868 22.8178C989.368 25.4234 993.377 27.8765 993.377 22.8178Z" fill="#FB3702"/>
<path d="M993.314 26.6345C993.314 30.0094 991.335 32.5679 991.335 35.2552C992.056 35.8339 992.947 35.8884 994.101 34.6908C990.115 44.469 983.978 46.9268 979.862 48.5104C979.09 48.6474 978.617 48.7213 977.957 48.5104C976.191 47.9466 969.309 45.888 967.483 43.1693C968.275 43.4927 968.975 43.4927 969.689 43.4927C967.874 41.8762 964.15 33.5477 965.986 24.5115C967.043 28.8898 969.555 30.6428 971.494 29.3018C974.124 27.4819 971.868 22.3154 975.375 15.802C976.39 15.8978 977.947 15.7382 978.68 14.3323C980.585 11.3629 979.862 8.33959 979.059 6.23242C985.761 10.9029 988.436 17.2717 988.436 25.9813C988.436 27.785 990.692 28.5941 993.314 26.6345Z" fill="#FF733D"/>
<path d="M990.484 29.59C990.807 33.8853 989.325 35.3547 989.865 36.7335C990.277 37.7858 990.838 37.588 991.981 37.1236C989.197 43.7277 983.977 46.9266 979.861 48.5102C979.089 48.6471 978.616 48.7211 977.956 48.5102C976.19 47.9464 971.749 45.1598 969.923 42.4412C968.097 39.7225 967.321 37.1236 966.626 31.7164C967.798 33.531 971.008 34.1547 972.32 32.8605C973.925 31.2784 973.565 26.7614 974.443 24.4314C976.252 19.6345 979.861 17.016 980.703 11.9309C988.543 17.3858 984.082 26.993 986.048 29.59C987.122 31.0082 988.824 30.7043 990.484 29.59Z" fill="#FF8E12"/>
<path d="M988.543 32.4561C988.543 32.4561 986.935 36.5958 987.474 37.9746C988.934 41.7071 983.643 46.8792 979.861 48.5103C979.089 48.6472 978.616 48.7212 977.956 48.5103C976.19 47.9465 973.439 45.6853 972.774 43.181C972.108 40.6766 969.566 35.9694 969.566 35.9694C970.992 36.894 972.263 37.2637 973.575 35.9694C975.18 34.3874 975.013 31.2729 975.892 28.9429C977.701 24.146 979.639 22.7147 981.956 19.2014C984.985 23.9167 981.677 29.1195 983.643 31.7165C984.717 33.1348 986.884 33.5705 988.543 32.4561Z" fill="#FFCA51"/>
<path d="M986.693 41.2786C985.361 43.9556 983.115 46.6758 979.86 48.5105C979.089 48.6474 978.616 48.7214 977.955 48.5105C976.189 47.9467 974.752 46.4599 974.086 43.9556C973.42 41.4513 972.059 37.9748 972.059 37.9748C973 38.3526 973.51 39.1579 974.516 37.9747C975.98 36.2526 975.956 33.112 976.834 30.782C977.713 28.4519 978.737 26.9643 981.714 24.2563C980.564 28.3183 980.64 31.8001 981.714 33.2183C982.787 34.6366 984.375 35.3809 986.034 34.2665C986.034 34.2665 985.08 36.5959 985.62 37.9747C985.95 38.8195 987.361 39.9351 986.693 41.2786Z" fill="#FDFA9E"/>
<path d="M983.756 43.0798C983.321 45.2781 981.939 46.9718 980.14 47.7349C979.452 48.0268 978.815 48.0456 978.135 47.7349C976.742 47.099 976.212 45.9638 975.741 44.1903C975.345 42.6991 975.462 40.7828 976.499 39.5633C977.536 38.3437 977.492 37.3699 977.492 35.598C977.492 34.381 978.015 33.2243 978.996 32.5303C978.996 34.4736 979.932 36.1394 980.947 37.3233C982.764 39.4421 982.836 38.6937 983.321 39.9335C983.555 40.5318 983.963 42.0337 983.756 43.0798Z" fill="#FFFFE4"/>
</svg>
