<svg width="581" height="187" viewBox="0 0 581 187" fill="none" xmlns="http://www.w3.org/2000/svg">
<path d="M94.1895 5.29871C106.228 5.29871 112.738 8.38209 113.723 14.5487C114.707 20.6827 115.199 28.8833 115.199 39.1503C115.199 49.3515 114.707 57.5192 113.723 63.6532C112.739 69.7872 106.228 72.8544 94.1895 72.8544C82.2167 72.8544 75.738 69.7872 74.7539 63.6532C73.7699 57.5193 73.2783 49.3514 73.2783 39.1503C73.2783 28.8178 73.7538 20.601 74.7051 14.4999C75.6563 8.36588 82.1511 5.29871 94.1895 5.29871ZM287.493 5.29871C299.761 5.29871 306.306 8.382 307.126 14.5487C307.979 20.7154 308.405 27.2103 308.405 34.0331H290.15C290.15 25.3407 289.953 20.5515 289.56 19.6659C289.199 18.7804 288.543 18.3378 287.592 18.3378C286.673 18.3378 286.001 18.7973 285.574 19.7157C285.181 20.636 284.984 27.049 284.984 38.954C284.984 50.9903 285.181 57.4685 285.574 58.3885C285.968 59.307 286.641 59.7665 287.592 59.7665C288.543 59.7665 289.199 59.34 289.56 58.4872C289.953 57.6015 290.15 52.9107 290.15 44.4149H308.405C308.405 50.8113 307.962 57.1429 307.076 63.4081C306.223 69.6729 299.712 72.8055 287.543 72.8055C275.57 72.8055 269.125 69.6401 268.206 63.3094C267.288 56.9787 266.828 48.8601 266.828 38.954C266.828 29.0149 267.288 20.9286 268.206 14.6962C269.125 8.43126 275.554 5.29875 287.493 5.29871ZM331.862 54.9452C331.862 56.5197 332.043 57.7009 332.404 58.4882C332.765 59.275 333.47 59.6688 334.52 59.6688C335.569 59.6688 336.258 59.2913 336.586 58.537C336.947 57.7497 337.128 56.5525 337.128 54.9452V5.98816H355.333V57.3563C355.333 62.8013 353.725 66.7216 350.511 69.1161C347.296 71.5105 341.965 72.7079 334.52 72.7079C327.041 72.7079 321.694 71.5105 318.479 69.1161C315.298 66.7216 313.707 62.8013 313.707 57.3563V5.98816H331.862V54.9452ZM19.9277 59.1278H20.2227L24.1094 5.98816H44.1348L48.0713 59.078H48.2686L49.4004 5.98816H68.4414L63.4229 72.412H36.7051L34.2451 19.371H34.0488L31.5889 72.412H4.77246L0 5.98816H18.8447L19.9277 59.1278ZM149.526 5.98816C157.103 5.98823 161.138 8.33367 161.63 13.0243C162.155 17.7149 162.417 22.1267 162.417 26.2596C162.417 30.2287 162.139 34.2799 161.581 38.413C161.255 40.9571 159.571 42.7101 156.53 43.6757L163.353 72.412H144.704L140.816 44.5634H139.488V72.412H121.234V5.98816H149.526ZM187.989 59.5702H198.273V72.412H169.784V5.98816H187.989V59.5702ZM229.315 5.98816C237.647 5.98816 242.158 8.43171 242.847 13.3192C243.568 18.1739 243.929 26.7848 243.929 39.1512C243.929 51.5174 243.552 60.1606 242.798 65.0809C242.076 69.9684 237.582 72.412 229.315 72.412H202.697V5.98816H229.315ZM390.289 5.98816C398.227 5.98822 402.441 8.69417 402.934 14.1063C403.458 19.5187 403.722 24.9804 403.722 30.4911C403.722 36.1002 403.442 41.644 402.885 47.1219C402.36 52.5669 398.161 55.2899 390.289 55.2899H380.989V72.412H362.784V5.98816H390.289ZM94.1895 18.3378C93.1726 18.3378 92.4348 18.7642 91.9756 19.6171C91.5164 20.4701 91.2861 26.9811 91.2861 39.1503C91.2861 50.959 91.5164 57.3557 91.9756 58.3397C92.4348 59.3237 93.1726 59.8163 94.1895 59.8163C95.2391 59.8163 95.9939 59.3238 96.4531 58.3397C96.9123 57.3552 97.1416 50.9584 97.1416 39.1503C97.1416 26.9824 96.9122 20.4713 96.4531 19.6171C95.9939 18.7642 95.2391 18.3378 94.1895 18.3378ZM220.804 59.3729H223.362C224.412 59.3729 225.085 58.8651 225.38 57.8485C225.675 56.7989 225.822 50.5662 225.822 39.1512C225.822 27.7361 225.675 21.5357 225.38 20.5516C225.085 19.535 224.412 19.0273 223.362 19.0272H220.804V59.3729ZM380.989 42.2509H383.598C384.581 42.2506 385.155 41.5288 385.319 40.0858C385.483 38.6097 385.565 35.4274 385.565 30.5399C385.565 25.7511 385.467 22.6345 385.271 21.1913C385.074 19.7485 384.516 19.0275 383.598 19.0272H380.989V42.2509ZM139.488 33.3944H142.343C143.294 33.3942 143.819 32.8036 143.917 31.6229C144.048 30.442 144.113 28.6702 144.113 26.3085C144.113 23.8157 144.031 21.9785 143.867 20.7977C143.736 19.6173 143.228 19.0274 142.343 19.0272H139.488V33.3944Z" fill="white"/>
<path d="M98.9727 115.211H36.5176V130.566H92.7783V152.244H36.5176V178.956H0V91.8544H98.9727V115.211ZM149.679 178.956H113.548V91.8544H149.679V178.956ZM246.16 91.8544C257.86 91.8544 267.237 94.1992 274.291 98.8876C281.345 103.576 284.872 111.167 284.872 121.662C284.872 132.071 281.13 139.642 273.646 144.373C269.567 146.951 264.735 148.825 259.15 149.998L288.291 178.956H246.999L222.123 151.471H201.771V178.956H165.253V91.8544H246.16ZM401.744 115.211H331.289V124.436H395.163V146.115H331.289V155.599H401.744V178.956H294.771V91.8544H401.744V115.211ZM201.771 129.534H235.708C240.181 129.534 243.407 128.975 245.386 127.856C247.364 126.738 248.354 124.931 248.354 122.436C248.354 119.856 247.343 118.006 245.321 116.888C243.3 115.769 240.095 115.211 235.708 115.211H201.771V129.534Z" fill="white"/>
<circle cx="491.315" cy="97.489" r="87.0025" fill="#D9D9D9" stroke="white" stroke-width="5"/>
<path d="M491.378 11.0876C489.318 11.027 459.873 10.4838 440.705 27.9092C438.992 28.6835 432.086 32.3558 423.647 44.2078C419.571 49.4624 415.935 55.0431 412.774 60.8935L412.763 60.9166C412.367 61.6563 404.722 76.1086 404.722 93.6496C404.722 94.9815 404.8 96.2991 404.889 97.6021H404.866C404.574 110.977 408.015 124.262 411.63 132.268C414.837 139.37 420.214 147.255 420.63 147.824C426.131 157.659 448.209 176.31 459.907 177.786C467.527 183.747 501.75 188.728 522.597 177.775C551.568 170.095 566.066 141.184 567.179 138.885C568.072 137.486 577.811 121.731 577.811 102.375C577.811 101.563 578.083 96.6545 578.083 94.9035C578.083 73.9821 563.336 42.9798 551.785 36.4904C538.742 18.6605 505.131 9.41761 491.378 11.0876ZM534.899 138.726C521.49 147.015 503.969 151.739 499.945 152.75C496.012 150.127 476.931 137.186 471.19 129.812C471.959 125.637 475.16 108.203 478.136 91.76C483.49 89.6941 507.113 80.6304 516.232 78.0358C519.624 80.8962 532.706 92.1327 542.952 103.196C543.007 114.941 536.231 134.918 534.899 138.726ZM441.069 34.5199C442.369 34.5546 446.992 34.8637 452.3 37.0769C450.055 41.4716 445.247 52.5174 444.435 67.6574C441.052 69.9486 429.255 78.5703 421.072 92.1876C417.426 90.324 412.979 87.7294 411.624 86.2125C411.486 85.7213 411.358 84.9585 411.358 83.797C411.358 76.4958 416.14 63.881 416.565 62.7831C417.18 61.6187 429.391 38.9434 441.069 34.5199ZM497.214 156.018C495.527 165.908 492.453 171.788 491.412 173.545C478.073 177.223 463.655 174.261 461.589 173.805C455.1 170.176 438.558 159.844 435.418 153.028C433.976 145.963 435.767 137.154 436.643 133.565C441.309 133.903 454.346 134.553 468.026 132.623C474.319 140.442 492.432 152.817 497.214 156.018ZM409.142 98.4863C409.307 96.2673 409.792 93.011 410.454 90.7805C413.413 93.0053 417.799 95.2849 419.966 96.3626C420.708 100.899 424.002 118.128 432.765 131.644C432.043 134.369 430.116 142.597 430.78 150.39C427.044 148.46 424.282 145.576 423.999 145.267C423.231 144.195 408.793 123.56 409.105 98.4863H409.142ZM519.205 43.3121C519.066 46.6926 518.323 59.7176 514.969 73.9994C505.428 76.7356 481.904 85.7704 476.553 87.8363C467.184 81.2633 457.886 74.5905 448.659 67.8192C449.561 51.3848 455.556 39.8449 456.807 37.6115C472.118 28.0912 487.755 26.0022 490.367 25.7162C506.102 30.7725 516.697 40.7724 519.205 43.3121ZM481.343 179.474C485.001 179.231 488.853 178.644 492.661 177.584C495.128 178.538 497.699 179.2 500.32 179.554C494.008 180.159 487.65 180.132 481.343 179.474ZM548.835 151.609C544.636 147.252 540.551 141.881 539.008 139.798C540.666 135.088 547.205 115.747 547.205 103.418C550.022 101.318 558.843 94.4499 565.587 86.0305C570.715 91.2717 573.137 98.8417 573.538 100.179C574.168 123.661 560.97 146.53 548.835 151.609ZM573.503 89.5959C571.952 86.9319 569.909 84.1553 567.323 81.8583C566.806 78.1109 564.038 62.029 553.362 47.4958C553.466 46.5365 553.593 44.9561 553.544 43.1907C562.088 51.9106 571.631 73.1875 573.503 89.5959ZM549.303 45.0312C535.7 39.8102 525.443 40.0327 522.166 40.2899C519.358 37.4237 508.878 27.5885 492.947 22.1306C493.438 19.1892 494.186 17.2765 494.605 16.3693C495.761 16.0543 498.431 15.5285 502.479 15.8261C517.049 18.0509 538.884 25.7306 548.537 39.1833C549.228 40.5354 549.378 42.9162 549.303 45.0312Z" fill="black"/>
<path d="M504.669 36.7504C504.099 42.8335 503.699 53.5989 507.291 58.1812C507.291 58.1812 505.6 46.3552 520.757 31.5177C526.861 25.5447 528.271 17.4206 526.14 11.3276C524.93 7.87582 522.718 5.02439 520.798 3.03338C519.677 1.86279 520.537 -0.0681818 522.168 0.0018535C532.033 0.442075 548.021 3.18346 554.815 20.2321C557.796 27.7158 558.016 35.4497 556.596 43.3137C555.695 48.3362 552.493 59.5019 559.797 60.8725C565.01 61.853 567.531 57.711 568.662 54.7295C569.132 53.4888 570.763 53.1787 571.643 54.1692C580.448 64.1842 581.198 75.9802 579.377 86.1353C575.855 105.765 555.975 120.052 536.225 120.052C511.553 120.052 491.913 105.935 486.82 80.3824C484.769 70.0672 485.81 49.6569 501.718 35.2496C502.898 34.1691 504.829 35.1296 504.669 36.7504Z" fill="url(#paint0_radial_2146_527)"/>
<path d="M545.24 73.4589C536.146 61.753 540.218 48.3963 542.449 43.0736C542.749 42.3732 541.949 41.7129 541.318 42.1431C537.406 44.8045 529.392 51.0676 525.66 59.8821C520.608 71.7981 520.968 77.631 523.96 84.7546C525.761 89.0468 523.669 89.9572 522.619 90.1173C521.598 90.2774 520.658 89.597 519.908 88.8867C517.749 86.8139 516.211 84.1809 515.465 81.2829C515.305 80.6625 514.495 80.4925 514.125 81.0027C511.323 84.8747 509.873 91.0878 509.803 95.48C509.582 109.057 520.798 120.062 534.365 120.062C551.464 120.062 563.92 101.153 554.095 85.3449C551.243 80.7426 548.562 77.7311 545.24 73.4589Z" fill="url(#paint1_radial_2146_527)"/>
<defs>
<radialGradient id="paint0_radial_2146_527" cx="0" cy="0" r="1" gradientTransform="matrix(-70.6226 -0.306502 -0.503539 115.878 531.339 120.363)" gradientUnits="userSpaceOnUse">
<stop offset="0.314" stop-color="#FF9800"/>
<stop offset="0.662" stop-color="#FF6D00"/>
<stop offset="0.972" stop-color="#F44336"/>
</radialGradient>
<radialGradient id="paint1_radial_2146_527" cx="0" cy="0" r="1" gradientTransform="matrix(-0.746362 73.8899 55.6077 0.561619 535.305 50.0855)" gradientUnits="userSpaceOnUse">
<stop offset="0.214" stop-color="#FFF176"/>
<stop offset="0.328" stop-color="#FFF27D"/>
<stop offset="0.487" stop-color="#FFF48F"/>
<stop offset="0.672" stop-color="#FFF7AD"/>
<stop offset="0.793" stop-color="#FFF9C4"/>
<stop offset="0.822" stop-color="#FFF8BD" stop-opacity="0.804"/>
<stop offset="0.863" stop-color="#FFF6AB" stop-opacity="0.529"/>
<stop offset="0.91" stop-color="#FFF38D" stop-opacity="0.209"/>
<stop offset="0.941" stop-color="#FFF176" stop-opacity="0"/>
</radialGradient>
</defs>
</svg>
